{
  "title" : "",
  "description" : "",
  "author" : "",
  "targetLoudness" : -18.0,
  "shouldApplyLoudnessNormalization" : true,
  "videoFormatFrameRate" : 30,
  "audioFormatSampleRate" : 44100,
  "allowSubFrameEditing" : false,
  "width" : 1280.0,
  "height" : 720.0,
  "version" : "6.0",
  "editRate" : 705600000,
  "authoringClientName" :  {
    "name" : "Camtasia",
    "platform" : "Windows",
    "version" : "2022.2.1"
  },
  "sourceBin" : [
    {
      "id" : 1,
      "src" : "video6050788113159033184.mp4",
      "rect" : [0, 0, 1280, 720],
      "lastMod" : "20230606T100737",
      "loudnessNormalization" : true,
      "sourceTracks" : [
        {
          "range" : [0, 2975582],
          "type" : 2,
          "editRate" : 48000,
          "trackRect" : [0, 0, 0, 0],
          "sampleRate" : 48000,
          "bitDepth" : 16,
          "numChannels" : 2,
          "integratedLUFS" : -26.8726672218007,
          "peakLevel" : 0.393589973449707,
          "metaData" : ""
        },
        {
          "range" : [0, 5582319],
          "type" : 0,
          "editRate" : 90000,
          "trackRect" : [0, 0, 1280, 720],
          "sampleRate" : "600241/10000",
          "bitDepth" : 24,
          "numChannels" : 0,
          "integratedLUFS" : 100.0,
          "peakLevel" : -1.0,
          "metaData" : ""
        }
      ],
      "metadata" : {
        "timeAdded" : "20230606T100742.360192"
      }
    },
    {
      "id" : 2,
      "src" : "Rec 6-06-2023-13-36-48.trec",
      "rect" : [0, 0, 1920, 1080],
      "lastMod" : "20230606T103648",
      "loudnessNormalization" : true,
      "sourceTracks" : [
        {
          "range" : [0, 5936],
          "type" : 0,
          "editRate" : 30,
          "trackRect" : [0, 0, 1920, 1080],
          "sampleRate" : "150001/5000",
          "bitDepth" : 24,
          "numChannels" : 0,
          "integratedLUFS" : 100.0,
          "peakLevel" : -1.0,
          "metaData" : "Rec 6-06-2023-13-36-48.trec;2b7b6a00-7a1f-11e2-83d0-0017f200be7f;2b7b6aef-7a1f-11e2-83d0-0017f200be7f;2b7b6af0-7a1f-11e2-83d0-0017f200be7f;2b7b6af1-7a1f-11e2-83d0-0017f200be7f;2b7b6af2-7a1f-11e2-83d0-0017f200be7f;2b7b6af3-7a1f-11e2-83d0-0017f200be7f;2b7b6af5-7a1f-11e2-83d0-0017f200be7f;2b7b6af6-7a1f-11e2-83d0-0017f200be7f;2b7b6af7-7a1f-11e2-83d0-0017f200be7f;2b7b6af8-7a1f-11e2-83d0-0017f200be7f;2b7b6af9-7a1f-11e2-83d0-0017f200be7f;2b7b6afa-7a1f-11e2-83d0-0017f200be7f;"
        },
        {
          "range" : [0, 8726528],
          "type" : 2,
          "editRate" : 44100,
          "trackRect" : [0, 0, 0, 0],
          "sampleRate" : 44100,
          "bitDepth" : 16,
          "numChannels" : 2,
          "integratedLUFS" : -26.7057088119971,
          "peakLevel" : 0.28973388671875,
          "metaData" : ""
        }
      ],
      "metadata" : {
        "timeAdded" : "20230606T103648.925431"
      }
    },
    {
      "id" : 3,
      "src" : "Rec 6-06-2023-15-23-42.trec",
      "rect" : [0, 0, 1920, 1080],
      "lastMod" : "20230606T122342",
      "loudnessNormalization" : true,
      "sourceTracks" : [
        {
          "range" : [0, 4514],
          "type" : 0,
          "editRate" : 30,
          "trackRect" : [0, 0, 1920, 1080],
          "sampleRate" : "150001/5000",
          "bitDepth" : 24,
          "numChannels" : 0,
          "integratedLUFS" : 100.0,
          "peakLevel" : -1.0,
          "metaData" : "Rec 6-06-2023-15-23-42.trec;2b7b6a00-7a1f-11e2-83d0-0017f200be7f;2b7b6aef-7a1f-11e2-83d0-0017f200be7f;2b7b6af0-7a1f-11e2-83d0-0017f200be7f;2b7b6af1-7a1f-11e2-83d0-0017f200be7f;2b7b6af2-7a1f-11e2-83d0-0017f200be7f;2b7b6af3-7a1f-11e2-83d0-0017f200be7f;2b7b6af5-7a1f-11e2-83d0-0017f200be7f;2b7b6af6-7a1f-11e2-83d0-0017f200be7f;2b7b6af7-7a1f-11e2-83d0-0017f200be7f;2b7b6af8-7a1f-11e2-83d0-0017f200be7f;2b7b6af9-7a1f-11e2-83d0-0017f200be7f;2b7b6afa-7a1f-11e2-83d0-0017f200be7f;"
        },
        {
          "range" : [0, 6637568],
          "type" : 2,
          "editRate" : 44100,
          "trackRect" : [0, 0, 0, 0],
          "sampleRate" : 44100,
          "bitDepth" : 16,
          "numChannels" : 2,
          "integratedLUFS" : -27.683668848638,
          "peakLevel" : 0.23114013671875,
          "metaData" : ""
        }
      ],
      "metadata" : {
        "timeAdded" : "20230606T122343.231124"
      }
    },
    {
      "id" : 4,
      "src" : "Rec 6-06-2023-15-32-40.trec",
      "rect" : [0, 0, 1920, 1080],
      "lastMod" : "20230606T123240",
      "loudnessNormalization" : true,
      "sourceTracks" : [
        {
          "range" : [0, 854],
          "type" : 0,
          "editRate" : 30,
          "trackRect" : [0, 0, 1920, 1080],
          "sampleRate" : "300007/10000",
          "bitDepth" : 24,
          "numChannels" : 0,
          "integratedLUFS" : 100.0,
          "peakLevel" : -1.0,
          "metaData" : "Rec 6-06-2023-15-32-40.trec;2b7b6a00-7a1f-11e2-83d0-0017f200be7f;2b7b6aef-7a1f-11e2-83d0-0017f200be7f;2b7b6af0-7a1f-11e2-83d0-0017f200be7f;2b7b6af1-7a1f-11e2-83d0-0017f200be7f;2b7b6af2-7a1f-11e2-83d0-0017f200be7f;2b7b6af3-7a1f-11e2-83d0-0017f200be7f;2b7b6af5-7a1f-11e2-83d0-0017f200be7f;2b7b6af6-7a1f-11e2-83d0-0017f200be7f;2b7b6af7-7a1f-11e2-83d0-0017f200be7f;2b7b6af8-7a1f-11e2-83d0-0017f200be7f;2b7b6af9-7a1f-11e2-83d0-0017f200be7f;2b7b6afa-7a1f-11e2-83d0-0017f200be7f;"
        },
        {
          "range" : [0, 1256448],
          "type" : 2,
          "editRate" : 44100,
          "trackRect" : [0, 0, 0, 0],
          "sampleRate" : 44100,
          "bitDepth" : 16,
          "numChannels" : 2,
          "integratedLUFS" : -26.1653785011319,
          "peakLevel" : 0.2489013671875,
          "metaData" : ""
        }
      ],
      "metadata" : {
        "timeAdded" : "20230606T123240.959225"
      }
    },
    {
      "id" : 5,
      "src" : "Rec 6-06-2023-15-44-23.trec",
      "rect" : [0, 0, 1920, 1080],
      "lastMod" : "20230606T124423",
      "loudnessNormalization" : true,
      "sourceTracks" : [
        {
          "range" : [0, 567],
          "type" : 0,
          "editRate" : 30,
          "trackRect" : [0, 0, 1920, 1080],
          "sampleRate" : 30,
          "bitDepth" : 24,
          "numChannels" : 0,
          "integratedLUFS" : 100.0,
          "peakLevel" : -1.0,
          "metaData" : "Rec 6-06-2023-15-44-23.trec;2b7b6a00-7a1f-11e2-83d0-0017f200be7f;2b7b6aef-7a1f-11e2-83d0-0017f200be7f;2b7b6af0-7a1f-11e2-83d0-0017f200be7f;2b7b6af1-7a1f-11e2-83d0-0017f200be7f;2b7b6af2-7a1f-11e2-83d0-0017f200be7f;2b7b6af3-7a1f-11e2-83d0-0017f200be7f;2b7b6af5-7a1f-11e2-83d0-0017f200be7f;2b7b6af6-7a1f-11e2-83d0-0017f200be7f;2b7b6af7-7a1f-11e2-83d0-0017f200be7f;2b7b6af8-7a1f-11e2-83d0-0017f200be7f;2b7b6af9-7a1f-11e2-83d0-0017f200be7f;2b7b6afa-7a1f-11e2-83d0-0017f200be7f;"
        },
        {
          "range" : [0, 835584],
          "type" : 2,
          "editRate" : 44100,
          "trackRect" : [0, 0, 0, 0],
          "sampleRate" : 44100,
          "bitDepth" : 16,
          "numChannels" : 2,
          "integratedLUFS" : -29.2688572808384,
          "peakLevel" : 0.15997314453125,
          "metaData" : ""
        }
      ],
      "metadata" : {
        "timeAdded" : "20230606T124423.752930"
      }
    },
    {
      "id" : 6,
      "src" : "Rec 6-06-2023-15-47-03.trec",
      "rect" : [0, 0, 1920, 1080],
      "lastMod" : "20230606T124703",
      "loudnessNormalization" : true,
      "sourceTracks" : [
        {
          "range" : [0, 1111],
          "type" : 0,
          "editRate" : 30,
          "trackRect" : [0, 0, 1920, 1080],
          "sampleRate" : "150001/5000",
          "bitDepth" : 24,
          "numChannels" : 0,
          "integratedLUFS" : 100.0,
          "peakLevel" : -1.0,
          "metaData" : "Rec 6-06-2023-15-47-03.trec;2b7b6a00-7a1f-11e2-83d0-0017f200be7f;2b7b6aef-7a1f-11e2-83d0-0017f200be7f;2b7b6af0-7a1f-11e2-83d0-0017f200be7f;2b7b6af1-7a1f-11e2-83d0-0017f200be7f;2b7b6af2-7a1f-11e2-83d0-0017f200be7f;2b7b6af3-7a1f-11e2-83d0-0017f200be7f;2b7b6af5-7a1f-11e2-83d0-0017f200be7f;2b7b6af6-7a1f-11e2-83d0-0017f200be7f;2b7b6af7-7a1f-11e2-83d0-0017f200be7f;2b7b6af8-7a1f-11e2-83d0-0017f200be7f;2b7b6af9-7a1f-11e2-83d0-0017f200be7f;2b7b6afa-7a1f-11e2-83d0-0017f200be7f;"
        },
        {
          "range" : [0, 1633280],
          "type" : 2,
          "editRate" : 44100,
          "trackRect" : [0, 0, 0, 0],
          "sampleRate" : 44100,
          "bitDepth" : 16,
          "numChannels" : 2,
          "integratedLUFS" : -26.1026958015053,
          "peakLevel" : 0.208984375,
          "metaData" : ""
        }
      ],
      "metadata" : {
        "timeAdded" : "20230606T124704.038504"
      }
    },
    {
      "id" : 7,
      "src" : "Rec 6-06-2023-15-55-31.trec",
      "rect" : [0, 0, 1920, 1080],
      "lastMod" : "20230606T125531",
      "loudnessNormalization" : true,
      "sourceTracks" : [
        {
          "range" : [0, 1273],
          "type" : 0,
          "editRate" : 30,
          "trackRect" : [0, 0, 1920, 1080],
          "sampleRate" : "150001/5000",
          "bitDepth" : 24,
          "numChannels" : 0,
          "integratedLUFS" : 100.0,
          "peakLevel" : -1.0,
          "metaData" : "Rec 6-06-2023-15-55-31.trec;2b7b6a00-7a1f-11e2-83d0-0017f200be7f;2b7b6aef-7a1f-11e2-83d0-0017f200be7f;2b7b6af0-7a1f-11e2-83d0-0017f200be7f;2b7b6af1-7a1f-11e2-83d0-0017f200be7f;2b7b6af2-7a1f-11e2-83d0-0017f200be7f;2b7b6af3-7a1f-11e2-83d0-0017f200be7f;2b7b6af5-7a1f-11e2-83d0-0017f200be7f;2b7b6af6-7a1f-11e2-83d0-0017f200be7f;2b7b6af7-7a1f-11e2-83d0-0017f200be7f;2b7b6af8-7a1f-11e2-83d0-0017f200be7f;2b7b6af9-7a1f-11e2-83d0-0017f200be7f;2b7b6afa-7a1f-11e2-83d0-0017f200be7f;"
        },
        {
          "range" : [0, 1873920],
          "type" : 2,
          "editRate" : 44100,
          "trackRect" : [0, 0, 0, 0],
          "sampleRate" : 44100,
          "bitDepth" : 16,
          "numChannels" : 2,
          "integratedLUFS" : -28.3342127811179,
          "peakLevel" : 0.19866943359375,
          "metaData" : ""
        }
      ],
      "metadata" : {
        "timeAdded" : "20230606T125532.118153"
      }
    },
    {
      "id" : 8,
      "src" : "Rec 6-06-2023-16-00-40.trec",
      "rect" : [0, 0, 1920, 1080],
      "lastMod" : "20230606T130040",
      "loudnessNormalization" : true,
      "sourceTracks" : [
        {
          "range" : [0, 927],
          "type" : 0,
          "editRate" : 30,
          "trackRect" : [0, 0, 1920, 1080],
          "sampleRate" : 30,
          "bitDepth" : 24,
          "numChannels" : 0,
          "integratedLUFS" : 100.0,
          "peakLevel" : -1.0,
          "metaData" : "Rec 6-06-2023-16-00-40.trec;2b7b6a00-7a1f-11e2-83d0-0017f200be7f;2b7b6aef-7a1f-11e2-83d0-0017f200be7f;2b7b6af0-7a1f-11e2-83d0-0017f200be7f;2b7b6af1-7a1f-11e2-83d0-0017f200be7f;2b7b6af2-7a1f-11e2-83d0-0017f200be7f;2b7b6af3-7a1f-11e2-83d0-0017f200be7f;2b7b6af5-7a1f-11e2-83d0-0017f200be7f;2b7b6af6-7a1f-11e2-83d0-0017f200be7f;2b7b6af7-7a1f-11e2-83d0-0017f200be7f;2b7b6af8-7a1f-11e2-83d0-0017f200be7f;2b7b6af9-7a1f-11e2-83d0-0017f200be7f;2b7b6afa-7a1f-11e2-83d0-0017f200be7f;"
        },
        {
          "range" : [0, 1362944],
          "type" : 2,
          "editRate" : 44100,
          "trackRect" : [0, 0, 0, 0],
          "sampleRate" : 44100,
          "bitDepth" : 16,
          "numChannels" : 2,
          "integratedLUFS" : -28.0755712558718,
          "peakLevel" : 0.230438232421875,
          "metaData" : ""
        }
      ],
      "metadata" : {
        "timeAdded" : "20230606T130040.391405"
      }
    },
    {
      "id" : 9,
      "src" : "Rec 6-06-2023-16-03-15.trec",
      "rect" : [0, 0, 1920, 1080],
      "lastMod" : "20230606T130315",
      "loudnessNormalization" : true,
      "sourceTracks" : [
        {
          "range" : [0, 426],
          "type" : 0,
          "editRate" : 30,
          "trackRect" : [0, 0, 1920, 1080],
          "sampleRate" : "149647/5000",
          "bitDepth" : 24,
          "numChannels" : 0,
          "integratedLUFS" : 100.0,
          "peakLevel" : -1.0,
          "metaData" : "Rec 6-06-2023-16-03-15.trec;2b7b6a00-7a1f-11e2-83d0-0017f200be7f;2b7b6aef-7a1f-11e2-83d0-0017f200be7f;2b7b6af0-7a1f-11e2-83d0-0017f200be7f;2b7b6af1-7a1f-11e2-83d0-0017f200be7f;2b7b6af2-7a1f-11e2-83d0-0017f200be7f;2b7b6af3-7a1f-11e2-83d0-0017f200be7f;2b7b6af5-7a1f-11e2-83d0-0017f200be7f;2b7b6af6-7a1f-11e2-83d0-0017f200be7f;2b7b6af7-7a1f-11e2-83d0-0017f200be7f;2b7b6af8-7a1f-11e2-83d0-0017f200be7f;2b7b6af9-7a1f-11e2-83d0-0017f200be7f;2b7b6afa-7a1f-11e2-83d0-0017f200be7f;"
        },
        {
          "range" : [0, 626688],
          "type" : 2,
          "editRate" : 44100,
          "trackRect" : [0, 0, 0, 0],
          "sampleRate" : 44100,
          "bitDepth" : 16,
          "numChannels" : 2,
          "integratedLUFS" : -26.650912208006,
          "peakLevel" : 0.215789794921875,
          "metaData" : ""
        }
      ],
      "metadata" : {
        "timeAdded" : "20230606T130315.973043"
      }
    },
    {
      "id" : 10,
      "src" : "video5764809536821005908.mp4",
      "rect" : [0, 0, 1280, 720],
      "lastMod" : "20230606T130901",
      "loudnessNormalization" : true,
      "sourceTracks" : [
        {
          "range" : [0, 309248],
          "type" : 2,
          "editRate" : 48000,
          "trackRect" : [0, 0, 0, 0],
          "sampleRate" : 48000,
          "bitDepth" : 16,
          "numChannels" : 2,
          "integratedLUFS" : -32.9338856471161,
          "peakLevel" : 0.067427359521389,
          "metaData" : ""
        },
        {
          "range" : [0, 582582],
          "type" : 0,
          "editRate" : 90000,
          "trackRect" : [0, 0, 1280, 720],
          "sampleRate" : "594777/10000",
          "bitDepth" : 24,
          "numChannels" : 0,
          "integratedLUFS" : 100.0,
          "peakLevel" : -1.0,
          "metaData" : ""
        }
      ],
      "metadata" : {
        "timeAdded" : "20230606T130910.040843"
      }
    },
    {
      "id" : 11,
      "src" : "Rec 6-06-2023-16-15-40.trec",
      "rect" : [0, 0, 1920, 1080],
      "lastMod" : "20230606T131540",
      "loudnessNormalization" : true,
      "sourceTracks" : [
        {
          "range" : [0, 273],
          "type" : 0,
          "editRate" : 30,
          "trackRect" : [0, 0, 1920, 1080],
          "sampleRate" : 30,
          "bitDepth" : 24,
          "numChannels" : 0,
          "integratedLUFS" : 100.0,
          "peakLevel" : -1.0,
          "metaData" : "Rec 6-06-2023-16-15-40.trec;2b7b6a00-7a1f-11e2-83d0-0017f200be7f;2b7b6aef-7a1f-11e2-83d0-0017f200be7f;2b7b6af0-7a1f-11e2-83d0-0017f200be7f;2b7b6af1-7a1f-11e2-83d0-0017f200be7f;2b7b6af2-7a1f-11e2-83d0-0017f200be7f;2b7b6af3-7a1f-11e2-83d0-0017f200be7f;2b7b6af5-7a1f-11e2-83d0-0017f200be7f;2b7b6af6-7a1f-11e2-83d0-0017f200be7f;2b7b6af7-7a1f-11e2-83d0-0017f200be7f;2b7b6af8-7a1f-11e2-83d0-0017f200be7f;2b7b6af9-7a1f-11e2-83d0-0017f200be7f;2b7b6afa-7a1f-11e2-83d0-0017f200be7f;"
        },
        {
          "range" : [0, 402432],
          "type" : 2,
          "editRate" : 44100,
          "trackRect" : [0, 0, 0, 0],
          "sampleRate" : 44100,
          "bitDepth" : 16,
          "numChannels" : 2,
          "integratedLUFS" : -28.4343955451602,
          "peakLevel" : 0.24267578125,
          "metaData" : ""
        }
      ],
      "metadata" : {
        "timeAdded" : "20230606T131540.887694"
      }
    },
    {
      "id" : 12,
      "src" : "Rec 6-06-2023-16-16-39.trec",
      "rect" : [0, 0, 1920, 1080],
      "lastMod" : "20230606T131639",
      "loudnessNormalization" : true,
      "sourceTracks" : [
        {
          "range" : [0, 1449],
          "type" : 0,
          "editRate" : 30,
          "trackRect" : [0, 0, 1920, 1080],
          "sampleRate" : 30,
          "bitDepth" : 24,
          "numChannels" : 0,
          "integratedLUFS" : 100.0,
          "peakLevel" : -1.0,
          "metaData" : "Rec 6-06-2023-16-16-39.trec;2b7b6a00-7a1f-11e2-83d0-0017f200be7f;2b7b6aef-7a1f-11e2-83d0-0017f200be7f;2b7b6af0-7a1f-11e2-83d0-0017f200be7f;2b7b6af1-7a1f-11e2-83d0-0017f200be7f;2b7b6af2-7a1f-11e2-83d0-0017f200be7f;2b7b6af3-7a1f-11e2-83d0-0017f200be7f;2b7b6af5-7a1f-11e2-83d0-0017f200be7f;2b7b6af6-7a1f-11e2-83d0-0017f200be7f;2b7b6af7-7a1f-11e2-83d0-0017f200be7f;2b7b6af8-7a1f-11e2-83d0-0017f200be7f;2b7b6af9-7a1f-11e2-83d0-0017f200be7f;2b7b6afa-7a1f-11e2-83d0-0017f200be7f;"
        },
        {
          "range" : [0, 2129920],
          "type" : 2,
          "editRate" : 44100,
          "trackRect" : [0, 0, 0, 0],
          "sampleRate" : 44100,
          "bitDepth" : 16,
          "numChannels" : 2,
          "integratedLUFS" : -27.8512480968011,
          "peakLevel" : 0.2257080078125,
          "metaData" : ""
        }
      ],
      "metadata" : {
        "timeAdded" : "20230606T131639.894837"
      }
    }
  ],
  "timeline" : {
    "id" : 13,
    "sceneTrack" : {
      "scenes" : [
        {
          "csml" : {
            "tracks" : [
              {
                "trackIndex" : 0,
                "medias" : [
                  {
                    "id" : 14,
                    "_type" : "Callout",
                    "def" : {
                      "kind" : "remix",
                      "shape" : "text",
                      "style" : "basic",
                      "enable-ligatures" : 1.0,
                      "height" : 399.350649350649,
                      "line-spacing" : 0.0,
                      "width" : 872.727272727273,
                      "word-wrap" : 1.0,
                      "horizontal-alignment" : "center",
                      "resize-behavior" : "resizeText",
                      "text" : "Nesnelerin İnterneti (IoT) Tabanlı Elektronik Yoklama Sistemi Geliştirilmesi\r\rAziz Can HAMAŞOĞLU\r200260094",
                      "vertical-alignment" : "center",
                      "font" : {
                        "color-blue" : 1.0,
                        "color-green" : 1.0,
                        "color-red" : 1.0,
                        "size" : 96.0,
                        "tracking" : 0.0,
                        "name" : "Montserrat",
                        "weight" : "Regular"
                      },
                      "textAttributes" : {
                        "type" : "textAttributeList",
                        "keyframes" : [
                          {
                            "endTime" : 0,
                            "time" : 0,
                            "value" : [{"name":"fontName","rangeEnd":111,"rangeStart":0,"value":"Montserrat","valueType":"string"},{"name":"fontSize","rangeEnd":111,"rangeStart":0,"value":96,"valueType":"double"},{"name":"kerning","rangeEnd":111,"rangeStart":0,"value":0,"valueType":"double"},{"name":"underline","rangeEnd":111,"rangeStart":0,"value":0,"valueType":"int"},{"name":"fontItalic","rangeEnd":111,"rangeStart":0,"value":0,"valueType":"int"},{"name":"fontWeight","rangeEnd":111,"rangeStart":0,"value":400,"valueType":"int"},{"name":"fgColor","rangeEnd":111,"rangeStart":0,"value":"(255,255,255,255)","valueType":"color"},{"name":"strikethrough","rangeEnd":111,"rangeStart":0,"value":0,"valueType":"int"}],
                            "duration" : 0
                          }
                        ]
                      }
                    },
                    "attributes" : {
                      "ident" : "",
                      "autoRotateText" : true
                    },
                    "parameters" : {
                      "sourceCrop0" : 0.0,
                      "sourceCrop1" : 0.0,
                      "sourceCrop2" : 0.0,
                      "sourceCrop3" : 0.0,
                      "geometryCrop0" : 0.0,
                      "geometryCrop1" : 0.0,
                      "geometryCrop2" : 0.0,
                      "geometryCrop3" : 0.0
                    },
                    "effects" : [

                    ],
                    "start" : 0,
                    "duration" : 2399040000,
                    "mediaStart" : 0,
                    "mediaDuration" : 2399040000,
                    "scalar" : 1,
                    "metadata" : {
                      "clipSpeedAttribute" : false,
                      "default-HAlign" : "center",
                      "default-LineSpace" : 0.0,
                      "default-VAlign" : "center",
                      "default-anchor0" : 0.0,
                      "default-anchor1" : 0.0,
                      "default-anchor2" : 0.0,
                      "default-height" : 250.0,
                      "default-rotation0" : 0.0,
                      "default-rotation1" : 0.0,
                      "default-rotation2" : 0.0,
                      "default-scale0" : 1.0,
                      "default-scale1" : 1.0,
                      "default-scale2" : 1.0,
                      "default-shear0" : 0.0,
                      "default-shear1" : 0.0,
                      "default-shear2" : 0.0,
                      "default-text-attributes" : null,
                      "default-translation0" : 0.0,
                      "default-translation1" : 0.0,
                      "default-translation2" : 0.0,
                      "default-width" : 400.0
                    },
                    "animationTracks" : {

                    }
                  },
                  {
                    "id" : 15,
                    "_type" : "Callout",
                    "def" : {
                      "kind" : "remix",
                      "shape" : "text",
                      "style" : "basic",
                      "enable-ligatures" : {
                        "type" : "double",
                        "defaultValue" : 1.0,
                        "interp" : "linr"
                      },
                      "height" : {
                        "type" : "double",
                        "defaultValue" : 191.558441558442,
                        "interp" : "linr"
                      },
                      "line-spacing" : {
                        "type" : "double",
                        "defaultValue" : 0.0,
                        "interp" : "linr"
                      },
                      "width" : {
                        "type" : "double",
                        "defaultValue" : 587.012987012987,
                        "interp" : "linr"
                      },
                      "word-wrap" : {
                        "type" : "double",
                        "defaultValue" : 1.0,
                        "interp" : "linr"
                      },
                      "horizontal-alignment" : "center",
                      "resize-behavior" : "resizeText",
                      "text" : "Cihazın Tanıtılması",
                      "vertical-alignment" : "center",
                      "font" : {
                        "color-blue" : {
                          "type" : "double",
                          "defaultValue" : 1.0,
                          "interp" : "linr"
                        },
                        "color-green" : {
                          "type" : "double",
                          "defaultValue" : 1.0,
                          "interp" : "linr"
                        },
                        "color-red" : {
                          "type" : "double",
                          "defaultValue" : 1.0,
                          "interp" : "linr"
                        },
                        "size" : {
                          "type" : "double",
                          "defaultValue" : 96.0,
                          "interp" : "linr"
                        },
                        "tracking" : {
                          "type" : "double",
                          "defaultValue" : 0.0,
                          "interp" : "linr"
                        },
                        "name" : "Montserrat",
                        "weight" : "Regular"
                      },
                      "textAttributes" : {
                        "type" : "textAttributeList",
                        "keyframes" : [
                          {
                            "endTime" : 0,
                            "time" : 0,
                            "value" : [{"name":"fontWeight","rangeEnd":23,"rangeStart":0,"value":400,"valueType":"int"},{"name":"underline","rangeEnd":23,"rangeStart":0,"value":0,"valueType":"int"},{"name":"strikethrough","rangeEnd":23,"rangeStart":0,"value":0,"valueType":"int"},{"name":"kerning","rangeEnd":23,"rangeStart":0,"value":0,"valueType":"double"},{"name":"fgColor","rangeEnd":23,"rangeStart":0,"value":"(255,255,255,255)","valueType":"color"},{"name":"fontSize","rangeEnd":23,"rangeStart":0,"value":96,"valueType":"double"},{"name":"fontItalic","rangeEnd":23,"rangeStart":0,"value":0,"valueType":"int"},{"name":"fontName","rangeEnd":23,"rangeStart":0,"value":"Montserrat","valueType":"string"}],
                            "duration" : 0
                          }
                        ]
                      }
                    },
                    "attributes" : {
                      "ident" : "",
                      "autoRotateText" : true
                    },
                    "parameters" : {
                      "sourceCrop0" : {
                        "type" : "double",
                        "defaultValue" : 0.0,
                        "interp" : "eioe"
                      },
                      "sourceCrop1" : {
                        "type" : "double",
                        "defaultValue" : 0.0,
                        "interp" : "eioe"
                      },
                      "sourceCrop2" : {
                        "type" : "double",
                        "defaultValue" : 0.0,
                        "interp" : "eioe"
                      },
                      "sourceCrop3" : {
                        "type" : "double",
                        "defaultValue" : 0.0,
                        "interp" : "eioe"
                      },
                      "geometryCrop0" : {
                        "type" : "double",
                        "defaultValue" : 0.0,
                        "interp" : "eioe"
                      },
                      "geometryCrop1" : {
                        "type" : "double",
                        "defaultValue" : 0.0,
                        "interp" : "eioe"
                      },
                      "geometryCrop2" : {
                        "type" : "double",
                        "defaultValue" : 0.0,
                        "interp" : "eioe"
                      },
                      "geometryCrop3" : {
                        "type" : "double",
                        "defaultValue" : 0.0,
                        "interp" : "eioe"
                      }
                    },
                    "effects" : [

                    ],
                    "start" : 2399040000,
                    "duration" : 1458240000,
                    "mediaStart" : 0,
                    "mediaDuration" : 1458240000,
                    "scalar" : 1,
                    "metadata" : {
                      "clipSpeedAttribute" : false,
                      "default-HAlign" : "center",
                      "default-LineSpace" : 0.0,
                      "default-VAlign" : "center",
                      "default-anchor0" : 0.0,
                      "default-anchor1" : 0.0,
                      "default-anchor2" : 0.0,
                      "default-height" : 250.0,
                      "default-rotation0" : 0.0,
                      "default-rotation1" : 0.0,
                      "default-rotation2" : 0.0,
                      "default-scale0" : 1.0,
                      "default-scale1" : 1.0,
                      "default-scale2" : 1.0,
                      "default-shear0" : 0.0,
                      "default-shear1" : 0.0,
                      "default-shear2" : 0.0,
                      "default-text-attributes" : null,
                      "default-translation0" : 0.0,
                      "default-translation1" : 0.0,
                      "default-translation2" : 0.0,
                      "default-width" : 400.0
                    },
                    "animationTracks" : {

                    }
                  },
                  {
                    "id" : 16,
                    "_type" : "UnifiedMedia",
                    "video" : 
                        {
                          "id" : 17,
                          "_type" : "VMFile",
                          "src" : 1,
                          "trackNumber" : 1,
                          "attributes" : {
                            "ident" : "video6050788113159033184"
                          },
                          "parameters" : {
                            "sourceCrop0" : {
                              "type" : "double",
                              "defaultValue" : 0.0,
                              "interp" : "eioe"
                            },
                            "sourceCrop1" : {
                              "type" : "double",
                              "defaultValue" : 0.0,
                              "interp" : "eioe"
                            },
                            "sourceCrop2" : {
                              "type" : "double",
                              "defaultValue" : 0.0,
                              "interp" : "eioe"
                            },
                            "sourceCrop3" : {
                              "type" : "double",
                              "defaultValue" : 0.0,
                              "interp" : "eioe"
                            },
                            "geometryCrop0" : {
                              "type" : "double",
                              "defaultValue" : 0.0,
                              "interp" : "eioe"
                            },
                            "geometryCrop1" : {
                              "type" : "double",
                              "defaultValue" : 0.0,
                              "interp" : "eioe"
                            },
                            "geometryCrop2" : {
                              "type" : "double",
                              "defaultValue" : 0.0,
                              "interp" : "eioe"
                            },
                            "geometryCrop3" : {
                              "type" : "double",
                              "defaultValue" : 0.0,
                              "interp" : "eioe"
                            }
                          },
                          "effects" : [

                          ],
                          "start" : 3857280000,
                          "duration" : 2046240000,
                          "mediaStart" : 0,
                          "mediaDuration" : 2046240000,
                          "scalar" : 1,
                          "animationTracks" : {

                          }
                        },
                    "audio" : 
                        {
                          "id" : 18,
                          "_type" : "AMFile",
                          "src" : 1,
                          "trackNumber" : 0,
                          "attributes" : {
                            "ident" : "",
                            "gain" : 0.256946673979082,
                            "mixToMono" : false,
                            "loudnessNormalization" : true,
                            "sourceFileOffset" : 0
                          },
                            "channelNumber" : "0,1",
                          "effects" : [
                              {
                                "effectName" : "NoiseReduction",
                                "bypassed" : false,
                                "category" : "categoryAudioEffects",
                                "parameters" : {
                                  "denoiserAmount" : 20.0,
                                  "denoiserThreshold" : -20.0,
                                  "noiseProfile" : "",
                                  "noiseTrainingType" : "default"
                                },
                                "metadata" : {
                                  "default-NoiseReduction_denoiserThreshold" : 0.0,
                                  "effectIndex" : "0",
                                  "presetName" : "Noise Removal"
                                }
                              }
                          ],
                          "start" : 3857280000,
                          "duration" : 2046240000,
                          "mediaStart" : 0,
                          "mediaDuration" : 2046240000,
                          "scalar" : 1,
                          "animationTracks" : {

                          }
                        }
,
                    "start" : 3857280000,
                    "duration" : 2046240000,
                    "mediaStart" : 0,
                    "mediaDuration" : 43723680000,
                    "scalar" : 1,
                    "metadata" : {
                      "clipSpeedAttribute" : false,
                      "default-height" : 720.0,
                      "default-width" : 1280.0
                    }
                  },
                  {
                    "id" : 19,
                    "_type" : "UnifiedMedia",
                    "video" : 
                        {
                          "id" : 20,
                          "_type" : "VMFile",
                          "src" : 1,
                          "trackNumber" : 1,
                          "attributes" : {
                            "ident" : "video6050788113159033184"
                          },
                          "parameters" : {
                            "sourceCrop0" : {
                              "type" : "double",
                              "defaultValue" : 0.0,
                              "interp" : "eioe"
                            },
                            "sourceCrop1" : {
                              "type" : "double",
                              "defaultValue" : 0.0,
                              "interp" : "eioe"
                            },
                            "sourceCrop2" : {
                              "type" : "double",
                              "defaultValue" : 0.0,
                              "interp" : "eioe"
                            },
                            "sourceCrop3" : {
                              "type" : "double",
                              "defaultValue" : 0.0,
                              "interp" : "eioe"
                            },
                            "geometryCrop0" : {
                              "type" : "double",
                              "defaultValue" : 0.0,
                              "interp" : "eioe"
                            },
                            "geometryCrop1" : {
                              "type" : "double",
                              "defaultValue" : 0.0,
                              "interp" : "eioe"
                            },
                            "geometryCrop2" : {
                              "type" : "double",
                              "defaultValue" : 0.0,
                              "interp" : "eioe"
                            },
                            "geometryCrop3" : {
                              "type" : "double",
                              "defaultValue" : 0.0,
                              "interp" : "eioe"
                            }
                          },
                          "effects" : [

                          ],
                          "start" : 5903520000,
                          "duration" : 2140320000,
                          "mediaStart" : 2399040000,
                          "mediaDuration" : 2140320000,
                          "scalar" : 1,
                          "animationTracks" : {

                          }
                        },
                    "audio" : 
                        {
                          "id" : 21,
                          "_type" : "AMFile",
                          "src" : 1,
                          "trackNumber" : 0,
                          "attributes" : {
                            "ident" : "",
                            "gain" : 0.256946673979082,
                            "mixToMono" : false,
                            "loudnessNormalization" : true,
                            "sourceFileOffset" : 0
                          },
                            "channelNumber" : "0,1",
                          "effects" : [
                              {
                                "effectName" : "NoiseReduction",
                                "bypassed" : false,
                                "category" : "categoryAudioEffects",
                                "parameters" : {
                                  "denoiserAmount" : 20.0,
                                  "denoiserThreshold" : -20.0,
                                  "noiseProfile" : "",
                                  "noiseTrainingType" : "default"
                                },
                                "metadata" : {
                                  "default-NoiseReduction_denoiserThreshold" : 0.0,
                                  "effectIndex" : "0",
                                  "presetName" : "Noise Removal"
                                }
                              }
                          ],
                          "start" : 5903520000,
                          "duration" : 2140320000,
                          "mediaStart" : 2399040000,
                          "mediaDuration" : 2140320000,
                          "scalar" : 1,
                          "animationTracks" : {

                          }
                        }
,
                    "start" : 5903520000,
                    "duration" : 2140320000,
                    "mediaStart" : 0,
                    "mediaDuration" : 43723680000,
                    "scalar" : 1,
                    "metadata" : {
                      "clipSpeedAttribute" : false,
                      "default-height" : 720.0,
                      "default-width" : 1280.0
                    }
                  },
                  {
                    "id" : 22,
                    "_type" : "UnifiedMedia",
                    "video" : 
                        {
                          "id" : 23,
                          "_type" : "VMFile",
                          "src" : 1,
                          "trackNumber" : 1,
                          "attributes" : {
                            "ident" : "video6050788113159033184"
                          },
                          "parameters" : {
                            "sourceCrop0" : {
                              "type" : "double",
                              "defaultValue" : 0.0,
                              "interp" : "eioe"
                            },
                            "sourceCrop1" : {
                              "type" : "double",
                              "defaultValue" : 0.0,
                              "interp" : "eioe"
                            },
                            "sourceCrop2" : {
                              "type" : "double",
                              "defaultValue" : 0.0,
                              "interp" : "eioe"
                            },
                            "sourceCrop3" : {
                              "type" : "double",
                              "defaultValue" : 0.0,
                              "interp" : "eioe"
                            },
                            "geometryCrop0" : {
                              "type" : "double",
                              "defaultValue" : 0.0,
                              "interp" : "eioe"
                            },
                            "geometryCrop1" : {
                              "type" : "double",
                              "defaultValue" : 0.0,
                              "interp" : "eioe"
                            },
                            "geometryCrop2" : {
                              "type" : "double",
                              "defaultValue" : 0.0,
                              "interp" : "eioe"
                            },
                            "geometryCrop3" : {
                              "type" : "double",
                              "defaultValue" : 0.0,
                              "interp" : "eioe"
                            }
                          },
                          "effects" : [

                          ],
                          "start" : 8043840000,
                          "duration" : 2610720000,
                          "mediaStart" : 4962720000,
                          "mediaDuration" : 2610720000,
                          "scalar" : 1,
                          "animationTracks" : {

                          }
                        },
                    "audio" : 
                        {
                          "id" : 24,
                          "_type" : "AMFile",
                          "src" : 1,
                          "trackNumber" : 0,
                          "attributes" : {
                            "ident" : "",
                            "gain" : 0.256946673979082,
                            "mixToMono" : false,
                            "loudnessNormalization" : true,
                            "sourceFileOffset" : 0
                          },
                            "channelNumber" : "0,1",
                          "effects" : [
                              {
                                "effectName" : "NoiseReduction",
                                "bypassed" : false,
                                "category" : "categoryAudioEffects",
                                "parameters" : {
                                  "denoiserAmount" : 20.0,
                                  "denoiserThreshold" : -20.0,
                                  "noiseProfile" : "",
                                  "noiseTrainingType" : "default"
                                },
                                "metadata" : {
                                  "default-NoiseReduction_denoiserThreshold" : 0.0,
                                  "effectIndex" : "0",
                                  "presetName" : "Noise Removal"
                                }
                              }
                          ],
                          "start" : 8043840000,
                          "duration" : 2610720000,
                          "mediaStart" : 4962720000,
                          "mediaDuration" : 2610720000,
                          "scalar" : 1,
                          "animationTracks" : {

                          }
                        }
,
                    "start" : 8043840000,
                    "duration" : 2610720000,
                    "mediaStart" : 0,
                    "mediaDuration" : 43723680000,
                    "scalar" : 1,
                    "metadata" : {
                      "clipSpeedAttribute" : false,
                      "default-height" : 720.0,
                      "default-width" : 1280.0
                    }
                  },
                  {
                    "id" : 25,
                    "_type" : "UnifiedMedia",
                    "video" : 
                        {
                          "id" : 26,
                          "_type" : "VMFile",
                          "src" : 1,
                          "trackNumber" : 1,
                          "attributes" : {
                            "ident" : "video6050788113159033184"
                          },
                          "parameters" : {
                            "sourceCrop0" : {
                              "type" : "double",
                              "defaultValue" : 0.0,
                              "interp" : "eioe"
                            },
                            "sourceCrop1" : {
                              "type" : "double",
                              "defaultValue" : 0.0,
                              "interp" : "eioe"
                            },
                            "sourceCrop2" : {
                              "type" : "double",
                              "defaultValue" : 0.0,
                              "interp" : "eioe"
                            },
                            "sourceCrop3" : {
                              "type" : "double",
                              "defaultValue" : 0.0,
                              "interp" : "eioe"
                            },
                            "geometryCrop0" : {
                              "type" : "double",
                              "defaultValue" : 0.0,
                              "interp" : "eioe"
                            },
                            "geometryCrop1" : {
                              "type" : "double",
                              "defaultValue" : 0.0,
                              "interp" : "eioe"
                            },
                            "geometryCrop2" : {
                              "type" : "double",
                              "defaultValue" : 0.0,
                              "interp" : "eioe"
                            },
                            "geometryCrop3" : {
                              "type" : "double",
                              "defaultValue" : 0.0,
                              "interp" : "eioe"
                            }
                          },
                          "effects" : [

                          ],
                          "start" : 10654560000,
                          "duration" : 3504480000,
                          "mediaStart" : 7996800000,
                          "mediaDuration" : 3504480000,
                          "scalar" : 1,
                          "animationTracks" : {

                          }
                        },
                    "audio" : 
                        {
                          "id" : 27,
                          "_type" : "AMFile",
                          "src" : 1,
                          "trackNumber" : 0,
                          "attributes" : {
                            "ident" : "",
                            "gain" : 0.256946673979082,
                            "mixToMono" : false,
                            "loudnessNormalization" : true,
                            "sourceFileOffset" : 0
                          },
                            "channelNumber" : "0,1",
                          "effects" : [
                              {
                                "effectName" : "NoiseReduction",
                                "bypassed" : false,
                                "category" : "categoryAudioEffects",
                                "parameters" : {
                                  "denoiserAmount" : 20.0,
                                  "denoiserThreshold" : -20.0,
                                  "noiseProfile" : "",
                                  "noiseTrainingType" : "default"
                                },
                                "metadata" : {
                                  "default-NoiseReduction_denoiserThreshold" : 0.0,
                                  "effectIndex" : "0",
                                  "presetName" : "Noise Removal"
                                }
                              }
                          ],
                          "start" : 10654560000,
                          "duration" : 3504480000,
                          "mediaStart" : 7996800000,
                          "mediaDuration" : 3504480000,
                          "scalar" : 1,
                          "animationTracks" : {

                          }
                        }
,
                    "start" : 10654560000,
                    "duration" : 3504480000,
                    "mediaStart" : 0,
                    "mediaDuration" : 43723680000,
                    "scalar" : 1,
                    "metadata" : {
                      "clipSpeedAttribute" : false,
                      "default-height" : 720.0,
                      "default-width" : 1280.0
                    }
                  },
                  {
                    "id" : 28,
                    "_type" : "UnifiedMedia",
                    "video" : 
                        {
                          "id" : 29,
                          "_type" : "VMFile",
                          "src" : 1,
                          "trackNumber" : 1,
                          "attributes" : {
                            "ident" : "video6050788113159033184"
                          },
                          "parameters" : {
                            "sourceCrop0" : {
                              "type" : "double",
                              "defaultValue" : 0.0,
                              "interp" : "eioe"
                            },
                            "sourceCrop1" : {
                              "type" : "double",
                              "defaultValue" : 0.0,
                              "interp" : "eioe"
                            },
                            "sourceCrop2" : {
                              "type" : "double",
                              "defaultValue" : 0.0,
                              "interp" : "eioe"
                            },
                            "sourceCrop3" : {
                              "type" : "double",
                              "defaultValue" : 0.0,
                              "interp" : "eioe"
                            },
                            "geometryCrop0" : {
                              "type" : "double",
                              "defaultValue" : 0.0,
                              "interp" : "eioe"
                            },
                            "geometryCrop1" : {
                              "type" : "double",
                              "defaultValue" : 0.0,
                              "interp" : "eioe"
                            },
                            "geometryCrop2" : {
                              "type" : "double",
                              "defaultValue" : 0.0,
                              "interp" : "eioe"
                            },
                            "geometryCrop3" : {
                              "type" : "double",
                              "defaultValue" : 0.0,
                              "interp" : "eioe"
                            }
                          },
                          "effects" : [

                          ],
                          "start" : 14159040000,
                          "duration" : 4539360000,
                          "mediaStart" : 11807040000,
                          "mediaDuration" : 4539360000,
                          "scalar" : 1,
                          "animationTracks" : {

                          }
                        },
                    "audio" : 
                        {
                          "id" : 30,
                          "_type" : "AMFile",
                          "src" : 1,
                          "trackNumber" : 0,
                          "attributes" : {
                            "ident" : "",
                            "gain" : 0.256946673979082,
                            "mixToMono" : false,
                            "loudnessNormalization" : true,
                            "sourceFileOffset" : 0
                          },
                            "channelNumber" : "0,1",
                          "effects" : [
                              {
                                "effectName" : "NoiseReduction",
                                "bypassed" : false,
                                "category" : "categoryAudioEffects",
                                "parameters" : {
                                  "denoiserAmount" : 20.0,
                                  "denoiserThreshold" : -20.0,
                                  "noiseProfile" : "",
                                  "noiseTrainingType" : "default"
                                },
                                "metadata" : {
                                  "default-NoiseReduction_denoiserThreshold" : 0.0,
                                  "effectIndex" : "0",
                                  "presetName" : "Noise Removal"
                                }
                              }
                          ],
                          "start" : 14159040000,
                          "duration" : 4539360000,
                          "mediaStart" : 11807040000,
                          "mediaDuration" : 4539360000,
                          "scalar" : 1,
                          "animationTracks" : {

                          }
                        }
,
                    "start" : 14159040000,
                    "duration" : 4539360000,
                    "mediaStart" : 0,
                    "mediaDuration" : 43723680000,
                    "scalar" : 1,
                    "metadata" : {
                      "clipSpeedAttribute" : false,
                      "default-height" : 720.0,
                      "default-width" : 1280.0
                    }
                  },
                  {
                    "id" : 31,
                    "_type" : "UnifiedMedia",
                    "video" : 
                        {
                          "id" : 32,
                          "_type" : "VMFile",
                          "src" : 1,
                          "trackNumber" : 1,
                          "attributes" : {
                            "ident" : "video6050788113159033184"
                          },
                          "parameters" : {
                            "sourceCrop0" : {
                              "type" : "double",
                              "defaultValue" : 0.0,
                              "interp" : "eioe"
                            },
                            "sourceCrop1" : {
                              "type" : "double",
                              "defaultValue" : 0.0,
                              "interp" : "eioe"
                            },
                            "sourceCrop2" : {
                              "type" : "double",
                              "defaultValue" : 0.0,
                              "interp" : "eioe"
                            },
                            "sourceCrop3" : {
                              "type" : "double",
                              "defaultValue" : 0.0,
                              "interp" : "eioe"
                            },
                            "geometryCrop0" : {
                              "type" : "double",
                              "defaultValue" : 0.0,
                              "interp" : "eioe"
                            },
                            "geometryCrop1" : {
                              "type" : "double",
                              "defaultValue" : 0.0,
                              "interp" : "eioe"
                            },
                            "geometryCrop2" : {
                              "type" : "double",
                              "defaultValue" : 0.0,
                              "interp" : "eioe"
                            },
                            "geometryCrop3" : {
                              "type" : "double",
                              "defaultValue" : 0.0,
                              "interp" : "eioe"
                            }
                          },
                          "effects" : [

                          ],
                          "start" : 18698400000,
                          "duration" : 2963520000,
                          "mediaStart" : 16652160000,
                          "mediaDuration" : 2963520000,
                          "scalar" : 1,
                          "animationTracks" : {

                          }
                        },
                    "audio" : 
                        {
                          "id" : 33,
                          "_type" : "AMFile",
                          "src" : 1,
                          "trackNumber" : 0,
                          "attributes" : {
                            "ident" : "",
                            "gain" : 0.256946673979082,
                            "mixToMono" : false,
                            "loudnessNormalization" : true,
                            "sourceFileOffset" : 0
                          },
                            "channelNumber" : "0,1",
                          "effects" : [
                              {
                                "effectName" : "NoiseReduction",
                                "bypassed" : false,
                                "category" : "categoryAudioEffects",
                                "parameters" : {
                                  "denoiserAmount" : 20.0,
                                  "denoiserThreshold" : -20.0,
                                  "noiseProfile" : "",
                                  "noiseTrainingType" : "default"
                                },
                                "metadata" : {
                                  "default-NoiseReduction_denoiserThreshold" : 0.0,
                                  "effectIndex" : "0",
                                  "presetName" : "Noise Removal"
                                }
                              }
                          ],
                          "start" : 18698400000,
                          "duration" : 2963520000,
                          "mediaStart" : 16652160000,
                          "mediaDuration" : 2963520000,
                          "scalar" : 1,
                          "animationTracks" : {

                          }
                        }
,
                    "start" : 18698400000,
                    "duration" : 2963520000,
                    "mediaStart" : 0,
                    "mediaDuration" : 43723680000,
                    "scalar" : 1,
                    "metadata" : {
                      "clipSpeedAttribute" : false,
                      "default-height" : 720.0,
                      "default-width" : 1280.0
                    }
                  },
                  {
                    "id" : 34,
                    "_type" : "UnifiedMedia",
                    "video" : 
                        {
                          "id" : 35,
                          "_type" : "VMFile",
                          "src" : 1,
                          "trackNumber" : 1,
                          "attributes" : {
                            "ident" : "video6050788113159033184"
                          },
                          "parameters" : {
                            "sourceCrop0" : {
                              "type" : "double",
                              "defaultValue" : 0.0,
                              "interp" : "eioe"
                            },
                            "sourceCrop1" : {
                              "type" : "double",
                              "defaultValue" : 0.0,
                              "interp" : "eioe"
                            },
                            "sourceCrop2" : {
                              "type" : "double",
                              "defaultValue" : 0.0,
                              "interp" : "eioe"
                            },
                            "sourceCrop3" : {
                              "type" : "double",
                              "defaultValue" : 0.0,
                              "interp" : "eioe"
                            },
                            "geometryCrop0" : {
                              "type" : "double",
                              "defaultValue" : 0.0,
                              "interp" : "eioe"
                            },
                            "geometryCrop1" : {
                              "type" : "double",
                              "defaultValue" : 0.0,
                              "interp" : "eioe"
                            },
                            "geometryCrop2" : {
                              "type" : "double",
                              "defaultValue" : 0.0,
                              "interp" : "eioe"
                            },
                            "geometryCrop3" : {
                              "type" : "double",
                              "defaultValue" : 0.0,
                              "interp" : "eioe"
                            }
                          },
                          "effects" : [

                          ],
                          "start" : 21661920000,
                          "duration" : 1834560000,
                          "mediaStart" : 20086080000,
                          "mediaDuration" : 1834560000,
                          "scalar" : 1,
                          "animationTracks" : {

                          }
                        },
                    "audio" : 
                        {
                          "id" : 36,
                          "_type" : "AMFile",
                          "src" : 1,
                          "trackNumber" : 0,
                          "attributes" : {
                            "ident" : "",
                            "gain" : 0.256946673979082,
                            "mixToMono" : false,
                            "loudnessNormalization" : true,
                            "sourceFileOffset" : 0
                          },
                            "channelNumber" : "0,1",
                          "effects" : [
                              {
                                "effectName" : "NoiseReduction",
                                "bypassed" : false,
                                "category" : "categoryAudioEffects",
                                "parameters" : {
                                  "denoiserAmount" : 20.0,
                                  "denoiserThreshold" : -20.0,
                                  "noiseProfile" : "",
                                  "noiseTrainingType" : "default"
                                },
                                "metadata" : {
                                  "default-NoiseReduction_denoiserThreshold" : 0.0,
                                  "effectIndex" : "0",
                                  "presetName" : "Noise Removal"
                                }
                              }
                          ],
                          "start" : 21661920000,
                          "duration" : 1834560000,
                          "mediaStart" : 20086080000,
                          "mediaDuration" : 1834560000,
                          "scalar" : 1,
                          "animationTracks" : {

                          }
                        }
,
                    "start" : 21661920000,
                    "duration" : 1834560000,
                    "mediaStart" : 0,
                    "mediaDuration" : 43723680000,
                    "scalar" : 1,
                    "metadata" : {
                      "clipSpeedAttribute" : false,
                      "default-height" : 720.0,
                      "default-width" : 1280.0
                    }
                  },
                  {
                    "id" : 37,
                    "_type" : "UnifiedMedia",
                    "video" : 
                        {
                          "id" : 38,
                          "_type" : "VMFile",
                          "src" : 1,
                          "trackNumber" : 1,
                          "attributes" : {
                            "ident" : "video6050788113159033184"
                          },
                          "parameters" : {
                            "sourceCrop0" : {
                              "type" : "double",
                              "defaultValue" : 0.0,
                              "interp" : "eioe"
                            },
                            "sourceCrop1" : {
                              "type" : "double",
                              "defaultValue" : 0.0,
                              "interp" : "eioe"
                            },
                            "sourceCrop2" : {
                              "type" : "double",
                              "defaultValue" : 0.0,
                              "interp" : "eioe"
                            },
                            "sourceCrop3" : {
                              "type" : "double",
                              "defaultValue" : 0.0,
                              "interp" : "eioe"
                            },
                            "geometryCrop0" : {
                              "type" : "double",
                              "defaultValue" : 0.0,
                              "interp" : "eioe"
                            },
                            "geometryCrop1" : {
                              "type" : "double",
                              "defaultValue" : 0.0,
                              "interp" : "eioe"
                            },
                            "geometryCrop2" : {
                              "type" : "double",
                              "defaultValue" : 0.0,
                              "interp" : "eioe"
                            },
                            "geometryCrop3" : {
                              "type" : "double",
                              "defaultValue" : 0.0,
                              "interp" : "eioe"
                            }
                          },
                          "effects" : [

                          ],
                          "start" : 23496480000,
                          "duration" : 752640000,
                          "mediaStart" : 22320480000,
                          "mediaDuration" : 752640000,
                          "scalar" : 1,
                          "animationTracks" : {

                          }
                        },
                    "audio" : 
                        {
                          "id" : 39,
                          "_type" : "AMFile",
                          "src" : 1,
                          "trackNumber" : 0,
                          "attributes" : {
                            "ident" : "",
                            "gain" : 0.256946673979082,
                            "mixToMono" : false,
                            "loudnessNormalization" : true,
                            "sourceFileOffset" : 0
                          },
                            "channelNumber" : "0,1",
                          "effects" : [
                              {
                                "effectName" : "NoiseReduction",
                                "bypassed" : false,
                                "category" : "categoryAudioEffects",
                                "parameters" : {
                                  "denoiserAmount" : 20.0,
                                  "denoiserThreshold" : -20.0,
                                  "noiseProfile" : "",
                                  "noiseTrainingType" : "default"
                                },
                                "metadata" : {
                                  "default-NoiseReduction_denoiserThreshold" : 0.0,
                                  "effectIndex" : "0",
                                  "presetName" : "Noise Removal"
                                }
                              }
                          ],
                          "start" : 23496480000,
                          "duration" : 752640000,
                          "mediaStart" : 22320480000,
                          "mediaDuration" : 752640000,
                          "scalar" : 1,
                          "animationTracks" : {

                          }
                        }
,
                    "start" : 23496480000,
                    "duration" : 752640000,
                    "mediaStart" : 0,
                    "mediaDuration" : 43723680000,
                    "scalar" : 1,
                    "metadata" : {
                      "clipSpeedAttribute" : false,
                      "default-height" : 720.0,
                      "default-width" : 1280.0
                    }
                  },
                  {
                    "id" : 40,
                    "_type" : "UnifiedMedia",
                    "video" : 
                        {
                          "id" : 41,
                          "_type" : "VMFile",
                          "src" : 1,
                          "trackNumber" : 1,
                          "attributes" : {
                            "ident" : "video6050788113159033184"
                          },
                          "parameters" : {
                            "sourceCrop0" : {
                              "type" : "double",
                              "defaultValue" : 0.0,
                              "interp" : "eioe"
                            },
                            "sourceCrop1" : {
                              "type" : "double",
                              "defaultValue" : 0.0,
                              "interp" : "eioe"
                            },
                            "sourceCrop2" : {
                              "type" : "double",
                              "defaultValue" : 0.0,
                              "interp" : "eioe"
                            },
                            "sourceCrop3" : {
                              "type" : "double",
                              "defaultValue" : 0.0,
                              "interp" : "eioe"
                            },
                            "geometryCrop0" : {
                              "type" : "double",
                              "defaultValue" : 0.0,
                              "interp" : "eioe"
                            },
                            "geometryCrop1" : {
                              "type" : "double",
                              "defaultValue" : 0.0,
                              "interp" : "eioe"
                            },
                            "geometryCrop2" : {
                              "type" : "double",
                              "defaultValue" : 0.0,
                              "interp" : "eioe"
                            },
                            "geometryCrop3" : {
                              "type" : "double",
                              "defaultValue" : 0.0,
                              "interp" : "eioe"
                            }
                          },
                          "effects" : [

                          ],
                          "start" : 24249120000,
                          "duration" : 8843520000,
                          "mediaStart" : 23590560000,
                          "mediaDuration" : 8843520000,
                          "scalar" : 1,
                          "animationTracks" : {

                          }
                        },
                    "audio" : 
                        {
                          "id" : 42,
                          "_type" : "AMFile",
                          "src" : 1,
                          "trackNumber" : 0,
                          "attributes" : {
                            "ident" : "",
                            "gain" : 0.256946673979082,
                            "mixToMono" : false,
                            "loudnessNormalization" : true,
                            "sourceFileOffset" : 0
                          },
                            "channelNumber" : "0,1",
                          "effects" : [
                              {
                                "effectName" : "NoiseReduction",
                                "bypassed" : false,
                                "category" : "categoryAudioEffects",
                                "parameters" : {
                                  "denoiserAmount" : 20.0,
                                  "denoiserThreshold" : -20.0,
                                  "noiseProfile" : "",
                                  "noiseTrainingType" : "default"
                                },
                                "metadata" : {
                                  "default-NoiseReduction_denoiserThreshold" : 0.0,
                                  "effectIndex" : "0",
                                  "presetName" : "Noise Removal"
                                }
                              }
                          ],
                          "start" : 24249120000,
                          "duration" : 8843520000,
                          "mediaStart" : 23590560000,
                          "mediaDuration" : 8843520000,
                          "scalar" : 1,
                          "animationTracks" : {

                          }
                        }
,
                    "start" : 24249120000,
                    "duration" : 8843520000,
                    "mediaStart" : 0,
                    "mediaDuration" : 43723680000,
                    "scalar" : 1,
                    "metadata" : {
                      "clipSpeedAttribute" : false,
                      "default-height" : 720.0,
                      "default-width" : 1280.0
                    }
                  },
                  {
                    "id" : 43,
                    "_type" : "UnifiedMedia",
                    "video" : 
                        {
                          "id" : 44,
                          "_type" : "VMFile",
                          "src" : 1,
                          "trackNumber" : 1,
                          "attributes" : {
                            "ident" : "video6050788113159033184"
                          },
                          "parameters" : {
                            "sourceCrop0" : {
                              "type" : "double",
                              "defaultValue" : 0.0,
                              "interp" : "eioe"
                            },
                            "sourceCrop1" : {
                              "type" : "double",
                              "defaultValue" : 0.0,
                              "interp" : "eioe"
                            },
                            "sourceCrop2" : {
                              "type" : "double",
                              "defaultValue" : 0.0,
                              "interp" : "eioe"
                            },
                            "sourceCrop3" : {
                              "type" : "double",
                              "defaultValue" : 0.0,
                              "interp" : "eioe"
                            },
                            "geometryCrop0" : {
                              "type" : "double",
                              "defaultValue" : 0.0,
                              "interp" : "eioe"
                            },
                            "geometryCrop1" : {
                              "type" : "double",
                              "defaultValue" : 0.0,
                              "interp" : "eioe"
                            },
                            "geometryCrop2" : {
                              "type" : "double",
                              "defaultValue" : 0.0,
                              "interp" : "eioe"
                            },
                            "geometryCrop3" : {
                              "type" : "double",
                              "defaultValue" : 0.0,
                              "interp" : "eioe"
                            }
                          },
                          "effects" : [

                          ],
                          "start" : 33092640000,
                          "duration" : 94080000,
                          "mediaStart" : 34480320000,
                          "mediaDuration" : 94080000,
                          "scalar" : 1,
                          "animationTracks" : {

                          }
                        },
                    "audio" : 
                        {
                          "id" : 45,
                          "_type" : "AMFile",
                          "src" : 1,
                          "trackNumber" : 0,
                          "attributes" : {
                            "ident" : "",
                            "gain" : 0.256946673979082,
                            "mixToMono" : false,
                            "loudnessNormalization" : true,
                            "sourceFileOffset" : 0
                          },
                            "channelNumber" : "0,1",
                          "effects" : [
                              {
                                "effectName" : "NoiseReduction",
                                "bypassed" : false,
                                "category" : "categoryAudioEffects",
                                "parameters" : {
                                  "denoiserAmount" : 20.0,
                                  "denoiserThreshold" : -20.0,
                                  "noiseProfile" : "",
                                  "noiseTrainingType" : "default"
                                },
                                "metadata" : {
                                  "default-NoiseReduction_denoiserThreshold" : 0.0,
                                  "effectIndex" : "0",
                                  "presetName" : "Noise Removal"
                                }
                              }
                          ],
                          "start" : 33092640000,
                          "duration" : 94080000,
                          "mediaStart" : 34480320000,
                          "mediaDuration" : 94080000,
                          "scalar" : 1,
                          "animationTracks" : {

                          }
                        }
,
                    "start" : 33092640000,
                    "duration" : 94080000,
                    "mediaStart" : 0,
                    "mediaDuration" : 43723680000,
                    "scalar" : 1,
                    "metadata" : {
                      "clipSpeedAttribute" : false,
                      "default-height" : 720.0,
                      "default-width" : 1280.0
                    }
                  },
                  {
                    "id" : 46,
                    "_type" : "UnifiedMedia",
                    "video" : 
                        {
                          "id" : 47,
                          "_type" : "VMFile",
                          "src" : 1,
                          "trackNumber" : 1,
                          "attributes" : {
                            "ident" : "video6050788113159033184"
                          },
                          "parameters" : {
                            "sourceCrop0" : {
                              "type" : "double",
                              "defaultValue" : 0.0,
                              "interp" : "eioe"
                            },
                            "sourceCrop1" : {
                              "type" : "double",
                              "defaultValue" : 0.0,
                              "interp" : "eioe"
                            },
                            "sourceCrop2" : {
                              "type" : "double",
                              "defaultValue" : 0.0,
                              "interp" : "eioe"
                            },
                            "sourceCrop3" : {
                              "type" : "double",
                              "defaultValue" : 0.0,
                              "interp" : "eioe"
                            },
                            "geometryCrop0" : {
                              "type" : "double",
                              "defaultValue" : 0.0,
                              "interp" : "eioe"
                            },
                            "geometryCrop1" : {
                              "type" : "double",
                              "defaultValue" : 0.0,
                              "interp" : "eioe"
                            },
                            "geometryCrop2" : {
                              "type" : "double",
                              "defaultValue" : 0.0,
                              "interp" : "eioe"
                            },
                            "geometryCrop3" : {
                              "type" : "double",
                              "defaultValue" : 0.0,
                              "interp" : "eioe"
                            }
                          },
                          "effects" : [

                          ],
                          "start" : 33186720000,
                          "duration" : 3433920000,
                          "mediaStart" : 37161600000,
                          "mediaDuration" : 3433920000,
                          "scalar" : 1,
                          "animationTracks" : {

                          }
                        },
                    "audio" : 
                        {
                          "id" : 48,
                          "_type" : "AMFile",
                          "src" : 1,
                          "trackNumber" : 0,
                          "attributes" : {
                            "ident" : "",
                            "gain" : 0.256946673979082,
                            "mixToMono" : false,
                            "loudnessNormalization" : true,
                            "sourceFileOffset" : 0
                          },
                            "channelNumber" : "0,1",
                          "effects" : [
                              {
                                "effectName" : "NoiseReduction",
                                "bypassed" : false,
                                "category" : "categoryAudioEffects",
                                "parameters" : {
                                  "denoiserAmount" : 20.0,
                                  "denoiserThreshold" : -20.0,
                                  "noiseProfile" : "",
                                  "noiseTrainingType" : "default"
                                },
                                "metadata" : {
                                  "default-NoiseReduction_denoiserThreshold" : 0.0,
                                  "effectIndex" : "0",
                                  "presetName" : "Noise Removal"
                                }
                              }
                          ],
                          "start" : 33186720000,
                          "duration" : 3433920000,
                          "mediaStart" : 37161600000,
                          "mediaDuration" : 3433920000,
                          "scalar" : 1,
                          "animationTracks" : {

                          }
                        }
,
                    "start" : 33186720000,
                    "duration" : 3433920000,
                    "mediaStart" : 0,
                    "mediaDuration" : 43723680000,
                    "scalar" : 1,
                    "metadata" : {
                      "clipSpeedAttribute" : false,
                      "default-height" : 720.0,
                      "default-width" : 1280.0
                    }
                  },
                  {
                    "id" : 49,
                    "_type" : "Callout",
                    "def" : {
                      "kind" : "remix",
                      "shape" : "text",
                      "style" : "basic",
                      "enable-ligatures" : {
                        "type" : "double",
                        "defaultValue" : 1.0,
                        "interp" : "linr"
                      },
                      "height" : {
                        "type" : "double",
                        "defaultValue" : 199.675324675325,
                        "interp" : "linr"
                      },
                      "line-spacing" : {
                        "type" : "double",
                        "defaultValue" : 0.0,
                        "interp" : "linr"
                      },
                      "width" : {
                        "type" : "double",
                        "defaultValue" : 850.649350649351,
                        "interp" : "linr"
                      },
                      "word-wrap" : {
                        "type" : "double",
                        "defaultValue" : 1.0,
                        "interp" : "linr"
                      },
                      "horizontal-alignment" : "center",
                      "resize-behavior" : "resizeText",
                      "text" : "Web Yazılımının Tanıtılması",
                      "vertical-alignment" : "center",
                      "font" : {
                        "color-blue" : {
                          "type" : "double",
                          "defaultValue" : 1.0,
                          "interp" : "linr"
                        },
                        "color-green" : {
                          "type" : "double",
                          "defaultValue" : 1.0,
                          "interp" : "linr"
                        },
                        "color-red" : {
                          "type" : "double",
                          "defaultValue" : 1.0,
                          "interp" : "linr"
                        },
                        "size" : {
                          "type" : "double",
                          "defaultValue" : 96.0,
                          "interp" : "linr"
                        },
                        "tracking" : {
                          "type" : "double",
                          "defaultValue" : 0.0,
                          "interp" : "linr"
                        },
                        "name" : "Montserrat",
                        "weight" : "Regular"
                      },
                      "textAttributes" : {
                        "type" : "textAttributeList",
                        "keyframes" : [
                          {
                            "endTime" : 0,
                            "time" : 0,
                            "value" : [{"name":"fontItalic","rangeEnd":34,"rangeStart":0,"value":0,"valueType":"int"},{"name":"underline","rangeEnd":34,"rangeStart":0,"value":0,"valueType":"int"},{"name":"fgColor","rangeEnd":34,"rangeStart":0,"value":"(255,255,255,255)","valueType":"color"},{"name":"fontSize","rangeEnd":34,"rangeStart":0,"value":96,"valueType":"double"},{"name":"kerning","rangeEnd":34,"rangeStart":0,"value":0,"valueType":"double"},{"name":"strikethrough","rangeEnd":34,"rangeStart":0,"value":0,"valueType":"int"},{"name":"fontWeight","rangeEnd":34,"rangeStart":0,"value":400,"valueType":"int"},{"name":"fontName","rangeEnd":34,"rangeStart":0,"value":"Montserrat","valueType":"string"}],
                            "duration" : 0
                          }
                        ]
                      }
                    },
                    "attributes" : {
                      "ident" : "",
                      "autoRotateText" : true
                    },
                    "parameters" : {
                      "sourceCrop0" : {
                        "type" : "double",
                        "defaultValue" : 0.0,
                        "interp" : "eioe"
                      },
                      "sourceCrop1" : {
                        "type" : "double",
                        "defaultValue" : 0.0,
                        "interp" : "eioe"
                      },
                      "sourceCrop2" : {
                        "type" : "double",
                        "defaultValue" : 0.0,
                        "interp" : "eioe"
                      },
                      "sourceCrop3" : {
                        "type" : "double",
                        "defaultValue" : 0.0,
                        "interp" : "eioe"
                      },
                      "geometryCrop0" : {
                        "type" : "double",
                        "defaultValue" : 0.0,
                        "interp" : "eioe"
                      },
                      "geometryCrop1" : {
                        "type" : "double",
                        "defaultValue" : 0.0,
                        "interp" : "eioe"
                      },
                      "geometryCrop2" : {
                        "type" : "double",
                        "defaultValue" : 0.0,
                        "interp" : "eioe"
                      },
                      "geometryCrop3" : {
                        "type" : "double",
                        "defaultValue" : 0.0,
                        "interp" : "eioe"
                      }
                    },
                    "effects" : [

                    ],
                    "start" : 36620640000,
                    "duration" : 1458240000,
                    "mediaStart" : 0,
                    "mediaDuration" : 1458240000,
                    "scalar" : 1,
                    "metadata" : {
                      "clipSpeedAttribute" : false,
                      "default-HAlign" : "center",
                      "default-LineSpace" : 0.0,
                      "default-VAlign" : "center",
                      "default-anchor0" : 0.0,
                      "default-anchor1" : 0.0,
                      "default-anchor2" : 0.0,
                      "default-height" : 250.0,
                      "default-rotation0" : 0.0,
                      "default-rotation1" : 0.0,
                      "default-rotation2" : 0.0,
                      "default-scale0" : 1.0,
                      "default-scale1" : 1.0,
                      "default-scale2" : 1.0,
                      "default-shear0" : 0.0,
                      "default-shear1" : 0.0,
                      "default-shear2" : 0.0,
                      "default-text-attributes" : null,
                      "default-translation0" : 0.0,
                      "default-translation1" : 0.0,
                      "default-translation2" : 0.0,
                      "default-width" : 400.0
                    },
                    "animationTracks" : {

                    }
                  },
                  {
                    "id" : 50,
                    "_type" : "UnifiedMedia",
                    "video" : 
                        {
                          "id" : 51,
                          "_type" : "ScreenVMFile",
                          "src" : 2,
                          "trackNumber" : 0,
                          "attributes" : {
                            "ident" : "Rec 6-06-2023-13-36-48"
                          },
                          "parameters" : {
                            "scale0" : {
                              "type" : "double",
                              "defaultValue" : 0.666666666666667,
                              "interp" : "eioe"
                            },
                            "scale1" : {
                              "type" : "double",
                              "defaultValue" : 0.666666666666667,
                              "interp" : "eioe"
                            },
                            "sourceCrop0" : {
                              "type" : "double",
                              "defaultValue" : 0.0,
                              "interp" : "eioe"
                            },
                            "sourceCrop1" : {
                              "type" : "double",
                              "defaultValue" : 0.0,
                              "interp" : "eioe"
                            },
                            "sourceCrop2" : {
                              "type" : "double",
                              "defaultValue" : 0.0,
                              "interp" : "eioe"
                            },
                            "sourceCrop3" : {
                              "type" : "double",
                              "defaultValue" : 0.0,
                              "interp" : "eioe"
                            },
                            "geometryCrop0" : {
                              "type" : "double",
                              "defaultValue" : 0.0,
                              "interp" : "eioe"
                            },
                            "geometryCrop1" : {
                              "type" : "double",
                              "defaultValue" : 0.0,
                              "interp" : "eioe"
                            },
                            "geometryCrop2" : {
                              "type" : "double",
                              "defaultValue" : 0.0,
                              "interp" : "eioe"
                            },
                            "geometryCrop3" : {
                              "type" : "double",
                              "defaultValue" : 0.0,
                              "interp" : "eioe"
                            },
                            "cursorScale" : {
                              "type" : "double",
                              "defaultValue" : 2.25,
                              "interp" : "linr"
                            },
                            "cursorOpacity" : {
                              "type" : "double",
                              "defaultValue" : 1.0,
                              "interp" : "linr"
                            }
                          },
                          "effects" : [

                          ],
                          "start" : 38078880000,
                          "duration" : 2469600000,
                          "mediaStart" : 1387680000,
                          "mediaDuration" : 2469600000,
                          "scalar" : 1,
                          "animationTracks" : {

                          }
                        },
                    "audio" : 
                        {
                          "id" : 52,
                          "_type" : "AMFile",
                          "src" : 2,
                          "trackNumber" : 1,
                          "attributes" : {
                            "ident" : "",
                            "gain" : 1.0,
                            "mixToMono" : false,
                            "loudnessNormalization" : true,
                            "sourceFileOffset" : 0
                          },
                            "channelNumber" : "0,1",
                          "effects" : [

                          ],
                          "start" : 38078880000,
                          "duration" : 2469600000,
                          "mediaStart" : 1387680000,
                          "mediaDuration" : 2469600000,
                          "scalar" : 1,
                          "animationTracks" : {

                          }
                        }
,
                    "start" : 38078880000,
                    "duration" : 2469600000,
                    "mediaStart" : 0,
                    "mediaDuration" : 139614720000,
                    "scalar" : 1,
                    "metadata" : {
                      "AutoAppliedSmartFocus" : "False",
                      "clipSpeedAttribute" : false
                    }
                  },
                  {
                    "id" : 53,
                    "_type" : "UnifiedMedia",
                    "video" : 
                        {
                          "id" : 54,
                          "_type" : "ScreenVMFile",
                          "src" : 2,
                          "trackNumber" : 0,
                          "attributes" : {
                            "ident" : "Rec 6-06-2023-13-36-48"
                          },
                          "parameters" : {
                            "scale0" : {
                              "type" : "double",
                              "defaultValue" : 0.666666666666667,
                              "interp" : "eioe"
                            },
                            "scale1" : {
                              "type" : "double",
                              "defaultValue" : 0.666666666666667,
                              "interp" : "eioe"
                            },
                            "sourceCrop0" : {
                              "type" : "double",
                              "defaultValue" : 0.0,
                              "interp" : "eioe"
                            },
                            "sourceCrop1" : {
                              "type" : "double",
                              "defaultValue" : 0.0,
                              "interp" : "eioe"
                            },
                            "sourceCrop2" : {
                              "type" : "double",
                              "defaultValue" : 0.0,
                              "interp" : "eioe"
                            },
                            "sourceCrop3" : {
                              "type" : "double",
                              "defaultValue" : 0.0,
                              "interp" : "eioe"
                            },
                            "geometryCrop0" : {
                              "type" : "double",
                              "defaultValue" : 0.0,
                              "interp" : "eioe"
                            },
                            "geometryCrop1" : {
                              "type" : "double",
                              "defaultValue" : 0.0,
                              "interp" : "eioe"
                            },
                            "geometryCrop2" : {
                              "type" : "double",
                              "defaultValue" : 0.0,
                              "interp" : "eioe"
                            },
                            "geometryCrop3" : {
                              "type" : "double",
                              "defaultValue" : 0.0,
                              "interp" : "eioe"
                            },
                            "cursorScale" : {
                              "type" : "double",
                              "defaultValue" : 2.25,
                              "interp" : "linr"
                            },
                            "cursorOpacity" : {
                              "type" : "double",
                              "defaultValue" : 1.0,
                              "interp" : "linr"
                            }
                          },
                          "effects" : [

                          ],
                          "start" : 40548480000,
                          "duration" : 1364160000,
                          "mediaStart" : 4562880000,
                          "mediaDuration" : 1364160000,
                          "scalar" : 1,
                          "animationTracks" : {

                          }
                        },
                    "audio" : 
                        {
                          "id" : 55,
                          "_type" : "AMFile",
                          "src" : 2,
                          "trackNumber" : 1,
                          "attributes" : {
                            "ident" : "",
                            "gain" : 1.0,
                            "mixToMono" : false,
                            "loudnessNormalization" : true,
                            "sourceFileOffset" : 0
                          },
                            "channelNumber" : "0,1",
                          "effects" : [

                          ],
                          "start" : 40548480000,
                          "duration" : 1364160000,
                          "mediaStart" : 4562880000,
                          "mediaDuration" : 1364160000,
                          "scalar" : 1,
                          "animationTracks" : {

                          }
                        }
,
                    "start" : 40548480000,
                    "duration" : 1364160000,
                    "mediaStart" : 0,
                    "mediaDuration" : 139614720000,
                    "scalar" : 1,
                    "metadata" : {
                      "AutoAppliedSmartFocus" : "False",
                      "clipSpeedAttribute" : false
                    }
                  },
                  {
                    "id" : 56,
                    "_type" : "UnifiedMedia",
                    "video" : 
                        {
                          "id" : 57,
                          "_type" : "ScreenVMFile",
                          "src" : 2,
                          "trackNumber" : 0,
                          "attributes" : {
                            "ident" : "Rec 6-06-2023-13-36-48"
                          },
                          "parameters" : {
                            "scale0" : {
                              "type" : "double",
                              "defaultValue" : 0.666666666666667,
                              "interp" : "eioe"
                            },
                            "scale1" : {
                              "type" : "double",
                              "defaultValue" : 0.666666666666667,
                              "interp" : "eioe"
                            },
                            "sourceCrop0" : {
                              "type" : "double",
                              "defaultValue" : 0.0,
                              "interp" : "eioe"
                            },
                            "sourceCrop1" : {
                              "type" : "double",
                              "defaultValue" : 0.0,
                              "interp" : "eioe"
                            },
                            "sourceCrop2" : {
                              "type" : "double",
                              "defaultValue" : 0.0,
                              "interp" : "eioe"
                            },
                            "sourceCrop3" : {
                              "type" : "double",
                              "defaultValue" : 0.0,
                              "interp" : "eioe"
                            },
                            "geometryCrop0" : {
                              "type" : "double",
                              "defaultValue" : 0.0,
                              "interp" : "eioe"
                            },
                            "geometryCrop1" : {
                              "type" : "double",
                              "defaultValue" : 0.0,
                              "interp" : "eioe"
                            },
                            "geometryCrop2" : {
                              "type" : "double",
                              "defaultValue" : 0.0,
                              "interp" : "eioe"
                            },
                            "geometryCrop3" : {
                              "type" : "double",
                              "defaultValue" : 0.0,
                              "interp" : "eioe"
                            },
                            "cursorScale" : {
                              "type" : "double",
                              "defaultValue" : 2.25,
                              "interp" : "linr"
                            },
                            "cursorOpacity" : {
                              "type" : "double",
                              "defaultValue" : 1.0,
                              "interp" : "linr"
                            }
                          },
                          "effects" : [

                          ],
                          "start" : 41912640000,
                          "duration" : 1834560000,
                          "mediaStart" : 6538560000,
                          "mediaDuration" : 1834560000,
                          "scalar" : 1,
                          "animationTracks" : {

                          }
                        },
                    "audio" : 
                        {
                          "id" : 58,
                          "_type" : "AMFile",
                          "src" : 2,
                          "trackNumber" : 1,
                          "attributes" : {
                            "ident" : "",
                            "gain" : 1.0,
                            "mixToMono" : false,
                            "loudnessNormalization" : true,
                            "sourceFileOffset" : 0
                          },
                            "channelNumber" : "0,1",
                          "effects" : [

                          ],
                          "start" : 41912640000,
                          "duration" : 1834560000,
                          "mediaStart" : 6538560000,
                          "mediaDuration" : 1834560000,
                          "scalar" : 1,
                          "animationTracks" : {

                          }
                        }
,
                    "start" : 41912640000,
                    "duration" : 1834560000,
                    "mediaStart" : 0,
                    "mediaDuration" : 139614720000,
                    "scalar" : 1,
                    "metadata" : {
                      "AutoAppliedSmartFocus" : "False",
                      "clipSpeedAttribute" : false
                    }
                  },
                  {
                    "id" : 59,
                    "_type" : "UnifiedMedia",
                    "video" : 
                        {
                          "id" : 60,
                          "_type" : "ScreenVMFile",
                          "src" : 2,
                          "trackNumber" : 0,
                          "attributes" : {
                            "ident" : "Rec 6-06-2023-13-36-48"
                          },
                          "parameters" : {
                            "scale0" : {
                              "type" : "double",
                              "defaultValue" : 0.666666666666667,
                              "interp" : "eioe"
                            },
                            "scale1" : {
                              "type" : "double",
                              "defaultValue" : 0.666666666666667,
                              "interp" : "eioe"
                            },
                            "sourceCrop0" : {
                              "type" : "double",
                              "defaultValue" : 0.0,
                              "interp" : "eioe"
                            },
                            "sourceCrop1" : {
                              "type" : "double",
                              "defaultValue" : 0.0,
                              "interp" : "eioe"
                            },
                            "sourceCrop2" : {
                              "type" : "double",
                              "defaultValue" : 0.0,
                              "interp" : "eioe"
                            },
                            "sourceCrop3" : {
                              "type" : "double",
                              "defaultValue" : 0.0,
                              "interp" : "eioe"
                            },
                            "geometryCrop0" : {
                              "type" : "double",
                              "defaultValue" : 0.0,
                              "interp" : "eioe"
                            },
                            "geometryCrop1" : {
                              "type" : "double",
                              "defaultValue" : 0.0,
                              "interp" : "eioe"
                            },
                            "geometryCrop2" : {
                              "type" : "double",
                              "defaultValue" : 0.0,
                              "interp" : "eioe"
                            },
                            "geometryCrop3" : {
                              "type" : "double",
                              "defaultValue" : 0.0,
                              "interp" : "eioe"
                            },
                            "cursorScale" : {
                              "type" : "double",
                              "defaultValue" : 2.25,
                              "interp" : "linr"
                            },
                            "cursorOpacity" : {
                              "type" : "double",
                              "defaultValue" : 1.0,
                              "interp" : "linr"
                            }
                          },
                          "effects" : [

                          ],
                          "start" : 43747200000,
                          "duration" : 5080320000,
                          "mediaStart" : 8961120000,
                          "mediaDuration" : 5080320000,
                          "scalar" : 1,
                          "animationTracks" : {

                          }
                        },
                    "audio" : 
                        {
                          "id" : 61,
                          "_type" : "AMFile",
                          "src" : 2,
                          "trackNumber" : 1,
                          "attributes" : {
                            "ident" : "",
                            "gain" : 1.0,
                            "mixToMono" : false,
                            "loudnessNormalization" : true,
                            "sourceFileOffset" : 0
                          },
                            "channelNumber" : "0,1",
                          "effects" : [

                          ],
                          "start" : 43747200000,
                          "duration" : 5080320000,
                          "mediaStart" : 8961120000,
                          "mediaDuration" : 5080320000,
                          "scalar" : 1,
                          "animationTracks" : {

                          }
                        }
,
                    "start" : 43747200000,
                    "duration" : 5080320000,
                    "mediaStart" : 0,
                    "mediaDuration" : 139614720000,
                    "scalar" : 1,
                    "metadata" : {
                      "AutoAppliedSmartFocus" : "False",
                      "clipSpeedAttribute" : false
                    }
                  },
                  {
                    "id" : 62,
                    "_type" : "UnifiedMedia",
                    "video" : 
                        {
                          "id" : 63,
                          "_type" : "ScreenVMFile",
                          "src" : 2,
                          "trackNumber" : 0,
                          "attributes" : {
                            "ident" : "Rec 6-06-2023-13-36-48"
                          },
                          "parameters" : {
                            "scale0" : {
                              "type" : "double",
                              "defaultValue" : 0.666666666666667,
                              "interp" : "eioe"
                            },
                            "scale1" : {
                              "type" : "double",
                              "defaultValue" : 0.666666666666667,
                              "interp" : "eioe"
                            },
                            "sourceCrop0" : {
                              "type" : "double",
                              "defaultValue" : 0.0,
                              "interp" : "eioe"
                            },
                            "sourceCrop1" : {
                              "type" : "double",
                              "defaultValue" : 0.0,
                              "interp" : "eioe"
                            },
                            "sourceCrop2" : {
                              "type" : "double",
                              "defaultValue" : 0.0,
                              "interp" : "eioe"
                            },
                            "sourceCrop3" : {
                              "type" : "double",
                              "defaultValue" : 0.0,
                              "interp" : "eioe"
                            },
                            "geometryCrop0" : {
                              "type" : "double",
                              "defaultValue" : 0.0,
                              "interp" : "eioe"
                            },
                            "geometryCrop1" : {
                              "type" : "double",
                              "defaultValue" : 0.0,
                              "interp" : "eioe"
                            },
                            "geometryCrop2" : {
                              "type" : "double",
                              "defaultValue" : 0.0,
                              "interp" : "eioe"
                            },
                            "geometryCrop3" : {
                              "type" : "double",
                              "defaultValue" : 0.0,
                              "interp" : "eioe"
                            },
                            "cursorScale" : {
                              "type" : "double",
                              "defaultValue" : 2.25,
                              "interp" : "linr"
                            },
                            "cursorOpacity" : {
                              "type" : "double",
                              "defaultValue" : 1.0,
                              "interp" : "linr"
                            }
                          },
                          "effects" : [

                          ],
                          "start" : 48827520000,
                          "duration" : 10701600000,
                          "mediaStart" : 14582400000,
                          "mediaDuration" : 10701600000,
                          "scalar" : 1,
                          "animationTracks" : {

                          }
                        },
                    "audio" : 
                        {
                          "id" : 64,
                          "_type" : "AMFile",
                          "src" : 2,
                          "trackNumber" : 1,
                          "attributes" : {
                            "ident" : "",
                            "gain" : 1.0,
                            "mixToMono" : false,
                            "loudnessNormalization" : true,
                            "sourceFileOffset" : 0
                          },
                            "channelNumber" : "0,1",
                          "effects" : [

                          ],
                          "start" : 48827520000,
                          "duration" : 10701600000,
                          "mediaStart" : 14582400000,
                          "mediaDuration" : 10701600000,
                          "scalar" : 1,
                          "animationTracks" : {

                          }
                        }
,
                    "start" : 48827520000,
                    "duration" : 10701600000,
                    "mediaStart" : 0,
                    "mediaDuration" : 139614720000,
                    "scalar" : 1,
                    "metadata" : {
                      "AutoAppliedSmartFocus" : "False",
                      "clipSpeedAttribute" : false
                    }
                  },
                  {
                    "id" : 65,
                    "_type" : "UnifiedMedia",
                    "video" : 
                        {
                          "id" : 66,
                          "_type" : "ScreenVMFile",
                          "src" : 2,
                          "trackNumber" : 0,
                          "attributes" : {
                            "ident" : "Rec 6-06-2023-13-36-48"
                          },
                          "parameters" : {
                            "scale0" : {
                              "type" : "double",
                              "defaultValue" : 0.666666666666667,
                              "interp" : "eioe"
                            },
                            "scale1" : {
                              "type" : "double",
                              "defaultValue" : 0.666666666666667,
                              "interp" : "eioe"
                            },
                            "sourceCrop0" : {
                              "type" : "double",
                              "defaultValue" : 0.0,
                              "interp" : "eioe"
                            },
                            "sourceCrop1" : {
                              "type" : "double",
                              "defaultValue" : 0.0,
                              "interp" : "eioe"
                            },
                            "sourceCrop2" : {
                              "type" : "double",
                              "defaultValue" : 0.0,
                              "interp" : "eioe"
                            },
                            "sourceCrop3" : {
                              "type" : "double",
                              "defaultValue" : 0.0,
                              "interp" : "eioe"
                            },
                            "geometryCrop0" : {
                              "type" : "double",
                              "defaultValue" : 0.0,
                              "interp" : "eioe"
                            },
                            "geometryCrop1" : {
                              "type" : "double",
                              "defaultValue" : 0.0,
                              "interp" : "eioe"
                            },
                            "geometryCrop2" : {
                              "type" : "double",
                              "defaultValue" : 0.0,
                              "interp" : "eioe"
                            },
                            "geometryCrop3" : {
                              "type" : "double",
                              "defaultValue" : 0.0,
                              "interp" : "eioe"
                            },
                            "cursorScale" : {
                              "type" : "double",
                              "defaultValue" : 2.25,
                              "interp" : "linr"
                            },
                            "cursorOpacity" : {
                              "type" : "double",
                              "defaultValue" : 1.0,
                              "interp" : "linr"
                            }
                          },
                          "effects" : [

                          ],
                          "start" : 59529120000,
                          "duration" : 4327680000,
                          "mediaStart" : 25824960000,
                          "mediaDuration" : 4327680000,
                          "scalar" : 1,
                          "animationTracks" : {

                          }
                        },
                    "audio" : 
                        {
                          "id" : 67,
                          "_type" : "AMFile",
                          "src" : 2,
                          "trackNumber" : 1,
                          "attributes" : {
                            "ident" : "",
                            "gain" : 1.0,
                            "mixToMono" : false,
                            "loudnessNormalization" : true,
                            "sourceFileOffset" : 0
                          },
                            "channelNumber" : "0,1",
                          "effects" : [

                          ],
                          "start" : 59529120000,
                          "duration" : 4327680000,
                          "mediaStart" : 25824960000,
                          "mediaDuration" : 4327680000,
                          "scalar" : 1,
                          "animationTracks" : {

                          }
                        }
,
                    "start" : 59529120000,
                    "duration" : 4327680000,
                    "mediaStart" : 0,
                    "mediaDuration" : 139614720000,
                    "scalar" : 1,
                    "metadata" : {
                      "AutoAppliedSmartFocus" : "False",
                      "clipSpeedAttribute" : false
                    }
                  },
                  {
                    "id" : 68,
                    "_type" : "UnifiedMedia",
                    "video" : 
                        {
                          "id" : 69,
                          "_type" : "ScreenVMFile",
                          "src" : 2,
                          "trackNumber" : 0,
                          "attributes" : {
                            "ident" : "Rec 6-06-2023-13-36-48"
                          },
                          "parameters" : {
                            "scale0" : {
                              "type" : "double",
                              "defaultValue" : 0.666666666666667,
                              "interp" : "eioe"
                            },
                            "scale1" : {
                              "type" : "double",
                              "defaultValue" : 0.666666666666667,
                              "interp" : "eioe"
                            },
                            "sourceCrop0" : {
                              "type" : "double",
                              "defaultValue" : 0.0,
                              "interp" : "eioe"
                            },
                            "sourceCrop1" : {
                              "type" : "double",
                              "defaultValue" : 0.0,
                              "interp" : "eioe"
                            },
                            "sourceCrop2" : {
                              "type" : "double",
                              "defaultValue" : 0.0,
                              "interp" : "eioe"
                            },
                            "sourceCrop3" : {
                              "type" : "double",
                              "defaultValue" : 0.0,
                              "interp" : "eioe"
                            },
                            "geometryCrop0" : {
                              "type" : "double",
                              "defaultValue" : 0.0,
                              "interp" : "eioe"
                            },
                            "geometryCrop1" : {
                              "type" : "double",
                              "defaultValue" : 0.0,
                              "interp" : "eioe"
                            },
                            "geometryCrop2" : {
                              "type" : "double",
                              "defaultValue" : 0.0,
                              "interp" : "eioe"
                            },
                            "geometryCrop3" : {
                              "type" : "double",
                              "defaultValue" : 0.0,
                              "interp" : "eioe"
                            },
                            "cursorScale" : {
                              "type" : "double",
                              "defaultValue" : 2.25,
                              "interp" : "linr"
                            },
                            "cursorOpacity" : {
                              "type" : "double",
                              "defaultValue" : 1.0,
                              "interp" : "linr"
                            }
                          },
                          "effects" : [

                          ],
                          "start" : 63856800000,
                          "duration" : 3739680000,
                          "mediaStart" : 30481920000,
                          "mediaDuration" : 3739680000,
                          "scalar" : 1,
                          "animationTracks" : {

                          }
                        },
                    "audio" : 
                        {
                          "id" : 70,
                          "_type" : "AMFile",
                          "src" : 2,
                          "trackNumber" : 1,
                          "attributes" : {
                            "ident" : "",
                            "gain" : 1.0,
                            "mixToMono" : false,
                            "loudnessNormalization" : true,
                            "sourceFileOffset" : 0
                          },
                            "channelNumber" : "0,1",
                          "effects" : [

                          ],
                          "start" : 63856800000,
                          "duration" : 3739680000,
                          "mediaStart" : 30481920000,
                          "mediaDuration" : 3739680000,
                          "scalar" : 1,
                          "animationTracks" : {

                          }
                        }
,
                    "start" : 63856800000,
                    "duration" : 3739680000,
                    "mediaStart" : 0,
                    "mediaDuration" : 139614720000,
                    "scalar" : 1,
                    "metadata" : {
                      "AutoAppliedSmartFocus" : "False",
                      "clipSpeedAttribute" : false
                    }
                  },
                  {
                    "id" : 71,
                    "_type" : "UnifiedMedia",
                    "video" : 
                        {
                          "id" : 72,
                          "_type" : "ScreenVMFile",
                          "src" : 2,
                          "trackNumber" : 0,
                          "attributes" : {
                            "ident" : "Rec 6-06-2023-13-36-48"
                          },
                          "parameters" : {
                            "scale0" : {
                              "type" : "double",
                              "defaultValue" : 0.666666666666667,
                              "interp" : "eioe"
                            },
                            "scale1" : {
                              "type" : "double",
                              "defaultValue" : 0.666666666666667,
                              "interp" : "eioe"
                            },
                            "sourceCrop0" : {
                              "type" : "double",
                              "defaultValue" : 0.0,
                              "interp" : "eioe"
                            },
                            "sourceCrop1" : {
                              "type" : "double",
                              "defaultValue" : 0.0,
                              "interp" : "eioe"
                            },
                            "sourceCrop2" : {
                              "type" : "double",
                              "defaultValue" : 0.0,
                              "interp" : "eioe"
                            },
                            "sourceCrop3" : {
                              "type" : "double",
                              "defaultValue" : 0.0,
                              "interp" : "eioe"
                            },
                            "geometryCrop0" : {
                              "type" : "double",
                              "defaultValue" : 0.0,
                              "interp" : "eioe"
                            },
                            "geometryCrop1" : {
                              "type" : "double",
                              "defaultValue" : 0.0,
                              "interp" : "eioe"
                            },
                            "geometryCrop2" : {
                              "type" : "double",
                              "defaultValue" : 0.0,
                              "interp" : "eioe"
                            },
                            "geometryCrop3" : {
                              "type" : "double",
                              "defaultValue" : 0.0,
                              "interp" : "eioe"
                            },
                            "cursorScale" : {
                              "type" : "double",
                              "defaultValue" : 2.25,
                              "interp" : "linr"
                            },
                            "cursorOpacity" : {
                              "type" : "double",
                              "defaultValue" : 1.0,
                              "interp" : "linr"
                            }
                          },
                          "effects" : [

                          ],
                          "start" : 67596480000,
                          "duration" : 4821600000,
                          "mediaStart" : 34762560000,
                          "mediaDuration" : 4821600000,
                          "scalar" : 1,
                          "animationTracks" : {

                          }
                        },
                    "audio" : 
                        {
                          "id" : 73,
                          "_type" : "AMFile",
                          "src" : 2,
                          "trackNumber" : 1,
                          "attributes" : {
                            "ident" : "",
                            "gain" : 1.0,
                            "mixToMono" : false,
                            "loudnessNormalization" : true,
                            "sourceFileOffset" : 0
                          },
                            "channelNumber" : "0,1",
                          "effects" : [

                          ],
                          "start" : 67596480000,
                          "duration" : 4821600000,
                          "mediaStart" : 34762560000,
                          "mediaDuration" : 4821600000,
                          "scalar" : 1,
                          "animationTracks" : {

                          }
                        }
,
                    "start" : 67596480000,
                    "duration" : 4821600000,
                    "mediaStart" : 0,
                    "mediaDuration" : 139614720000,
                    "scalar" : 1,
                    "metadata" : {
                      "AutoAppliedSmartFocus" : "False",
                      "clipSpeedAttribute" : false
                    }
                  },
                  {
                    "id" : 74,
                    "_type" : "UnifiedMedia",
                    "video" : 
                        {
                          "id" : 75,
                          "_type" : "ScreenVMFile",
                          "src" : 2,
                          "trackNumber" : 0,
                          "attributes" : {
                            "ident" : "Rec 6-06-2023-13-36-48"
                          },
                          "parameters" : {
                            "scale0" : {
                              "type" : "double",
                              "defaultValue" : 0.666666666666667,
                              "interp" : "eioe"
                            },
                            "scale1" : {
                              "type" : "double",
                              "defaultValue" : 0.666666666666667,
                              "interp" : "eioe"
                            },
                            "sourceCrop0" : {
                              "type" : "double",
                              "defaultValue" : 0.0,
                              "interp" : "eioe"
                            },
                            "sourceCrop1" : {
                              "type" : "double",
                              "defaultValue" : 0.0,
                              "interp" : "eioe"
                            },
                            "sourceCrop2" : {
                              "type" : "double",
                              "defaultValue" : 0.0,
                              "interp" : "eioe"
                            },
                            "sourceCrop3" : {
                              "type" : "double",
                              "defaultValue" : 0.0,
                              "interp" : "eioe"
                            },
                            "geometryCrop0" : {
                              "type" : "double",
                              "defaultValue" : 0.0,
                              "interp" : "eioe"
                            },
                            "geometryCrop1" : {
                              "type" : "double",
                              "defaultValue" : 0.0,
                              "interp" : "eioe"
                            },
                            "geometryCrop2" : {
                              "type" : "double",
                              "defaultValue" : 0.0,
                              "interp" : "eioe"
                            },
                            "geometryCrop3" : {
                              "type" : "double",
                              "defaultValue" : 0.0,
                              "interp" : "eioe"
                            },
                            "cursorScale" : {
                              "type" : "double",
                              "defaultValue" : 2.25,
                              "interp" : "linr"
                            },
                            "cursorOpacity" : {
                              "type" : "double",
                              "defaultValue" : 1.0,
                              "interp" : "linr"
                            }
                          },
                          "effects" : [

                          ],
                          "start" : 72418080000,
                          "duration" : 8890560000,
                          "mediaStart" : 40266240000,
                          "mediaDuration" : 8890560000,
                          "scalar" : 1,
                          "animationTracks" : {

                          }
                        },
                    "audio" : 
                        {
                          "id" : 76,
                          "_type" : "AMFile",
                          "src" : 2,
                          "trackNumber" : 1,
                          "attributes" : {
                            "ident" : "",
                            "gain" : 1.0,
                            "mixToMono" : false,
                            "loudnessNormalization" : true,
                            "sourceFileOffset" : 0
                          },
                            "channelNumber" : "0,1",
                          "effects" : [

                          ],
                          "start" : 72418080000,
                          "duration" : 8890560000,
                          "mediaStart" : 40266240000,
                          "mediaDuration" : 8890560000,
                          "scalar" : 1,
                          "animationTracks" : {

                          }
                        }
,
                    "start" : 72418080000,
                    "duration" : 8890560000,
                    "mediaStart" : 0,
                    "mediaDuration" : 139614720000,
                    "scalar" : 1,
                    "metadata" : {
                      "AutoAppliedSmartFocus" : "False",
                      "clipSpeedAttribute" : false
                    }
                  },
                  {
                    "id" : 77,
                    "_type" : "UnifiedMedia",
                    "video" : 
                        {
                          "id" : 78,
                          "_type" : "ScreenVMFile",
                          "src" : 2,
                          "trackNumber" : 0,
                          "attributes" : {
                            "ident" : "Rec 6-06-2023-13-36-48"
                          },
                          "parameters" : {
                            "scale0" : {
                              "type" : "double",
                              "defaultValue" : 0.666666666666667,
                              "interp" : "eioe"
                            },
                            "scale1" : {
                              "type" : "double",
                              "defaultValue" : 0.666666666666667,
                              "interp" : "eioe"
                            },
                            "sourceCrop0" : {
                              "type" : "double",
                              "defaultValue" : 0.0,
                              "interp" : "eioe"
                            },
                            "sourceCrop1" : {
                              "type" : "double",
                              "defaultValue" : 0.0,
                              "interp" : "eioe"
                            },
                            "sourceCrop2" : {
                              "type" : "double",
                              "defaultValue" : 0.0,
                              "interp" : "eioe"
                            },
                            "sourceCrop3" : {
                              "type" : "double",
                              "defaultValue" : 0.0,
                              "interp" : "eioe"
                            },
                            "geometryCrop0" : {
                              "type" : "double",
                              "defaultValue" : 0.0,
                              "interp" : "eioe"
                            },
                            "geometryCrop1" : {
                              "type" : "double",
                              "defaultValue" : 0.0,
                              "interp" : "eioe"
                            },
                            "geometryCrop2" : {
                              "type" : "double",
                              "defaultValue" : 0.0,
                              "interp" : "eioe"
                            },
                            "geometryCrop3" : {
                              "type" : "double",
                              "defaultValue" : 0.0,
                              "interp" : "eioe"
                            },
                            "cursorScale" : {
                              "type" : "double",
                              "defaultValue" : 2.25,
                              "interp" : "linr"
                            },
                            "cursorOpacity" : {
                              "type" : "double",
                              "defaultValue" : 1.0,
                              "interp" : "linr"
                            }
                          },
                          "effects" : [

                          ],
                          "start" : 81308640000,
                          "duration" : 18816000000,
                          "mediaStart" : 49674240000,
                          "mediaDuration" : 18816000000,
                          "scalar" : 1,
                          "animationTracks" : {

                          }
                        },
                    "audio" : 
                        {
                          "id" : 79,
                          "_type" : "AMFile",
                          "src" : 2,
                          "trackNumber" : 1,
                          "attributes" : {
                            "ident" : "",
                            "gain" : 1.0,
                            "mixToMono" : false,
                            "loudnessNormalization" : true,
                            "sourceFileOffset" : 0
                          },
                            "channelNumber" : "0,1",
                          "effects" : [

                          ],
                          "start" : 81308640000,
                          "duration" : 18816000000,
                          "mediaStart" : 49674240000,
                          "mediaDuration" : 18816000000,
                          "scalar" : 1,
                          "animationTracks" : {

                          }
                        }
,
                    "start" : 81308640000,
                    "duration" : 18816000000,
                    "mediaStart" : 0,
                    "mediaDuration" : 139614720000,
                    "scalar" : 1,
                    "metadata" : {
                      "AutoAppliedSmartFocus" : "False",
                      "clipSpeedAttribute" : false
                    }
                  },
                  {
                    "id" : 80,
                    "_type" : "UnifiedMedia",
                    "video" : 
                        {
                          "id" : 81,
                          "_type" : "ScreenVMFile",
                          "src" : 2,
                          "trackNumber" : 0,
                          "attributes" : {
                            "ident" : "Rec 6-06-2023-13-36-48"
                          },
                          "parameters" : {
                            "scale0" : {
                              "type" : "double",
                              "defaultValue" : 0.666666666666667,
                              "interp" : "eioe"
                            },
                            "scale1" : {
                              "type" : "double",
                              "defaultValue" : 0.666666666666667,
                              "interp" : "eioe"
                            },
                            "sourceCrop0" : {
                              "type" : "double",
                              "defaultValue" : 0.0,
                              "interp" : "eioe"
                            },
                            "sourceCrop1" : {
                              "type" : "double",
                              "defaultValue" : 0.0,
                              "interp" : "eioe"
                            },
                            "sourceCrop2" : {
                              "type" : "double",
                              "defaultValue" : 0.0,
                              "interp" : "eioe"
                            },
                            "sourceCrop3" : {
                              "type" : "double",
                              "defaultValue" : 0.0,
                              "interp" : "eioe"
                            },
                            "geometryCrop0" : {
                              "type" : "double",
                              "defaultValue" : 0.0,
                              "interp" : "eioe"
                            },
                            "geometryCrop1" : {
                              "type" : "double",
                              "defaultValue" : 0.0,
                              "interp" : "eioe"
                            },
                            "geometryCrop2" : {
                              "type" : "double",
                              "defaultValue" : 0.0,
                              "interp" : "eioe"
                            },
                            "geometryCrop3" : {
                              "type" : "double",
                              "defaultValue" : 0.0,
                              "interp" : "eioe"
                            },
                            "cursorScale" : {
                              "type" : "double",
                              "defaultValue" : 2.25,
                              "interp" : "linr"
                            },
                            "cursorOpacity" : {
                              "type" : "double",
                              "defaultValue" : 1.0,
                              "interp" : "linr"
                            }
                          },
                          "effects" : [

                          ],
                          "start" : 100124640000,
                          "duration" : 2304960000,
                          "mediaStart" : 68890080000,
                          "mediaDuration" : 2304960000,
                          "scalar" : 1,
                          "animationTracks" : {

                          }
                        },
                    "audio" : 
                        {
                          "id" : 82,
                          "_type" : "AMFile",
                          "src" : 2,
                          "trackNumber" : 1,
                          "attributes" : {
                            "ident" : "",
                            "gain" : 1.0,
                            "mixToMono" : false,
                            "loudnessNormalization" : true,
                            "sourceFileOffset" : 0
                          },
                            "channelNumber" : "0,1",
                          "effects" : [

                          ],
                          "start" : 100124640000,
                          "duration" : 2304960000,
                          "mediaStart" : 68890080000,
                          "mediaDuration" : 2304960000,
                          "scalar" : 1,
                          "animationTracks" : {

                          }
                        }
,
                    "start" : 100124640000,
                    "duration" : 2304960000,
                    "mediaStart" : 0,
                    "mediaDuration" : 139614720000,
                    "scalar" : 1,
                    "metadata" : {
                      "AutoAppliedSmartFocus" : "False",
                      "clipSpeedAttribute" : false
                    }
                  },
                  {
                    "id" : 83,
                    "_type" : "UnifiedMedia",
                    "video" : 
                        {
                          "id" : 84,
                          "_type" : "ScreenVMFile",
                          "src" : 2,
                          "trackNumber" : 0,
                          "attributes" : {
                            "ident" : "Rec 6-06-2023-13-36-48"
                          },
                          "parameters" : {
                            "scale0" : {
                              "type" : "double",
                              "defaultValue" : 0.666666666666667,
                              "interp" : "eioe"
                            },
                            "scale1" : {
                              "type" : "double",
                              "defaultValue" : 0.666666666666667,
                              "interp" : "eioe"
                            },
                            "sourceCrop0" : {
                              "type" : "double",
                              "defaultValue" : 0.0,
                              "interp" : "eioe"
                            },
                            "sourceCrop1" : {
                              "type" : "double",
                              "defaultValue" : 0.0,
                              "interp" : "eioe"
                            },
                            "sourceCrop2" : {
                              "type" : "double",
                              "defaultValue" : 0.0,
                              "interp" : "eioe"
                            },
                            "sourceCrop3" : {
                              "type" : "double",
                              "defaultValue" : 0.0,
                              "interp" : "eioe"
                            },
                            "geometryCrop0" : {
                              "type" : "double",
                              "defaultValue" : 0.0,
                              "interp" : "eioe"
                            },
                            "geometryCrop1" : {
                              "type" : "double",
                              "defaultValue" : 0.0,
                              "interp" : "eioe"
                            },
                            "geometryCrop2" : {
                              "type" : "double",
                              "defaultValue" : 0.0,
                              "interp" : "eioe"
                            },
                            "geometryCrop3" : {
                              "type" : "double",
                              "defaultValue" : 0.0,
                              "interp" : "eioe"
                            },
                            "cursorScale" : {
                              "type" : "double",
                              "defaultValue" : 2.25,
                              "interp" : "linr"
                            },
                            "cursorOpacity" : {
                              "type" : "double",
                              "defaultValue" : 1.0,
                              "interp" : "linr"
                            }
                          },
                          "effects" : [

                          ],
                          "start" : 102429600000,
                          "duration" : 1552320000,
                          "mediaStart" : 71806560000,
                          "mediaDuration" : 1552320000,
                          "scalar" : 1,
                          "animationTracks" : {

                          }
                        },
                    "audio" : 
                        {
                          "id" : 85,
                          "_type" : "AMFile",
                          "src" : 2,
                          "trackNumber" : 1,
                          "attributes" : {
                            "ident" : "",
                            "gain" : 1.0,
                            "mixToMono" : false,
                            "loudnessNormalization" : true,
                            "sourceFileOffset" : 0
                          },
                            "channelNumber" : "0,1",
                          "effects" : [

                          ],
                          "start" : 102429600000,
                          "duration" : 1552320000,
                          "mediaStart" : 71806560000,
                          "mediaDuration" : 1552320000,
                          "scalar" : 1,
                          "animationTracks" : {

                          }
                        }
,
                    "start" : 102429600000,
                    "duration" : 1552320000,
                    "mediaStart" : 0,
                    "mediaDuration" : 139614720000,
                    "scalar" : 1,
                    "metadata" : {
                      "AutoAppliedSmartFocus" : "False",
                      "clipSpeedAttribute" : false
                    }
                  },
                  {
                    "id" : 86,
                    "_type" : "UnifiedMedia",
                    "video" : 
                        {
                          "id" : 87,
                          "_type" : "ScreenVMFile",
                          "src" : 2,
                          "trackNumber" : 0,
                          "attributes" : {
                            "ident" : "Rec 6-06-2023-13-36-48"
                          },
                          "parameters" : {
                            "scale0" : {
                              "type" : "double",
                              "defaultValue" : 0.666666666666667,
                              "interp" : "eioe"
                            },
                            "scale1" : {
                              "type" : "double",
                              "defaultValue" : 0.666666666666667,
                              "interp" : "eioe"
                            },
                            "sourceCrop0" : {
                              "type" : "double",
                              "defaultValue" : 0.0,
                              "interp" : "eioe"
                            },
                            "sourceCrop1" : {
                              "type" : "double",
                              "defaultValue" : 0.0,
                              "interp" : "eioe"
                            },
                            "sourceCrop2" : {
                              "type" : "double",
                              "defaultValue" : 0.0,
                              "interp" : "eioe"
                            },
                            "sourceCrop3" : {
                              "type" : "double",
                              "defaultValue" : 0.0,
                              "interp" : "eioe"
                            },
                            "geometryCrop0" : {
                              "type" : "double",
                              "defaultValue" : 0.0,
                              "interp" : "eioe"
                            },
                            "geometryCrop1" : {
                              "type" : "double",
                              "defaultValue" : 0.0,
                              "interp" : "eioe"
                            },
                            "geometryCrop2" : {
                              "type" : "double",
                              "defaultValue" : 0.0,
                              "interp" : "eioe"
                            },
                            "geometryCrop3" : {
                              "type" : "double",
                              "defaultValue" : 0.0,
                              "interp" : "eioe"
                            },
                            "cursorScale" : {
                              "type" : "double",
                              "defaultValue" : 2.25,
                              "interp" : "linr"
                            },
                            "cursorOpacity" : {
                              "type" : "double",
                              "defaultValue" : 1.0,
                              "interp" : "linr"
                            }
                          },
                          "effects" : [

                          ],
                          "start" : 103981920000,
                          "duration" : 1834560000,
                          "mediaStart" : 74111520000,
                          "mediaDuration" : 1834560000,
                          "scalar" : 1,
                          "animationTracks" : {

                          }
                        },
                    "audio" : 
                        {
                          "id" : 88,
                          "_type" : "AMFile",
                          "src" : 2,
                          "trackNumber" : 1,
                          "attributes" : {
                            "ident" : "",
                            "gain" : 1.0,
                            "mixToMono" : false,
                            "loudnessNormalization" : true,
                            "sourceFileOffset" : 0
                          },
                            "channelNumber" : "0,1",
                          "effects" : [

                          ],
                          "start" : 103981920000,
                          "duration" : 1834560000,
                          "mediaStart" : 74111520000,
                          "mediaDuration" : 1834560000,
                          "scalar" : 1,
                          "animationTracks" : {

                          }
                        }
,
                    "start" : 103981920000,
                    "duration" : 1834560000,
                    "mediaStart" : 0,
                    "mediaDuration" : 139614720000,
                    "scalar" : 1,
                    "metadata" : {
                      "AutoAppliedSmartFocus" : "False",
                      "clipSpeedAttribute" : false
                    }
                  },
                  {
                    "id" : 89,
                    "_type" : "UnifiedMedia",
                    "video" : 
                        {
                          "id" : 90,
                          "_type" : "ScreenVMFile",
                          "src" : 2,
                          "trackNumber" : 0,
                          "attributes" : {
                            "ident" : "Rec 6-06-2023-13-36-48"
                          },
                          "parameters" : {
                            "scale0" : {
                              "type" : "double",
                              "defaultValue" : 0.666666666666667,
                              "interp" : "eioe"
                            },
                            "scale1" : {
                              "type" : "double",
                              "defaultValue" : 0.666666666666667,
                              "interp" : "eioe"
                            },
                            "sourceCrop0" : {
                              "type" : "double",
                              "defaultValue" : 0.0,
                              "interp" : "eioe"
                            },
                            "sourceCrop1" : {
                              "type" : "double",
                              "defaultValue" : 0.0,
                              "interp" : "eioe"
                            },
                            "sourceCrop2" : {
                              "type" : "double",
                              "defaultValue" : 0.0,
                              "interp" : "eioe"
                            },
                            "sourceCrop3" : {
                              "type" : "double",
                              "defaultValue" : 0.0,
                              "interp" : "eioe"
                            },
                            "geometryCrop0" : {
                              "type" : "double",
                              "defaultValue" : 0.0,
                              "interp" : "eioe"
                            },
                            "geometryCrop1" : {
                              "type" : "double",
                              "defaultValue" : 0.0,
                              "interp" : "eioe"
                            },
                            "geometryCrop2" : {
                              "type" : "double",
                              "defaultValue" : 0.0,
                              "interp" : "eioe"
                            },
                            "geometryCrop3" : {
                              "type" : "double",
                              "defaultValue" : 0.0,
                              "interp" : "eioe"
                            },
                            "cursorScale" : {
                              "type" : "double",
                              "defaultValue" : 2.25,
                              "interp" : "linr"
                            },
                            "cursorOpacity" : {
                              "type" : "double",
                              "defaultValue" : 1.0,
                              "interp" : "linr"
                            }
                          },
                          "effects" : [

                          ],
                          "start" : 105816480000,
                          "duration" : 13077120000,
                          "mediaStart" : 76604640000,
                          "mediaDuration" : 13077120000,
                          "scalar" : 1,
                          "animationTracks" : {

                          }
                        },
                    "audio" : 
                        {
                          "id" : 91,
                          "_type" : "AMFile",
                          "src" : 2,
                          "trackNumber" : 1,
                          "attributes" : {
                            "ident" : "",
                            "gain" : 1.0,
                            "mixToMono" : false,
                            "loudnessNormalization" : true,
                            "sourceFileOffset" : 0
                          },
                            "channelNumber" : "0,1",
                          "effects" : [

                          ],
                          "start" : 105816480000,
                          "duration" : 13077120000,
                          "mediaStart" : 76604640000,
                          "mediaDuration" : 13077120000,
                          "scalar" : 1,
                          "animationTracks" : {

                          }
                        }
,
                    "start" : 105816480000,
                    "duration" : 13077120000,
                    "mediaStart" : 0,
                    "mediaDuration" : 139614720000,
                    "scalar" : 1,
                    "metadata" : {
                      "AutoAppliedSmartFocus" : "False",
                      "clipSpeedAttribute" : false
                    }
                  },
                  {
                    "id" : 92,
                    "_type" : "UnifiedMedia",
                    "video" : 
                        {
                          "id" : 93,
                          "_type" : "ScreenVMFile",
                          "src" : 2,
                          "trackNumber" : 0,
                          "attributes" : {
                            "ident" : "Rec 6-06-2023-13-36-48"
                          },
                          "parameters" : {
                            "scale0" : {
                              "type" : "double",
                              "defaultValue" : 0.666666666666667,
                              "interp" : "eioe"
                            },
                            "scale1" : {
                              "type" : "double",
                              "defaultValue" : 0.666666666666667,
                              "interp" : "eioe"
                            },
                            "sourceCrop0" : {
                              "type" : "double",
                              "defaultValue" : 0.0,
                              "interp" : "eioe"
                            },
                            "sourceCrop1" : {
                              "type" : "double",
                              "defaultValue" : 0.0,
                              "interp" : "eioe"
                            },
                            "sourceCrop2" : {
                              "type" : "double",
                              "defaultValue" : 0.0,
                              "interp" : "eioe"
                            },
                            "sourceCrop3" : {
                              "type" : "double",
                              "defaultValue" : 0.0,
                              "interp" : "eioe"
                            },
                            "geometryCrop0" : {
                              "type" : "double",
                              "defaultValue" : 0.0,
                              "interp" : "eioe"
                            },
                            "geometryCrop1" : {
                              "type" : "double",
                              "defaultValue" : 0.0,
                              "interp" : "eioe"
                            },
                            "geometryCrop2" : {
                              "type" : "double",
                              "defaultValue" : 0.0,
                              "interp" : "eioe"
                            },
                            "geometryCrop3" : {
                              "type" : "double",
                              "defaultValue" : 0.0,
                              "interp" : "eioe"
                            },
                            "cursorScale" : {
                              "type" : "double",
                              "defaultValue" : 2.25,
                              "interp" : "linr"
                            },
                            "cursorOpacity" : {
                              "type" : "double",
                              "defaultValue" : 1.0,
                              "interp" : "linr"
                            }
                          },
                          "effects" : [

                          ],
                          "start" : 118893600000,
                          "duration" : 20674080000,
                          "mediaStart" : 90152160000,
                          "mediaDuration" : 20674080000,
                          "scalar" : 1,
                          "animationTracks" : {

                          }
                        },
                    "audio" : 
                        {
                          "id" : 94,
                          "_type" : "AMFile",
                          "src" : 2,
                          "trackNumber" : 1,
                          "attributes" : {
                            "ident" : "",
                            "gain" : 1.0,
                            "mixToMono" : false,
                            "loudnessNormalization" : true,
                            "sourceFileOffset" : 0
                          },
                            "channelNumber" : "0,1",
                          "effects" : [

                          ],
                          "start" : 118893600000,
                          "duration" : 20674080000,
                          "mediaStart" : 90152160000,
                          "mediaDuration" : 20674080000,
                          "scalar" : 1,
                          "animationTracks" : {

                          }
                        }
,
                    "start" : 118893600000,
                    "duration" : 20674080000,
                    "mediaStart" : 0,
                    "mediaDuration" : 139614720000,
                    "scalar" : 1,
                    "metadata" : {
                      "AutoAppliedSmartFocus" : "False",
                      "clipSpeedAttribute" : false
                    }
                  },
                  {
                    "id" : 95,
                    "_type" : "UnifiedMedia",
                    "video" : 
                        {
                          "id" : 96,
                          "_type" : "ScreenVMFile",
                          "src" : 2,
                          "trackNumber" : 0,
                          "attributes" : {
                            "ident" : "Rec 6-06-2023-13-36-48"
                          },
                          "parameters" : {
                            "scale0" : {
                              "type" : "double",
                              "defaultValue" : 0.666666666666667,
                              "interp" : "eioe"
                            },
                            "scale1" : {
                              "type" : "double",
                              "defaultValue" : 0.666666666666667,
                              "interp" : "eioe"
                            },
                            "sourceCrop0" : {
                              "type" : "double",
                              "defaultValue" : 0.0,
                              "interp" : "eioe"
                            },
                            "sourceCrop1" : {
                              "type" : "double",
                              "defaultValue" : 0.0,
                              "interp" : "eioe"
                            },
                            "sourceCrop2" : {
                              "type" : "double",
                              "defaultValue" : 0.0,
                              "interp" : "eioe"
                            },
                            "sourceCrop3" : {
                              "type" : "double",
                              "defaultValue" : 0.0,
                              "interp" : "eioe"
                            },
                            "geometryCrop0" : {
                              "type" : "double",
                              "defaultValue" : 0.0,
                              "interp" : "eioe"
                            },
                            "geometryCrop1" : {
                              "type" : "double",
                              "defaultValue" : 0.0,
                              "interp" : "eioe"
                            },
                            "geometryCrop2" : {
                              "type" : "double",
                              "defaultValue" : 0.0,
                              "interp" : "eioe"
                            },
                            "geometryCrop3" : {
                              "type" : "double",
                              "defaultValue" : 0.0,
                              "interp" : "eioe"
                            },
                            "cursorScale" : {
                              "type" : "double",
                              "defaultValue" : 2.25,
                              "interp" : "linr"
                            },
                            "cursorOpacity" : {
                              "type" : "double",
                              "defaultValue" : 1.0,
                              "interp" : "linr"
                            }
                          },
                          "effects" : [

                          ],
                          "start" : 139567680000,
                          "duration" : 470400000,
                          "mediaStart" : 111414240000,
                          "mediaDuration" : 470400000,
                          "scalar" : 1,
                          "animationTracks" : {

                          }
                        },
                    "audio" : 
                        {
                          "id" : 97,
                          "_type" : "AMFile",
                          "src" : 2,
                          "trackNumber" : 1,
                          "attributes" : {
                            "ident" : "",
                            "gain" : 1.0,
                            "mixToMono" : false,
                            "loudnessNormalization" : true,
                            "sourceFileOffset" : 0
                          },
                            "channelNumber" : "0,1",
                          "effects" : [

                          ],
                          "start" : 139567680000,
                          "duration" : 470400000,
                          "mediaStart" : 111414240000,
                          "mediaDuration" : 470400000,
                          "scalar" : 1,
                          "animationTracks" : {

                          }
                        }
,
                    "start" : 139567680000,
                    "duration" : 470400000,
                    "mediaStart" : 0,
                    "mediaDuration" : 139614720000,
                    "scalar" : 1,
                    "metadata" : {
                      "AutoAppliedSmartFocus" : "False",
                      "clipSpeedAttribute" : false
                    }
                  },
                  {
                    "id" : 98,
                    "_type" : "UnifiedMedia",
                    "video" : 
                        {
                          "id" : 99,
                          "_type" : "ScreenVMFile",
                          "src" : 2,
                          "trackNumber" : 0,
                          "attributes" : {
                            "ident" : "Rec 6-06-2023-13-36-48"
                          },
                          "parameters" : {
                            "scale0" : {
                              "type" : "double",
                              "defaultValue" : 0.666666666666667,
                              "interp" : "eioe"
                            },
                            "scale1" : {
                              "type" : "double",
                              "defaultValue" : 0.666666666666667,
                              "interp" : "eioe"
                            },
                            "sourceCrop0" : {
                              "type" : "double",
                              "defaultValue" : 0.0,
                              "interp" : "eioe"
                            },
                            "sourceCrop1" : {
                              "type" : "double",
                              "defaultValue" : 0.0,
                              "interp" : "eioe"
                            },
                            "sourceCrop2" : {
                              "type" : "double",
                              "defaultValue" : 0.0,
                              "interp" : "eioe"
                            },
                            "sourceCrop3" : {
                              "type" : "double",
                              "defaultValue" : 0.0,
                              "interp" : "eioe"
                            },
                            "geometryCrop0" : {
                              "type" : "double",
                              "defaultValue" : 0.0,
                              "interp" : "eioe"
                            },
                            "geometryCrop1" : {
                              "type" : "double",
                              "defaultValue" : 0.0,
                              "interp" : "eioe"
                            },
                            "geometryCrop2" : {
                              "type" : "double",
                              "defaultValue" : 0.0,
                              "interp" : "eioe"
                            },
                            "geometryCrop3" : {
                              "type" : "double",
                              "defaultValue" : 0.0,
                              "interp" : "eioe"
                            },
                            "cursorScale" : {
                              "type" : "double",
                              "defaultValue" : 2.25,
                              "interp" : "linr"
                            },
                            "cursorOpacity" : {
                              "type" : "double",
                              "defaultValue" : 1.0,
                              "interp" : "linr"
                            }
                          },
                          "effects" : [

                          ],
                          "start" : 140038080000,
                          "duration" : 27236160000,
                          "mediaStart" : 112378560000,
                          "mediaDuration" : 27236160000,
                          "scalar" : 1,
                          "animationTracks" : {

                          }
                        },
                    "audio" : 
                        {
                          "id" : 100,
                          "_type" : "AMFile",
                          "src" : 2,
                          "trackNumber" : 1,
                          "attributes" : {
                            "ident" : "",
                            "gain" : 1.0,
                            "mixToMono" : false,
                            "loudnessNormalization" : true,
                            "sourceFileOffset" : 0
                          },
                            "channelNumber" : "0,1",
                          "effects" : [

                          ],
                          "start" : 140038080000,
                          "duration" : 27236160000,
                          "mediaStart" : 112378560000,
                          "mediaDuration" : 27236160000,
                          "scalar" : 1,
                          "animationTracks" : {

                          }
                        }
,
                    "start" : 140038080000,
                    "duration" : 27236160000,
                    "mediaStart" : 0,
                    "mediaDuration" : 139614720000,
                    "scalar" : 1,
                    "metadata" : {
                      "AutoAppliedSmartFocus" : "False",
                      "clipSpeedAttribute" : false
                    }
                  },
                  {
                    "id" : 101,
                    "_type" : "Callout",
                    "def" : {
                      "kind" : "remix",
                      "shape" : "text",
                      "style" : "basic",
                      "enable-ligatures" : {
                        "type" : "double",
                        "defaultValue" : 1.0,
                        "interp" : "linr"
                      },
                      "height" : {
                        "type" : "double",
                        "defaultValue" : 191.558441558442,
                        "interp" : "linr"
                      },
                      "line-spacing" : {
                        "type" : "double",
                        "defaultValue" : 0.0,
                        "interp" : "linr"
                      },
                      "width" : {
                        "type" : "double",
                        "defaultValue" : 587.012987012987,
                        "interp" : "linr"
                      },
                      "word-wrap" : {
                        "type" : "double",
                        "defaultValue" : 1.0,
                        "interp" : "linr"
                      },
                      "horizontal-alignment" : "center",
                      "resize-behavior" : "resizeText",
                      "text" : "Bir Derse Ait Yoklama Yapısının Oluşturulması",
                      "vertical-alignment" : "center",
                      "font" : {
                        "color-blue" : {
                          "type" : "double",
                          "defaultValue" : 1.0,
                          "interp" : "linr"
                        },
                        "color-green" : {
                          "type" : "double",
                          "defaultValue" : 1.0,
                          "interp" : "linr"
                        },
                        "color-red" : {
                          "type" : "double",
                          "defaultValue" : 1.0,
                          "interp" : "linr"
                        },
                        "size" : {
                          "type" : "double",
                          "defaultValue" : 96.0,
                          "interp" : "linr"
                        },
                        "tracking" : {
                          "type" : "double",
                          "defaultValue" : 0.0,
                          "interp" : "linr"
                        },
                        "name" : "Montserrat",
                        "weight" : "Regular"
                      },
                      "textAttributes" : {
                        "type" : "textAttributeList",
                        "keyframes" : [
                          {
                            "endTime" : 0,
                            "time" : 0,
                            "value" : [{"name":"fontItalic","rangeEnd":50,"rangeStart":0,"value":0,"valueType":"int"},{"name":"fontWeight","rangeEnd":50,"rangeStart":0,"value":400,"valueType":"int"},{"name":"underline","rangeEnd":50,"rangeStart":0,"value":0,"valueType":"int"},{"name":"kerning","rangeEnd":50,"rangeStart":0,"value":0,"valueType":"double"},{"name":"strikethrough","rangeEnd":50,"rangeStart":0,"value":0,"valueType":"int"},{"name":"fontSize","rangeEnd":50,"rangeStart":0,"value":96,"valueType":"double"},{"name":"fontName","rangeEnd":50,"rangeStart":0,"value":"Montserrat","valueType":"string"},{"name":"fgColor","rangeEnd":50,"rangeStart":0,"value":"(255,255,255,255)","valueType":"color"}],
                            "duration" : 0
                          }
                        ]
                      }
                    },
                    "attributes" : {
                      "ident" : "",
                      "autoRotateText" : true
                    },
                    "parameters" : {
                      "sourceCrop0" : {
                        "type" : "double",
                        "defaultValue" : 0.0,
                        "interp" : "eioe"
                      },
                      "sourceCrop1" : {
                        "type" : "double",
                        "defaultValue" : 0.0,
                        "interp" : "eioe"
                      },
                      "sourceCrop2" : {
                        "type" : "double",
                        "defaultValue" : 0.0,
                        "interp" : "eioe"
                      },
                      "sourceCrop3" : {
                        "type" : "double",
                        "defaultValue" : 0.0,
                        "interp" : "eioe"
                      },
                      "geometryCrop0" : {
                        "type" : "double",
                        "defaultValue" : 0.0,
                        "interp" : "eioe"
                      },
                      "geometryCrop1" : {
                        "type" : "double",
                        "defaultValue" : 0.0,
                        "interp" : "eioe"
                      },
                      "geometryCrop2" : {
                        "type" : "double",
                        "defaultValue" : 0.0,
                        "interp" : "eioe"
                      },
                      "geometryCrop3" : {
                        "type" : "double",
                        "defaultValue" : 0.0,
                        "interp" : "eioe"
                      }
                    },
                    "effects" : [

                    ],
                    "start" : 167274240000,
                    "duration" : 1458240000,
                    "mediaStart" : 0,
                    "mediaDuration" : 1458240000,
                    "scalar" : 1,
                    "metadata" : {
                      "clipSpeedAttribute" : false,
                      "default-HAlign" : "center",
                      "default-LineSpace" : 0.0,
                      "default-VAlign" : "center",
                      "default-anchor0" : 0.0,
                      "default-anchor1" : 0.0,
                      "default-anchor2" : 0.0,
                      "default-height" : 250.0,
                      "default-rotation0" : 0.0,
                      "default-rotation1" : 0.0,
                      "default-rotation2" : 0.0,
                      "default-scale0" : 1.0,
                      "default-scale1" : 1.0,
                      "default-scale2" : 1.0,
                      "default-shear0" : 0.0,
                      "default-shear1" : 0.0,
                      "default-shear2" : 0.0,
                      "default-text-attributes" : null,
                      "default-translation0" : 0.0,
                      "default-translation1" : 0.0,
                      "default-translation2" : 0.0,
                      "default-width" : 400.0
                    },
                    "animationTracks" : {

                    }
                  },
                  {
                    "id" : 102,
                    "_type" : "UnifiedMedia",
                    "video" : 
                        {
                          "id" : 103,
                          "_type" : "ScreenVMFile",
                          "src" : 3,
                          "trackNumber" : 0,
                          "attributes" : {
                            "ident" : "Rec 6-06-2023-15-23-42"
                          },
                          "parameters" : {
                            "scale0" : {
                              "type" : "double",
                              "defaultValue" : 0.666666666666667,
                              "interp" : "eioe"
                            },
                            "scale1" : {
                              "type" : "double",
                              "defaultValue" : 0.666666666666667,
                              "interp" : "eioe"
                            },
                            "sourceCrop0" : {
                              "type" : "double",
                              "defaultValue" : 0.0,
                              "interp" : "eioe"
                            },
                            "sourceCrop1" : {
                              "type" : "double",
                              "defaultValue" : 0.0,
                              "interp" : "eioe"
                            },
                            "sourceCrop2" : {
                              "type" : "double",
                              "defaultValue" : 0.0,
                              "interp" : "eioe"
                            },
                            "sourceCrop3" : {
                              "type" : "double",
                              "defaultValue" : 0.0,
                              "interp" : "eioe"
                            },
                            "geometryCrop0" : {
                              "type" : "double",
                              "defaultValue" : 0.0,
                              "interp" : "eioe"
                            },
                            "geometryCrop1" : {
                              "type" : "double",
                              "defaultValue" : 0.0,
                              "interp" : "eioe"
                            },
                            "geometryCrop2" : {
                              "type" : "double",
                              "defaultValue" : 0.0,
                              "interp" : "eioe"
                            },
                            "geometryCrop3" : {
                              "type" : "double",
                              "defaultValue" : 0.0,
                              "interp" : "eioe"
                            },
                            "cursorScale" : {
                              "type" : "double",
                              "defaultValue" : 2.25,
                              "interp" : "linr"
                            },
                            "cursorOpacity" : {
                              "type" : "double",
                              "defaultValue" : 1.0,
                              "interp" : "linr"
                            }
                          },
                          "effects" : [

                          ],
                          "start" : 168732480000,
                          "duration" : 16722720000,
                          "mediaStart" : 4680480000,
                          "mediaDuration" : 16722720000,
                          "scalar" : 1,
                          "animationTracks" : {

                          }
                        },
                    "audio" : 
                        {
                          "id" : 104,
                          "_type" : "AMFile",
                          "src" : 3,
                          "trackNumber" : 1,
                          "attributes" : {
                            "ident" : "",
                            "gain" : 1.0,
                            "mixToMono" : false,
                            "loudnessNormalization" : true,
                            "sourceFileOffset" : 0
                          },
                            "channelNumber" : "0,1",
                          "effects" : [

                          ],
                          "start" : 168732480000,
                          "duration" : 16722720000,
                          "mediaStart" : 4680480000,
                          "mediaDuration" : 16722720000,
                          "scalar" : 1,
                          "animationTracks" : {

                          }
                        }
,
                    "start" : 168732480000,
                    "duration" : 16722720000,
                    "mediaStart" : 0,
                    "mediaDuration" : 106169280000,
                    "scalar" : 1,
                    "metadata" : {
                      "AutoAppliedSmartFocus" : "False",
                      "clipSpeedAttribute" : false
                    }
                  },
                  {
                    "id" : 105,
                    "_type" : "UnifiedMedia",
                    "video" : 
                        {
                          "id" : 106,
                          "_type" : "ScreenVMFile",
                          "src" : 7,
                          "trackNumber" : 0,
                          "attributes" : {
                            "ident" : "Rec 6-06-2023-15-55-31"
                          },
                          "parameters" : {
                            "scale0" : {
                              "type" : "double",
                              "defaultValue" : 0.666666666666667,
                              "interp" : "eioe"
                            },
                            "scale1" : {
                              "type" : "double",
                              "defaultValue" : 0.666666666666667,
                              "interp" : "eioe"
                            },
                            "sourceCrop0" : {
                              "type" : "double",
                              "defaultValue" : 0.0,
                              "interp" : "eioe"
                            },
                            "sourceCrop1" : {
                              "type" : "double",
                              "defaultValue" : 0.0,
                              "interp" : "eioe"
                            },
                            "sourceCrop2" : {
                              "type" : "double",
                              "defaultValue" : 0.0,
                              "interp" : "eioe"
                            },
                            "sourceCrop3" : {
                              "type" : "double",
                              "defaultValue" : 0.0,
                              "interp" : "eioe"
                            },
                            "geometryCrop0" : {
                              "type" : "double",
                              "defaultValue" : 0.0,
                              "interp" : "eioe"
                            },
                            "geometryCrop1" : {
                              "type" : "double",
                              "defaultValue" : 0.0,
                              "interp" : "eioe"
                            },
                            "geometryCrop2" : {
                              "type" : "double",
                              "defaultValue" : 0.0,
                              "interp" : "eioe"
                            },
                            "geometryCrop3" : {
                              "type" : "double",
                              "defaultValue" : 0.0,
                              "interp" : "eioe"
                            },
                            "cursorScale" : {
                              "type" : "double",
                              "defaultValue" : 2.25,
                              "interp" : "linr"
                            },
                            "cursorOpacity" : {
                              "type" : "double",
                              "defaultValue" : 1.0,
                              "interp" : "linr"
                            }
                          },
                          "effects" : [

                          ],
                          "start" : 185455200000,
                          "duration" : 3528000000,
                          "mediaStart" : 1293600000,
                          "mediaDuration" : 3528000000,
                          "scalar" : 1,
                          "animationTracks" : {

                          }
                        },
                    "audio" : 
                        {
                          "id" : 107,
                          "_type" : "AMFile",
                          "src" : 7,
                          "trackNumber" : 1,
                          "attributes" : {
                            "ident" : "",
                            "gain" : 1.0,
                            "mixToMono" : false,
                            "loudnessNormalization" : true,
                            "sourceFileOffset" : 0
                          },
                            "channelNumber" : "0,1",
                          "effects" : [

                          ],
                          "start" : 185455200000,
                          "duration" : 3528000000,
                          "mediaStart" : 1293600000,
                          "mediaDuration" : 3528000000,
                          "scalar" : 1,
                          "animationTracks" : {

                          }
                        }
,
                    "start" : 185455200000,
                    "duration" : 3528000000,
                    "mediaStart" : 0,
                    "mediaDuration" : 29940960000,
                    "scalar" : 1,
                    "metadata" : {
                      "AutoAppliedSmartFocus" : "False",
                      "clipSpeedAttribute" : false
                    }
                  },
                  {
                    "id" : 108,
                    "_type" : "UnifiedMedia",
                    "video" : 
                        {
                          "id" : 109,
                          "_type" : "ScreenVMFile",
                          "src" : 7,
                          "trackNumber" : 0,
                          "attributes" : {
                            "ident" : "Rec 6-06-2023-15-55-31"
                          },
                          "parameters" : {
                            "scale0" : {
                              "type" : "double",
                              "defaultValue" : 0.666666666666667,
                              "interp" : "eioe"
                            },
                            "scale1" : {
                              "type" : "double",
                              "defaultValue" : 0.666666666666667,
                              "interp" : "eioe"
                            },
                            "sourceCrop0" : {
                              "type" : "double",
                              "defaultValue" : 0.0,
                              "interp" : "eioe"
                            },
                            "sourceCrop1" : {
                              "type" : "double",
                              "defaultValue" : 0.0,
                              "interp" : "eioe"
                            },
                            "sourceCrop2" : {
                              "type" : "double",
                              "defaultValue" : 0.0,
                              "interp" : "eioe"
                            },
                            "sourceCrop3" : {
                              "type" : "double",
                              "defaultValue" : 0.0,
                              "interp" : "eioe"
                            },
                            "geometryCrop0" : {
                              "type" : "double",
                              "defaultValue" : 0.0,
                              "interp" : "eioe"
                            },
                            "geometryCrop1" : {
                              "type" : "double",
                              "defaultValue" : 0.0,
                              "interp" : "eioe"
                            },
                            "geometryCrop2" : {
                              "type" : "double",
                              "defaultValue" : 0.0,
                              "interp" : "eioe"
                            },
                            "geometryCrop3" : {
                              "type" : "double",
                              "defaultValue" : 0.0,
                              "interp" : "eioe"
                            },
                            "cursorScale" : {
                              "type" : "double",
                              "defaultValue" : 2.25,
                              "interp" : "linr"
                            },
                            "cursorOpacity" : {
                              "type" : "double",
                              "defaultValue" : 1.0,
                              "interp" : "linr"
                            }
                          },
                          "effects" : [

                          ],
                          "start" : 188983200000,
                          "duration" : 5856480000,
                          "mediaStart" : 5197920000,
                          "mediaDuration" : 5856480000,
                          "scalar" : 1,
                          "animationTracks" : {

                          }
                        },
                    "audio" : 
                        {
                          "id" : 110,
                          "_type" : "AMFile",
                          "src" : 7,
                          "trackNumber" : 1,
                          "attributes" : {
                            "ident" : "",
                            "gain" : 1.0,
                            "mixToMono" : false,
                            "loudnessNormalization" : true,
                            "sourceFileOffset" : 0
                          },
                            "channelNumber" : "0,1",
                          "effects" : [

                          ],
                          "start" : 188983200000,
                          "duration" : 5856480000,
                          "mediaStart" : 5197920000,
                          "mediaDuration" : 5856480000,
                          "scalar" : 1,
                          "animationTracks" : {

                          }
                        }
,
                    "start" : 188983200000,
                    "duration" : 5856480000,
                    "mediaStart" : 0,
                    "mediaDuration" : 29940960000,
                    "scalar" : 1,
                    "metadata" : {
                      "AutoAppliedSmartFocus" : "False",
                      "clipSpeedAttribute" : false
                    }
                  },
                  {
                    "id" : 111,
                    "_type" : "UnifiedMedia",
                    "video" : 
                        {
                          "id" : 112,
                          "_type" : "ScreenVMFile",
                          "src" : 7,
                          "trackNumber" : 0,
                          "attributes" : {
                            "ident" : "Rec 6-06-2023-15-55-31"
                          },
                          "parameters" : {
                            "scale0" : {
                              "type" : "double",
                              "defaultValue" : 0.666666666666667,
                              "interp" : "eioe"
                            },
                            "scale1" : {
                              "type" : "double",
                              "defaultValue" : 0.666666666666667,
                              "interp" : "eioe"
                            },
                            "sourceCrop0" : {
                              "type" : "double",
                              "defaultValue" : 0.0,
                              "interp" : "eioe"
                            },
                            "sourceCrop1" : {
                              "type" : "double",
                              "defaultValue" : 0.0,
                              "interp" : "eioe"
                            },
                            "sourceCrop2" : {
                              "type" : "double",
                              "defaultValue" : 0.0,
                              "interp" : "eioe"
                            },
                            "sourceCrop3" : {
                              "type" : "double",
                              "defaultValue" : 0.0,
                              "interp" : "eioe"
                            },
                            "geometryCrop0" : {
                              "type" : "double",
                              "defaultValue" : 0.0,
                              "interp" : "eioe"
                            },
                            "geometryCrop1" : {
                              "type" : "double",
                              "defaultValue" : 0.0,
                              "interp" : "eioe"
                            },
                            "geometryCrop2" : {
                              "type" : "double",
                              "defaultValue" : 0.0,
                              "interp" : "eioe"
                            },
                            "geometryCrop3" : {
                              "type" : "double",
                              "defaultValue" : 0.0,
                              "interp" : "eioe"
                            },
                            "cursorScale" : {
                              "type" : "double",
                              "defaultValue" : 2.25,
                              "interp" : "linr"
                            },
                            "cursorOpacity" : {
                              "type" : "double",
                              "defaultValue" : 1.0,
                              "interp" : "linr"
                            }
                          },
                          "effects" : [

                          ],
                          "start" : 194839680000,
                          "duration" : 12183360000,
                          "mediaStart" : 11313120000,
                          "mediaDuration" : 12183360000,
                          "scalar" : 1,
                          "animationTracks" : {

                          }
                        },
                    "audio" : 
                        {
                          "id" : 113,
                          "_type" : "AMFile",
                          "src" : 7,
                          "trackNumber" : 1,
                          "attributes" : {
                            "ident" : "",
                            "gain" : 1.0,
                            "mixToMono" : false,
                            "loudnessNormalization" : true,
                            "sourceFileOffset" : 0
                          },
                            "channelNumber" : "0,1",
                          "effects" : [

                          ],
                          "start" : 194839680000,
                          "duration" : 12183360000,
                          "mediaStart" : 11313120000,
                          "mediaDuration" : 12183360000,
                          "scalar" : 1,
                          "animationTracks" : {

                          }
                        }
,
                    "start" : 194839680000,
                    "duration" : 12183360000,
                    "mediaStart" : 0,
                    "mediaDuration" : 29940960000,
                    "scalar" : 1,
                    "metadata" : {
                      "AutoAppliedSmartFocus" : "False",
                      "clipSpeedAttribute" : false
                    }
                  },
                  {
                    "id" : 114,
                    "_type" : "UnifiedMedia",
                    "video" : 
                        {
                          "id" : 115,
                          "_type" : "ScreenVMFile",
                          "src" : 7,
                          "trackNumber" : 0,
                          "attributes" : {
                            "ident" : "Rec 6-06-2023-15-55-31"
                          },
                          "parameters" : {
                            "scale0" : {
                              "type" : "double",
                              "defaultValue" : 0.666666666666667,
                              "interp" : "eioe"
                            },
                            "scale1" : {
                              "type" : "double",
                              "defaultValue" : 0.666666666666667,
                              "interp" : "eioe"
                            },
                            "sourceCrop0" : {
                              "type" : "double",
                              "defaultValue" : 0.0,
                              "interp" : "eioe"
                            },
                            "sourceCrop1" : {
                              "type" : "double",
                              "defaultValue" : 0.0,
                              "interp" : "eioe"
                            },
                            "sourceCrop2" : {
                              "type" : "double",
                              "defaultValue" : 0.0,
                              "interp" : "eioe"
                            },
                            "sourceCrop3" : {
                              "type" : "double",
                              "defaultValue" : 0.0,
                              "interp" : "eioe"
                            },
                            "geometryCrop0" : {
                              "type" : "double",
                              "defaultValue" : 0.0,
                              "interp" : "eioe"
                            },
                            "geometryCrop1" : {
                              "type" : "double",
                              "defaultValue" : 0.0,
                              "interp" : "eioe"
                            },
                            "geometryCrop2" : {
                              "type" : "double",
                              "defaultValue" : 0.0,
                              "interp" : "eioe"
                            },
                            "geometryCrop3" : {
                              "type" : "double",
                              "defaultValue" : 0.0,
                              "interp" : "eioe"
                            },
                            "cursorScale" : {
                              "type" : "double",
                              "defaultValue" : 2.25,
                              "interp" : "linr"
                            },
                            "cursorOpacity" : {
                              "type" : "double",
                              "defaultValue" : 1.0,
                              "interp" : "linr"
                            }
                          },
                          "effects" : [

                          ],
                          "start" : 207023040000,
                          "duration" : 5550720000,
                          "mediaStart" : 24390240000,
                          "mediaDuration" : 5550720000,
                          "scalar" : 1,
                          "animationTracks" : {

                          }
                        },
                    "audio" : 
                        {
                          "id" : 116,
                          "_type" : "AMFile",
                          "src" : 7,
                          "trackNumber" : 1,
                          "attributes" : {
                            "ident" : "",
                            "gain" : 1.0,
                            "mixToMono" : false,
                            "loudnessNormalization" : true,
                            "sourceFileOffset" : 0
                          },
                            "channelNumber" : "0,1",
                          "effects" : [

                          ],
                          "start" : 207023040000,
                          "duration" : 5550720000,
                          "mediaStart" : 24390240000,
                          "mediaDuration" : 5550720000,
                          "scalar" : 1,
                          "animationTracks" : {

                          }
                        }
,
                    "start" : 207023040000,
                    "duration" : 5550720000,
                    "mediaStart" : 0,
                    "mediaDuration" : 29940960000,
                    "scalar" : 1,
                    "metadata" : {
                      "AutoAppliedSmartFocus" : "False",
                      "clipSpeedAttribute" : false
                    }
                  },
                  {
                    "id" : 117,
                    "_type" : "UnifiedMedia",
                    "video" : 
                        {
                          "id" : 118,
                          "_type" : "ScreenVMFile",
                          "src" : 3,
                          "trackNumber" : 0,
                          "attributes" : {
                            "ident" : "Rec 6-06-2023-15-23-42"
                          },
                          "parameters" : {
                            "scale0" : {
                              "type" : "double",
                              "defaultValue" : 0.666666666666667,
                              "interp" : "eioe"
                            },
                            "scale1" : {
                              "type" : "double",
                              "defaultValue" : 0.666666666666667,
                              "interp" : "eioe"
                            },
                            "sourceCrop0" : {
                              "type" : "double",
                              "defaultValue" : 0.0,
                              "interp" : "eioe"
                            },
                            "sourceCrop1" : {
                              "type" : "double",
                              "defaultValue" : 0.0,
                              "interp" : "eioe"
                            },
                            "sourceCrop2" : {
                              "type" : "double",
                              "defaultValue" : 0.0,
                              "interp" : "eioe"
                            },
                            "sourceCrop3" : {
                              "type" : "double",
                              "defaultValue" : 0.0,
                              "interp" : "eioe"
                            },
                            "geometryCrop0" : {
                              "type" : "double",
                              "defaultValue" : 0.0,
                              "interp" : "eioe"
                            },
                            "geometryCrop1" : {
                              "type" : "double",
                              "defaultValue" : 0.0,
                              "interp" : "eioe"
                            },
                            "geometryCrop2" : {
                              "type" : "double",
                              "defaultValue" : 0.0,
                              "interp" : "eioe"
                            },
                            "geometryCrop3" : {
                              "type" : "double",
                              "defaultValue" : 0.0,
                              "interp" : "eioe"
                            },
                            "cursorScale" : {
                              "type" : "double",
                              "defaultValue" : 2.25,
                              "interp" : "linr"
                            },
                            "cursorOpacity" : {
                              "type" : "double",
                              "defaultValue" : 1.0,
                              "interp" : "linr"
                            }
                          },
                          "effects" : [

                          ],
                          "start" : 212573760000,
                          "duration" : 8890560000,
                          "mediaStart" : 47322240000,
                          "mediaDuration" : 8890560000,
                          "scalar" : 1,
                          "animationTracks" : {

                          }
                        },
                    "audio" : 
                        {
                          "id" : 119,
                          "_type" : "AMFile",
                          "src" : 3,
                          "trackNumber" : 1,
                          "attributes" : {
                            "ident" : "",
                            "gain" : 1.0,
                            "mixToMono" : false,
                            "loudnessNormalization" : true,
                            "sourceFileOffset" : 0
                          },
                            "channelNumber" : "0,1",
                          "effects" : [

                          ],
                          "start" : 212573760000,
                          "duration" : 8890560000,
                          "mediaStart" : 47322240000,
                          "mediaDuration" : 8890560000,
                          "scalar" : 1,
                          "animationTracks" : {

                          }
                        }
,
                    "start" : 212573760000,
                    "duration" : 8890560000,
                    "mediaStart" : 0,
                    "mediaDuration" : 106169280000,
                    "scalar" : 1,
                    "metadata" : {
                      "AutoAppliedSmartFocus" : "False",
                      "clipSpeedAttribute" : false
                    }
                  },
                  {
                    "id" : 120,
                    "_type" : "UnifiedMedia",
                    "video" : 
                        {
                          "id" : 121,
                          "_type" : "ScreenVMFile",
                          "src" : 4,
                          "trackNumber" : 0,
                          "attributes" : {
                            "ident" : "Rec 6-06-2023-15-32-40"
                          },
                          "parameters" : {
                            "scale0" : {
                              "type" : "double",
                              "defaultValue" : 0.666666666666667,
                              "interp" : "eioe"
                            },
                            "scale1" : {
                              "type" : "double",
                              "defaultValue" : 0.666666666666667,
                              "interp" : "eioe"
                            },
                            "sourceCrop0" : {
                              "type" : "double",
                              "defaultValue" : 0.0,
                              "interp" : "eioe"
                            },
                            "sourceCrop1" : {
                              "type" : "double",
                              "defaultValue" : 0.0,
                              "interp" : "eioe"
                            },
                            "sourceCrop2" : {
                              "type" : "double",
                              "defaultValue" : 0.0,
                              "interp" : "eioe"
                            },
                            "sourceCrop3" : {
                              "type" : "double",
                              "defaultValue" : 0.0,
                              "interp" : "eioe"
                            },
                            "geometryCrop0" : {
                              "type" : "double",
                              "defaultValue" : 0.0,
                              "interp" : "eioe"
                            },
                            "geometryCrop1" : {
                              "type" : "double",
                              "defaultValue" : 0.0,
                              "interp" : "eioe"
                            },
                            "geometryCrop2" : {
                              "type" : "double",
                              "defaultValue" : 0.0,
                              "interp" : "eioe"
                            },
                            "geometryCrop3" : {
                              "type" : "double",
                              "defaultValue" : 0.0,
                              "interp" : "eioe"
                            },
                            "cursorScale" : {
                              "type" : "double",
                              "defaultValue" : 2.25,
                              "interp" : "linr"
                            },
                            "cursorOpacity" : {
                              "type" : "double",
                              "defaultValue" : 1.0,
                              "interp" : "linr"
                            }
                          },
                          "effects" : [

                          ],
                          "start" : 221464320000,
                          "duration" : 18392640000,
                          "mediaStart" : 1270080000,
                          "mediaDuration" : 18392640000,
                          "scalar" : 1,
                          "animationTracks" : {

                          }
                        },
                    "audio" : 
                        {
                          "id" : 122,
                          "_type" : "AMFile",
                          "src" : 4,
                          "trackNumber" : 1,
                          "attributes" : {
                            "ident" : "",
                            "gain" : 1.0,
                            "mixToMono" : false,
                            "loudnessNormalization" : true,
                            "sourceFileOffset" : 0
                          },
                            "channelNumber" : "0,1",
                          "effects" : [

                          ],
                          "start" : 221464320000,
                          "duration" : 18392640000,
                          "mediaStart" : 1270080000,
                          "mediaDuration" : 18392640000,
                          "scalar" : 1,
                          "animationTracks" : {

                          }
                        }
,
                    "start" : 221464320000,
                    "duration" : 18392640000,
                    "mediaStart" : 0,
                    "mediaDuration" : 20086080000,
                    "scalar" : 1,
                    "metadata" : {
                      "AutoAppliedSmartFocus" : "False",
                      "clipSpeedAttribute" : false
                    }
                  },
                  {
                    "id" : 123,
                    "_type" : "Callout",
                    "def" : {
                      "kind" : "remix",
                      "shape" : "text",
                      "style" : "basic",
                      "enable-ligatures" : {
                        "type" : "double",
                        "defaultValue" : 1.0,
                        "interp" : "linr"
                      },
                      "height" : {
                        "type" : "double",
                        "defaultValue" : 191.558441558442,
                        "interp" : "linr"
                      },
                      "line-spacing" : {
                        "type" : "double",
                        "defaultValue" : 0.0,
                        "interp" : "linr"
                      },
                      "width" : {
                        "type" : "double",
                        "defaultValue" : 587.012987012987,
                        "interp" : "linr"
                      },
                      "word-wrap" : {
                        "type" : "double",
                        "defaultValue" : 1.0,
                        "interp" : "linr"
                      },
                      "horizontal-alignment" : "center",
                      "resize-behavior" : "resizeText",
                      "text" : "Örnek bir Yoklama Senaryosu ",
                      "vertical-alignment" : "center",
                      "font" : {
                        "color-blue" : {
                          "type" : "double",
                          "defaultValue" : 1.0,
                          "interp" : "linr"
                        },
                        "color-green" : {
                          "type" : "double",
                          "defaultValue" : 1.0,
                          "interp" : "linr"
                        },
                        "color-red" : {
                          "type" : "double",
                          "defaultValue" : 1.0,
                          "interp" : "linr"
                        },
                        "size" : {
                          "type" : "double",
                          "defaultValue" : 96.0,
                          "interp" : "linr"
                        },
                        "tracking" : {
                          "type" : "double",
                          "defaultValue" : 0.0,
                          "interp" : "linr"
                        },
                        "name" : "Montserrat",
                        "weight" : "Regular"
                      },
                      "textAttributes" : {
                        "type" : "textAttributeList",
                        "keyframes" : [
                          {
                            "endTime" : 0,
                            "time" : 0,
                            "value" : [{"name":"kerning","rangeEnd":29,"rangeStart":0,"value":0,"valueType":"double"},{"name":"fgColor","rangeEnd":29,"rangeStart":0,"value":"(255,255,255,255)","valueType":"color"},{"name":"fontName","rangeEnd":29,"rangeStart":0,"value":"Montserrat","valueType":"string"},{"name":"fontItalic","rangeEnd":29,"rangeStart":0,"value":0,"valueType":"int"},{"name":"strikethrough","rangeEnd":29,"rangeStart":0,"value":0,"valueType":"int"},{"name":"fontWeight","rangeEnd":29,"rangeStart":0,"value":400,"valueType":"int"},{"name":"fontSize","rangeEnd":29,"rangeStart":0,"value":96,"valueType":"double"},{"name":"underline","rangeEnd":29,"rangeStart":0,"value":0,"valueType":"int"}],
                            "duration" : 0
                          }
                        ]
                      }
                    },
                    "attributes" : {
                      "ident" : "",
                      "autoRotateText" : true
                    },
                    "parameters" : {
                      "sourceCrop0" : {
                        "type" : "double",
                        "defaultValue" : 0.0,
                        "interp" : "eioe"
                      },
                      "sourceCrop1" : {
                        "type" : "double",
                        "defaultValue" : 0.0,
                        "interp" : "eioe"
                      },
                      "sourceCrop2" : {
                        "type" : "double",
                        "defaultValue" : 0.0,
                        "interp" : "eioe"
                      },
                      "sourceCrop3" : {
                        "type" : "double",
                        "defaultValue" : 0.0,
                        "interp" : "eioe"
                      },
                      "geometryCrop0" : {
                        "type" : "double",
                        "defaultValue" : 0.0,
                        "interp" : "eioe"
                      },
                      "geometryCrop1" : {
                        "type" : "double",
                        "defaultValue" : 0.0,
                        "interp" : "eioe"
                      },
                      "geometryCrop2" : {
                        "type" : "double",
                        "defaultValue" : 0.0,
                        "interp" : "eioe"
                      },
                      "geometryCrop3" : {
                        "type" : "double",
                        "defaultValue" : 0.0,
                        "interp" : "eioe"
                      }
                    },
                    "effects" : [

                    ],
                    "start" : 239856960000,
                    "duration" : 1458240000,
                    "mediaStart" : 0,
                    "mediaDuration" : 1458240000,
                    "scalar" : 1,
                    "metadata" : {
                      "clipSpeedAttribute" : false,
                      "default-HAlign" : "center",
                      "default-LineSpace" : 0.0,
                      "default-VAlign" : "center",
                      "default-anchor0" : 0.0,
                      "default-anchor1" : 0.0,
                      "default-anchor2" : 0.0,
                      "default-height" : 250.0,
                      "default-rotation0" : 0.0,
                      "default-rotation1" : 0.0,
                      "default-rotation2" : 0.0,
                      "default-scale0" : 1.0,
                      "default-scale1" : 1.0,
                      "default-scale2" : 1.0,
                      "default-shear0" : 0.0,
                      "default-shear1" : 0.0,
                      "default-shear2" : 0.0,
                      "default-text-attributes" : null,
                      "default-translation0" : 0.0,
                      "default-translation1" : 0.0,
                      "default-translation2" : 0.0,
                      "default-width" : 400.0
                    },
                    "animationTracks" : {

                    }
                  },
                  {
                    "id" : 124,
                    "_type" : "UnifiedMedia",
                    "video" : 
                        {
                          "id" : 125,
                          "_type" : "ScreenVMFile",
                          "src" : 8,
                          "trackNumber" : 0,
                          "attributes" : {
                            "ident" : "Rec 6-06-2023-16-00-40"
                          },
                          "parameters" : {
                            "scale0" : {
                              "type" : "double",
                              "defaultValue" : 0.666666666666667,
                              "interp" : "eioe"
                            },
                            "scale1" : {
                              "type" : "double",
                              "defaultValue" : 0.666666666666667,
                              "interp" : "eioe"
                            },
                            "sourceCrop0" : {
                              "type" : "double",
                              "defaultValue" : 0.0,
                              "interp" : "eioe"
                            },
                            "sourceCrop1" : {
                              "type" : "double",
                              "defaultValue" : 0.0,
                              "interp" : "eioe"
                            },
                            "sourceCrop2" : {
                              "type" : "double",
                              "defaultValue" : 0.0,
                              "interp" : "eioe"
                            },
                            "sourceCrop3" : {
                              "type" : "double",
                              "defaultValue" : 0.0,
                              "interp" : "eioe"
                            },
                            "geometryCrop0" : {
                              "type" : "double",
                              "defaultValue" : 0.0,
                              "interp" : "eioe"
                            },
                            "geometryCrop1" : {
                              "type" : "double",
                              "defaultValue" : 0.0,
                              "interp" : "eioe"
                            },
                            "geometryCrop2" : {
                              "type" : "double",
                              "defaultValue" : 0.0,
                              "interp" : "eioe"
                            },
                            "geometryCrop3" : {
                              "type" : "double",
                              "defaultValue" : 0.0,
                              "interp" : "eioe"
                            },
                            "cursorScale" : {
                              "type" : "double",
                              "defaultValue" : 2.25,
                              "interp" : "linr"
                            },
                            "cursorOpacity" : {
                              "type" : "double",
                              "defaultValue" : 1.0,
                              "interp" : "linr"
                            }
                          },
                          "effects" : [

                          ],
                          "start" : 241315200000,
                          "duration" : 8255520000,
                          "mediaStart" : 846720000,
                          "mediaDuration" : 8255520000,
                          "scalar" : 1,
                          "animationTracks" : {

                          }
                        },
                    "audio" : 
                        {
                          "id" : 126,
                          "_type" : "AMFile",
                          "src" : 8,
                          "trackNumber" : 1,
                          "attributes" : {
                            "ident" : "",
                            "gain" : 1.0,
                            "mixToMono" : false,
                            "loudnessNormalization" : true,
                            "sourceFileOffset" : 0
                          },
                            "channelNumber" : "0,1",
                          "effects" : [

                          ],
                          "start" : 241315200000,
                          "duration" : 8255520000,
                          "mediaStart" : 846720000,
                          "mediaDuration" : 8255520000,
                          "scalar" : 1,
                          "animationTracks" : {

                          }
                        }
,
                    "start" : 241315200000,
                    "duration" : 8255520000,
                    "mediaStart" : 0,
                    "mediaDuration" : 21803040000,
                    "scalar" : 1,
                    "metadata" : {
                      "AutoAppliedSmartFocus" : "False",
                      "clipSpeedAttribute" : false
                    }
                  },
                  {
                    "id" : 127,
                    "_type" : "UnifiedMedia",
                    "video" : 
                        {
                          "id" : 128,
                          "_type" : "ScreenVMFile",
                          "src" : 8,
                          "trackNumber" : 0,
                          "attributes" : {
                            "ident" : "Rec 6-06-2023-16-00-40"
                          },
                          "parameters" : {
                            "scale0" : {
                              "type" : "double",
                              "defaultValue" : 0.666666666666667,
                              "interp" : "eioe"
                            },
                            "scale1" : {
                              "type" : "double",
                              "defaultValue" : 0.666666666666667,
                              "interp" : "eioe"
                            },
                            "sourceCrop0" : {
                              "type" : "double",
                              "defaultValue" : 0.0,
                              "interp" : "eioe"
                            },
                            "sourceCrop1" : {
                              "type" : "double",
                              "defaultValue" : 0.0,
                              "interp" : "eioe"
                            },
                            "sourceCrop2" : {
                              "type" : "double",
                              "defaultValue" : 0.0,
                              "interp" : "eioe"
                            },
                            "sourceCrop3" : {
                              "type" : "double",
                              "defaultValue" : 0.0,
                              "interp" : "eioe"
                            },
                            "geometryCrop0" : {
                              "type" : "double",
                              "defaultValue" : 0.0,
                              "interp" : "eioe"
                            },
                            "geometryCrop1" : {
                              "type" : "double",
                              "defaultValue" : 0.0,
                              "interp" : "eioe"
                            },
                            "geometryCrop2" : {
                              "type" : "double",
                              "defaultValue" : 0.0,
                              "interp" : "eioe"
                            },
                            "geometryCrop3" : {
                              "type" : "double",
                              "defaultValue" : 0.0,
                              "interp" : "eioe"
                            },
                            "cursorScale" : {
                              "type" : "double",
                              "defaultValue" : 2.25,
                              "interp" : "linr"
                            },
                            "cursorOpacity" : {
                              "type" : "double",
                              "defaultValue" : 1.0,
                              "interp" : "linr"
                            }
                          },
                          "effects" : [

                          ],
                          "start" : 249570720000,
                          "duration" : 188160000,
                          "mediaStart" : 6679680000,
                          "mediaDuration" : 188160000,
                          "scalar" : 1,
                          "animationTracks" : {

                          }
                        },
                    "audio" : 
                        {
                          "id" : 129,
                          "_type" : "AMFile",
                          "src" : 8,
                          "trackNumber" : 1,
                          "attributes" : {
                            "ident" : "",
                            "gain" : 1.0,
                            "mixToMono" : false,
                            "loudnessNormalization" : true,
                            "sourceFileOffset" : 0
                          },
                            "channelNumber" : "0,1",
                          "effects" : [

                          ],
                          "start" : 249570720000,
                          "duration" : 188160000,
                          "mediaStart" : 6679680000,
                          "mediaDuration" : 188160000,
                          "scalar" : 1,
                          "animationTracks" : {

                          }
                        }
,
                    "start" : 249570720000,
                    "duration" : 188160000,
                    "mediaStart" : 0,
                    "mediaDuration" : 21803040000,
                    "scalar" : 1,
                    "metadata" : {
                      "AutoAppliedSmartFocus" : "False",
                      "clipSpeedAttribute" : false
                    }
                  },
                  {
                    "id" : 130,
                    "_type" : "UnifiedMedia",
                    "video" : 
                        {
                          "id" : 131,
                          "_type" : "ScreenVMFile",
                          "src" : 8,
                          "trackNumber" : 0,
                          "attributes" : {
                            "ident" : "Rec 6-06-2023-16-00-40"
                          },
                          "parameters" : {
                            "scale0" : {
                              "type" : "double",
                              "defaultValue" : 0.666666666666667,
                              "interp" : "eioe"
                            },
                            "scale1" : {
                              "type" : "double",
                              "defaultValue" : 0.666666666666667,
                              "interp" : "eioe"
                            },
                            "sourceCrop0" : {
                              "type" : "double",
                              "defaultValue" : 0.0,
                              "interp" : "eioe"
                            },
                            "sourceCrop1" : {
                              "type" : "double",
                              "defaultValue" : 0.0,
                              "interp" : "eioe"
                            },
                            "sourceCrop2" : {
                              "type" : "double",
                              "defaultValue" : 0.0,
                              "interp" : "eioe"
                            },
                            "sourceCrop3" : {
                              "type" : "double",
                              "defaultValue" : 0.0,
                              "interp" : "eioe"
                            },
                            "geometryCrop0" : {
                              "type" : "double",
                              "defaultValue" : 0.0,
                              "interp" : "eioe"
                            },
                            "geometryCrop1" : {
                              "type" : "double",
                              "defaultValue" : 0.0,
                              "interp" : "eioe"
                            },
                            "geometryCrop2" : {
                              "type" : "double",
                              "defaultValue" : 0.0,
                              "interp" : "eioe"
                            },
                            "geometryCrop3" : {
                              "type" : "double",
                              "defaultValue" : 0.0,
                              "interp" : "eioe"
                            },
                            "cursorScale" : {
                              "type" : "double",
                              "defaultValue" : 2.25,
                              "interp" : "linr"
                            },
                            "cursorOpacity" : {
                              "type" : "double",
                              "defaultValue" : 1.0,
                              "interp" : "linr"
                            }
                          },
                          "effects" : [

                          ],
                          "start" : 249758880000,
                          "duration" : 8537760000,
                          "mediaStart" : 9125760000,
                          "mediaDuration" : 8537760000,
                          "scalar" : 1,
                          "animationTracks" : {

                          }
                        },
                    "audio" : 
                        {
                          "id" : 132,
                          "_type" : "AMFile",
                          "src" : 8,
                          "trackNumber" : 1,
                          "attributes" : {
                            "ident" : "",
                            "gain" : 1.0,
                            "mixToMono" : false,
                            "loudnessNormalization" : true,
                            "sourceFileOffset" : 0
                          },
                            "channelNumber" : "0,1",
                          "effects" : [

                          ],
                          "start" : 249758880000,
                          "duration" : 8537760000,
                          "mediaStart" : 9125760000,
                          "mediaDuration" : 8537760000,
                          "scalar" : 1,
                          "animationTracks" : {

                          }
                        }
,
                    "start" : 249758880000,
                    "duration" : 8537760000,
                    "mediaStart" : 0,
                    "mediaDuration" : 21803040000,
                    "scalar" : 1,
                    "metadata" : {
                      "AutoAppliedSmartFocus" : "False",
                      "clipSpeedAttribute" : false
                    }
                  },
                  {
                    "id" : 133,
                    "_type" : "UnifiedMedia",
                    "video" : 
                        {
                          "id" : 134,
                          "_type" : "ScreenVMFile",
                          "src" : 8,
                          "trackNumber" : 0,
                          "attributes" : {
                            "ident" : "Rec 6-06-2023-16-00-40"
                          },
                          "parameters" : {
                            "scale0" : {
                              "type" : "double",
                              "defaultValue" : 0.666666666666667,
                              "interp" : "eioe"
                            },
                            "scale1" : {
                              "type" : "double",
                              "defaultValue" : 0.666666666666667,
                              "interp" : "eioe"
                            },
                            "sourceCrop0" : {
                              "type" : "double",
                              "defaultValue" : 0.0,
                              "interp" : "eioe"
                            },
                            "sourceCrop1" : {
                              "type" : "double",
                              "defaultValue" : 0.0,
                              "interp" : "eioe"
                            },
                            "sourceCrop2" : {
                              "type" : "double",
                              "defaultValue" : 0.0,
                              "interp" : "eioe"
                            },
                            "sourceCrop3" : {
                              "type" : "double",
                              "defaultValue" : 0.0,
                              "interp" : "eioe"
                            },
                            "geometryCrop0" : {
                              "type" : "double",
                              "defaultValue" : 0.0,
                              "interp" : "eioe"
                            },
                            "geometryCrop1" : {
                              "type" : "double",
                              "defaultValue" : 0.0,
                              "interp" : "eioe"
                            },
                            "geometryCrop2" : {
                              "type" : "double",
                              "defaultValue" : 0.0,
                              "interp" : "eioe"
                            },
                            "geometryCrop3" : {
                              "type" : "double",
                              "defaultValue" : 0.0,
                              "interp" : "eioe"
                            },
                            "cursorScale" : {
                              "type" : "double",
                              "defaultValue" : 2.25,
                              "interp" : "linr"
                            },
                            "cursorOpacity" : {
                              "type" : "double",
                              "defaultValue" : 1.0,
                              "interp" : "linr"
                            }
                          },
                          "effects" : [

                          ],
                          "start" : 258296640000,
                          "duration" : 3480960000,
                          "mediaStart" : 14182560000,
                          "mediaDuration" : 3480960000,
                          "scalar" : 1,
                          "animationTracks" : {

                          }
                        },
                    "audio" : 
                        {
                          "id" : 135,
                          "_type" : "AMFile",
                          "src" : 8,
                          "trackNumber" : 1,
                          "attributes" : {
                            "ident" : "",
                            "gain" : 1.0,
                            "mixToMono" : false,
                            "loudnessNormalization" : true,
                            "sourceFileOffset" : 0
                          },
                            "channelNumber" : "0,1",
                          "parameters" : {
                            "volume" : 0.0
                          },
                          "effects" : [

                          ],
                          "start" : 258296640000,
                          "duration" : 3480960000,
                          "mediaStart" : 14182560000,
                          "mediaDuration" : 3480960000,
                          "scalar" : 1,
                          "animationTracks" : {

                          }
                        }
,
                    "start" : 258296640000,
                    "duration" : 3480960000,
                    "mediaStart" : 0,
                    "mediaDuration" : 21803040000,
                    "scalar" : 1,
                    "metadata" : {
                      "AutoAppliedSmartFocus" : "False",
                      "clipSpeedAttribute" : false
                    }
                  },
                  {
                    "id" : 136,
                    "_type" : "UnifiedMedia",
                    "video" : 
                        {
                          "id" : 137,
                          "_type" : "ScreenVMFile",
                          "src" : 9,
                          "trackNumber" : 0,
                          "attributes" : {
                            "ident" : "Rec 6-06-2023-16-03-15"
                          },
                          "parameters" : {
                            "scale0" : {
                              "type" : "double",
                              "defaultValue" : 0.666666666666667,
                              "interp" : "eioe"
                            },
                            "scale1" : {
                              "type" : "double",
                              "defaultValue" : 0.666666666666667,
                              "interp" : "eioe"
                            },
                            "sourceCrop0" : {
                              "type" : "double",
                              "defaultValue" : 0.0,
                              "interp" : "eioe"
                            },
                            "sourceCrop1" : {
                              "type" : "double",
                              "defaultValue" : 0.0,
                              "interp" : "eioe"
                            },
                            "sourceCrop2" : {
                              "type" : "double",
                              "defaultValue" : 0.0,
                              "interp" : "eioe"
                            },
                            "sourceCrop3" : {
                              "type" : "double",
                              "defaultValue" : 0.0,
                              "interp" : "eioe"
                            },
                            "geometryCrop0" : {
                              "type" : "double",
                              "defaultValue" : 0.0,
                              "interp" : "eioe"
                            },
                            "geometryCrop1" : {
                              "type" : "double",
                              "defaultValue" : 0.0,
                              "interp" : "eioe"
                            },
                            "geometryCrop2" : {
                              "type" : "double",
                              "defaultValue" : 0.0,
                              "interp" : "eioe"
                            },
                            "geometryCrop3" : {
                              "type" : "double",
                              "defaultValue" : 0.0,
                              "interp" : "eioe"
                            },
                            "cursorScale" : {
                              "type" : "double",
                              "defaultValue" : 2.25,
                              "interp" : "linr"
                            },
                            "cursorOpacity" : {
                              "type" : "double",
                              "defaultValue" : 1.0,
                              "interp" : "linr"
                            }
                          },
                          "effects" : [

                          ],
                          "start" : 261777600000,
                          "duration" : 3786720000,
                          "mediaStart" : 4398240000,
                          "mediaDuration" : 3786720000,
                          "scalar" : 1,
                          "animationTracks" : {

                          }
                        },
                    "audio" : 
                        {
                          "id" : 138,
                          "_type" : "AMFile",
                          "src" : 9,
                          "trackNumber" : 1,
                          "attributes" : {
                            "ident" : "",
                            "gain" : 1.0,
                            "mixToMono" : false,
                            "loudnessNormalization" : true,
                            "sourceFileOffset" : 0
                          },
                            "channelNumber" : "0,1",
                          "effects" : [

                          ],
                          "start" : 261777600000,
                          "duration" : 3786720000,
                          "mediaStart" : 4398240000,
                          "mediaDuration" : 3786720000,
                          "scalar" : 1,
                          "animationTracks" : {

                          }
                        }
,
                    "start" : 261777600000,
                    "duration" : 3786720000,
                    "mediaStart" : 0,
                    "mediaDuration" : 10019520000,
                    "scalar" : 1,
                    "metadata" : {
                      "AutoAppliedSmartFocus" : "False",
                      "clipSpeedAttribute" : false
                    }
                  },
                  {
                    "id" : 139,
                    "_type" : "UnifiedMedia",
                    "video" : 
                        {
                          "id" : 140,
                          "_type" : "ScreenVMFile",
                          "src" : 9,
                          "trackNumber" : 0,
                          "attributes" : {
                            "ident" : "Rec 6-06-2023-16-03-15"
                          },
                          "parameters" : {
                            "scale0" : {
                              "type" : "double",
                              "defaultValue" : 0.666666666666667,
                              "interp" : "eioe"
                            },
                            "scale1" : {
                              "type" : "double",
                              "defaultValue" : 0.666666666666667,
                              "interp" : "eioe"
                            },
                            "sourceCrop0" : {
                              "type" : "double",
                              "defaultValue" : 0.0,
                              "interp" : "eioe"
                            },
                            "sourceCrop1" : {
                              "type" : "double",
                              "defaultValue" : 0.0,
                              "interp" : "eioe"
                            },
                            "sourceCrop2" : {
                              "type" : "double",
                              "defaultValue" : 0.0,
                              "interp" : "eioe"
                            },
                            "sourceCrop3" : {
                              "type" : "double",
                              "defaultValue" : 0.0,
                              "interp" : "eioe"
                            },
                            "geometryCrop0" : {
                              "type" : "double",
                              "defaultValue" : 0.0,
                              "interp" : "eioe"
                            },
                            "geometryCrop1" : {
                              "type" : "double",
                              "defaultValue" : 0.0,
                              "interp" : "eioe"
                            },
                            "geometryCrop2" : {
                              "type" : "double",
                              "defaultValue" : 0.0,
                              "interp" : "eioe"
                            },
                            "geometryCrop3" : {
                              "type" : "double",
                              "defaultValue" : 0.0,
                              "interp" : "eioe"
                            },
                            "cursorScale" : {
                              "type" : "double",
                              "defaultValue" : 2.25,
                              "interp" : "linr"
                            },
                            "cursorOpacity" : {
                              "type" : "double",
                              "defaultValue" : 1.0,
                              "interp" : "linr"
                            }
                          },
                          "effects" : [

                          ],
                          "start" : 265564320000,
                          "duration" : 1552320000,
                          "mediaStart" : 8467200000,
                          "mediaDuration" : 1552320000,
                          "scalar" : 1,
                          "animationTracks" : {

                          }
                        },
                    "audio" : 
                        {
                          "id" : 141,
                          "_type" : "AMFile",
                          "src" : 9,
                          "trackNumber" : 1,
                          "attributes" : {
                            "ident" : "",
                            "gain" : 1.0,
                            "mixToMono" : false,
                            "loudnessNormalization" : true,
                            "sourceFileOffset" : 0
                          },
                            "channelNumber" : "0,1",
                          "effects" : [

                          ],
                          "start" : 265564320000,
                          "duration" : 1552320000,
                          "mediaStart" : 8467200000,
                          "mediaDuration" : 1552320000,
                          "scalar" : 1,
                          "animationTracks" : {

                          }
                        }
,
                    "start" : 265564320000,
                    "duration" : 1552320000,
                    "mediaStart" : 0,
                    "mediaDuration" : 10019520000,
                    "scalar" : 1,
                    "metadata" : {
                      "AutoAppliedSmartFocus" : "False",
                      "clipSpeedAttribute" : false
                    }
                  },
                  {
                    "id" : 142,
                    "_type" : "UnifiedMedia",
                    "video" : 
                        {
                          "id" : 143,
                          "_type" : "ScreenVMFile",
                          "src" : 12,
                          "trackNumber" : 0,
                          "attributes" : {
                            "ident" : "Rec 6-06-2023-16-16-39"
                          },
                          "parameters" : {
                            "scale0" : {
                              "type" : "double",
                              "defaultValue" : 0.666666666666667,
                              "interp" : "eioe"
                            },
                            "scale1" : {
                              "type" : "double",
                              "defaultValue" : 0.666666666666667,
                              "interp" : "eioe"
                            },
                            "sourceCrop0" : {
                              "type" : "double",
                              "defaultValue" : 0.0,
                              "interp" : "eioe"
                            },
                            "sourceCrop1" : {
                              "type" : "double",
                              "defaultValue" : 0.0,
                              "interp" : "eioe"
                            },
                            "sourceCrop2" : {
                              "type" : "double",
                              "defaultValue" : 0.0,
                              "interp" : "eioe"
                            },
                            "sourceCrop3" : {
                              "type" : "double",
                              "defaultValue" : 0.0,
                              "interp" : "eioe"
                            },
                            "geometryCrop0" : {
                              "type" : "double",
                              "defaultValue" : 0.0,
                              "interp" : "eioe"
                            },
                            "geometryCrop1" : {
                              "type" : "double",
                              "defaultValue" : 0.0,
                              "interp" : "eioe"
                            },
                            "geometryCrop2" : {
                              "type" : "double",
                              "defaultValue" : 0.0,
                              "interp" : "eioe"
                            },
                            "geometryCrop3" : {
                              "type" : "double",
                              "defaultValue" : 0.0,
                              "interp" : "eioe"
                            },
                            "cursorScale" : {
                              "type" : "double",
                              "defaultValue" : 2.25,
                              "interp" : "linr"
                            },
                            "cursorOpacity" : {
                              "type" : "double",
                              "defaultValue" : 1.0,
                              "interp" : "linr"
                            }
                          },
                          "effects" : [

                          ],
                          "start" : 267116640000,
                          "duration" : 7573440000,
                          "mediaStart" : 1058400000,
                          "mediaDuration" : 7573440000,
                          "scalar" : 1,
                          "animationTracks" : {

                          }
                        },
                    "audio" : 
                        {
                          "id" : 144,
                          "_type" : "AMFile",
                          "src" : 12,
                          "trackNumber" : 1,
                          "attributes" : {
                            "ident" : "",
                            "gain" : 1.0,
                            "mixToMono" : false,
                            "loudnessNormalization" : true,
                            "sourceFileOffset" : 0
                          },
                            "channelNumber" : "0,1",
                          "effects" : [

                          ],
                          "start" : 267116640000,
                          "duration" : 7573440000,
                          "mediaStart" : 1058400000,
                          "mediaDuration" : 7573440000,
                          "scalar" : 1,
                          "animationTracks" : {

                          }
                        }
,
                    "start" : 267116640000,
                    "duration" : 7573440000,
                    "mediaStart" : 0,
                    "mediaDuration" : 34056960000,
                    "scalar" : 1,
                    "metadata" : {
                      "AutoAppliedSmartFocus" : "False",
                      "clipSpeedAttribute" : false
                    }
                  },
                  {
                    "id" : 145,
                    "_type" : "UnifiedMedia",
                    "video" : 
                        {
                          "id" : 146,
                          "_type" : "ScreenVMFile",
                          "src" : 12,
                          "trackNumber" : 0,
                          "attributes" : {
                            "ident" : "Rec 6-06-2023-16-16-39"
                          },
                          "parameters" : {
                            "scale0" : {
                              "type" : "double",
                              "defaultValue" : 0.666666666666667,
                              "interp" : "eioe"
                            },
                            "scale1" : {
                              "type" : "double",
                              "defaultValue" : 0.666666666666667,
                              "interp" : "eioe"
                            },
                            "sourceCrop0" : {
                              "type" : "double",
                              "defaultValue" : 0.0,
                              "interp" : "eioe"
                            },
                            "sourceCrop1" : {
                              "type" : "double",
                              "defaultValue" : 0.0,
                              "interp" : "eioe"
                            },
                            "sourceCrop2" : {
                              "type" : "double",
                              "defaultValue" : 0.0,
                              "interp" : "eioe"
                            },
                            "sourceCrop3" : {
                              "type" : "double",
                              "defaultValue" : 0.0,
                              "interp" : "eioe"
                            },
                            "geometryCrop0" : {
                              "type" : "double",
                              "defaultValue" : 0.0,
                              "interp" : "eioe"
                            },
                            "geometryCrop1" : {
                              "type" : "double",
                              "defaultValue" : 0.0,
                              "interp" : "eioe"
                            },
                            "geometryCrop2" : {
                              "type" : "double",
                              "defaultValue" : 0.0,
                              "interp" : "eioe"
                            },
                            "geometryCrop3" : {
                              "type" : "double",
                              "defaultValue" : 0.0,
                              "interp" : "eioe"
                            },
                            "cursorScale" : {
                              "type" : "double",
                              "defaultValue" : 2.25,
                              "interp" : "linr"
                            },
                            "cursorOpacity" : {
                              "type" : "double",
                              "defaultValue" : 1.0,
                              "interp" : "linr"
                            }
                          },
                          "effects" : [

                          ],
                          "start" : 274690080000,
                          "duration" : 10725120000,
                          "mediaStart" : 9243360000,
                          "mediaDuration" : 10725120000,
                          "scalar" : 1,
                          "animationTracks" : {

                          }
                        },
                    "audio" : 
                        {
                          "id" : 147,
                          "_type" : "AMFile",
                          "src" : 12,
                          "trackNumber" : 1,
                          "attributes" : {
                            "ident" : "",
                            "gain" : 1.0,
                            "mixToMono" : false,
                            "loudnessNormalization" : true,
                            "sourceFileOffset" : 0
                          },
                            "channelNumber" : "0,1",
                          "effects" : [

                          ],
                          "start" : 274690080000,
                          "duration" : 10725120000,
                          "mediaStart" : 9243360000,
                          "mediaDuration" : 10725120000,
                          "scalar" : 1,
                          "animationTracks" : {

                          }
                        }
,
                    "start" : 274690080000,
                    "duration" : 10725120000,
                    "mediaStart" : 0,
                    "mediaDuration" : 34056960000,
                    "scalar" : 1,
                    "metadata" : {
                      "AutoAppliedSmartFocus" : "False",
                      "clipSpeedAttribute" : false
                    }
                  },
                  {
                    "id" : 148,
                    "_type" : "UnifiedMedia",
                    "video" : 
                        {
                          "id" : 149,
                          "_type" : "ScreenVMFile",
                          "src" : 12,
                          "trackNumber" : 0,
                          "attributes" : {
                            "ident" : "Rec 6-06-2023-16-16-39"
                          },
                          "parameters" : {
                            "scale0" : {
                              "type" : "double",
                              "defaultValue" : 0.666666666666667,
                              "interp" : "eioe"
                            },
                            "scale1" : {
                              "type" : "double",
                              "defaultValue" : 0.666666666666667,
                              "interp" : "eioe"
                            },
                            "sourceCrop0" : {
                              "type" : "double",
                              "defaultValue" : 0.0,
                              "interp" : "eioe"
                            },
                            "sourceCrop1" : {
                              "type" : "double",
                              "defaultValue" : 0.0,
                              "interp" : "eioe"
                            },
                            "sourceCrop2" : {
                              "type" : "double",
                              "defaultValue" : 0.0,
                              "interp" : "eioe"
                            },
                            "sourceCrop3" : {
                              "type" : "double",
                              "defaultValue" : 0.0,
                              "interp" : "eioe"
                            },
                            "geometryCrop0" : {
                              "type" : "double",
                              "defaultValue" : 0.0,
                              "interp" : "eioe"
                            },
                            "geometryCrop1" : {
                              "type" : "double",
                              "defaultValue" : 0.0,
                              "interp" : "eioe"
                            },
                            "geometryCrop2" : {
                              "type" : "double",
                              "defaultValue" : 0.0,
                              "interp" : "eioe"
                            },
                            "geometryCrop3" : {
                              "type" : "double",
                              "defaultValue" : 0.0,
                              "interp" : "eioe"
                            },
                            "cursorScale" : {
                              "type" : "double",
                              "defaultValue" : 2.25,
                              "interp" : "linr"
                            },
                            "cursorOpacity" : {
                              "type" : "double",
                              "defaultValue" : 1.0,
                              "interp" : "linr"
                            }
                          },
                          "effects" : [

                          ],
                          "start" : 285415200000,
                          "duration" : 9078720000,
                          "mediaStart" : 20979840000,
                          "mediaDuration" : 9078720000,
                          "scalar" : 1,
                          "animationTracks" : {

                          }
                        },
                    "audio" : 
                        {
                          "id" : 150,
                          "_type" : "AMFile",
                          "src" : 12,
                          "trackNumber" : 1,
                          "attributes" : {
                            "ident" : "",
                            "gain" : 1.0,
                            "mixToMono" : false,
                            "loudnessNormalization" : true,
                            "sourceFileOffset" : 0
                          },
                            "channelNumber" : "0,1",
                          "effects" : [

                          ],
                          "start" : 285415200000,
                          "duration" : 9078720000,
                          "mediaStart" : 20979840000,
                          "mediaDuration" : 9078720000,
                          "scalar" : 1,
                          "animationTracks" : {

                          }
                        }
,
                    "start" : 285415200000,
                    "duration" : 9078720000,
                    "mediaStart" : 0,
                    "mediaDuration" : 34056960000,
                    "scalar" : 1,
                    "metadata" : {
                      "AutoAppliedSmartFocus" : "False",
                      "clipSpeedAttribute" : false
                    }
                  },
                  {
                    "id" : 151,
                    "_type" : "UnifiedMedia",
                    "video" : 
                        {
                          "id" : 152,
                          "_type" : "ScreenVMFile",
                          "src" : 12,
                          "trackNumber" : 0,
                          "attributes" : {
                            "ident" : "Rec 6-06-2023-16-16-39"
                          },
                          "parameters" : {
                            "scale0" : {
                              "type" : "double",
                              "defaultValue" : 0.666666666666667,
                              "interp" : "eioe"
                            },
                            "scale1" : {
                              "type" : "double",
                              "defaultValue" : 0.666666666666667,
                              "interp" : "eioe"
                            },
                            "sourceCrop0" : {
                              "type" : "double",
                              "defaultValue" : 0.0,
                              "interp" : "eioe"
                            },
                            "sourceCrop1" : {
                              "type" : "double",
                              "defaultValue" : 0.0,
                              "interp" : "eioe"
                            },
                            "sourceCrop2" : {
                              "type" : "double",
                              "defaultValue" : 0.0,
                              "interp" : "eioe"
                            },
                            "sourceCrop3" : {
                              "type" : "double",
                              "defaultValue" : 0.0,
                              "interp" : "eioe"
                            },
                            "geometryCrop0" : {
                              "type" : "double",
                              "defaultValue" : 0.0,
                              "interp" : "eioe"
                            },
                            "geometryCrop1" : {
                              "type" : "double",
                              "defaultValue" : 0.0,
                              "interp" : "eioe"
                            },
                            "geometryCrop2" : {
                              "type" : "double",
                              "defaultValue" : 0.0,
                              "interp" : "eioe"
                            },
                            "geometryCrop3" : {
                              "type" : "double",
                              "defaultValue" : 0.0,
                              "interp" : "eioe"
                            },
                            "cursorScale" : {
                              "type" : "double",
                              "defaultValue" : 2.25,
                              "interp" : "linr"
                            },
                            "cursorOpacity" : {
                              "type" : "double",
                              "defaultValue" : 1.0,
                              "interp" : "linr"
                            }
                          },
                          "effects" : [

                          ],
                          "start" : 294493920000,
                          "duration" : 3763200000,
                          "mediaStart" : 30293760000,
                          "mediaDuration" : 3763200000,
                          "scalar" : 1,
                          "animationTracks" : {

                          }
                        },
                    "audio" : 
                        {
                          "id" : 153,
                          "_type" : "AMFile",
                          "src" : 12,
                          "trackNumber" : 1,
                          "attributes" : {
                            "ident" : "",
                            "gain" : 1.0,
                            "mixToMono" : false,
                            "loudnessNormalization" : true,
                            "sourceFileOffset" : 0
                          },
                            "channelNumber" : "0,1",
                          "effects" : [

                          ],
                          "start" : 294493920000,
                          "duration" : 3763200000,
                          "mediaStart" : 30293760000,
                          "mediaDuration" : 3763200000,
                          "scalar" : 1,
                          "animationTracks" : {

                          }
                        }
,
                    "start" : 294493920000,
                    "duration" : 3763200000,
                    "mediaStart" : 0,
                    "mediaDuration" : 34056960000,
                    "scalar" : 1,
                    "metadata" : {
                      "AutoAppliedSmartFocus" : "False",
                      "clipSpeedAttribute" : false
                    }
                  }
                ]
              },
              {
                "trackIndex" : 1,
                "medias" : [
                  {
                    "id" : 154,
                    "_type" : "UnifiedMedia",
                    "video" : 
                        {
                          "id" : 155,
                          "_type" : "VMFile",
                          "src" : 10,
                          "trackNumber" : 1,
                          "attributes" : {
                            "ident" : "video5764809536821005908"
                          },
                          "parameters" : {
                            "translation0" : {
                              "type" : "double",
                              "defaultValue" : 214.213564213564,
                              "interp" : "eioe"
                            },
                            "translation1" : {
                              "type" : "double",
                              "defaultValue" : -120.49512987013,
                              "interp" : "eioe"
                            },
                            "scale0" : {
                              "type" : "double",
                              "defaultValue" : 0.665291305916306,
                              "interp" : "eioe"
                            },
                            "scale1" : {
                              "type" : "double",
                              "defaultValue" : 0.665291305916306,
                              "interp" : "eioe"
                            },
                            "sourceCrop0" : {
                              "type" : "double",
                              "defaultValue" : 0.0,
                              "interp" : "eioe"
                            },
                            "sourceCrop1" : {
                              "type" : "double",
                              "defaultValue" : 0.0,
                              "interp" : "eioe"
                            },
                            "sourceCrop2" : {
                              "type" : "double",
                              "defaultValue" : 0.0,
                              "interp" : "eioe"
                            },
                            "sourceCrop3" : {
                              "type" : "double",
                              "defaultValue" : 0.0,
                              "interp" : "eioe"
                            },
                            "geometryCrop0" : {
                              "type" : "double",
                              "defaultValue" : 0.0,
                              "interp" : "eioe"
                            },
                            "geometryCrop1" : {
                              "type" : "double",
                              "defaultValue" : 0.0,
                              "interp" : "eioe"
                            },
                            "geometryCrop2" : {
                              "type" : "double",
                              "defaultValue" : 0.0,
                              "interp" : "eioe"
                            },
                            "geometryCrop3" : {
                              "type" : "double",
                              "defaultValue" : 0.0,
                              "interp" : "eioe"
                            }
                          },
                          "effects" : [

                          ],
                          "start" : 258296640000,
                          "duration" : 3480960000,
                          "mediaStart" : 1058400000,
                          "mediaDuration" : 3480960000,
                          "scalar" : 1,
                          "animationTracks" : {

                          }
                        },
                    "audio" : 
                        {
                          "id" : 156,
                          "_type" : "AMFile",
                          "src" : 10,
                          "trackNumber" : 0,
                          "attributes" : {
                            "ident" : "",
                            "gain" : 1.0,
                            "mixToMono" : false,
                            "loudnessNormalization" : true,
                            "sourceFileOffset" : 0
                          },
                            "channelNumber" : "0,1",
                          "parameters" : {
                            "volume" : 0.0
                          },
                          "effects" : [

                          ],
                          "start" : 258296640000,
                          "duration" : 3480960000,
                          "mediaStart" : 1058400000,
                          "mediaDuration" : 3480960000,
                          "scalar" : 1,
                          "animationTracks" : {

                          }
                        }
,
                    "start" : 258296640000,
                    "duration" : 3480960000,
                    "mediaStart" : 0,
                    "mediaDuration" : 4539360000,
                    "scalar" : 1,
                    "metadata" : {
                      "clipSpeedAttribute" : false,
                      "default-anchor0" : 0.0,
                      "default-anchor1" : 0.0,
                      "default-anchor2" : 0.0,
                      "default-height" : 720.0,
                      "default-rotation0" : 0.0,
                      "default-rotation1" : 0.0,
                      "default-rotation2" : 0.0,
                      "default-scale0" : 1.0,
                      "default-scale1" : 1.0,
                      "default-scale2" : 1.0,
                      "default-shear0" : 0.0,
                      "default-shear1" : 0.0,
                      "default-shear2" : 0.0,
                      "default-translation0" : 0.0,
                      "default-translation1" : 0.0,
                      "default-translation2" : 0.0,
                      "default-width" : 1280.0
                    }
                  }
                ]
              }            ]
          }
        }
      ]
    },
    "trackAttributes" : [
      {
        "ident" : "",
        "audioMuted" : false,
        "videoHidden" : false,
        "magnetic" : false,
        "matte" : 0,
        "solo" : false,
        "metadata" : {
          "IsLocked" : "False",
          "WinTrackHeight" : "56"
        }
      },
      {
        "ident" : "",
        "audioMuted" : false,
        "videoHidden" : false,
        "magnetic" : false,
        "matte" : 0,
        "solo" : false,
        "metadata" : {
          "IsLocked" : "False",
          "WinTrackHeight" : "56"
        }
      }
    ],
    "captionAttributes" : {
      "enabled" : true,
      "fontName" : "Arial",
      "fontSize" : 42,
      "backgroundColor" : [ 0, 0, 0, 191],
      "foregroundColor" : [ 255, 255, 255, 255],
      "lang" : "en",
      "alignment" : 0,
      "defaultFontSize" : true,
      "opacity" : 0.5,
      "backgroundEnabled" : true,
      "backgroundOnlyAroundText" : true
    },
    "gain" : 1.0,
    "legacyAttenuateAudioMix" : false,
    "backgroundColor" : [ 0, 0, 0, 255]
  },
  "metadata" : {
    "AutoSaveFile" : "C:\\Users\\azuwin\\AppData\\Local\\TechSmith\\Camtasia Studio\\22.0\\Auto-Saves\\bitirme_sunum11287f4f.autosave.tscproj",
    "CanvasZoom" : 77,
    "Date" : "2023-06-06 01:02:34 ÖS",
    "IsAutoSave" : false,
    "IsStandalone" : true,
    "Language" : "ENU",
    "ProfileName" : "",
    "ProjectDimensionsChanged" : "1",
    "ProjectThumbnail" : "iVBORw0KGgoAAAANSUhEUgAAAoAAAAFoCAYAAADHMkpRAAAAAXNSR0IArs4c6QAAAARnQU1BAACx\r\njwv8YQUAAAAJcEhZcwAAEnQAABJ0Ad5mH3gAACm4SURBVHhe7d0HtBRVtsbxJ+acUIyAoJgwOyBi\r\nQtERw5jTqJgds2JGMY6DGDEtI2DEURzj6JizYs4ZAwrmiFlBOe99Z95hVVfvrq4b4F62/7PWb+nd\r\n51R1dfVl9b4n1f/8XwkAAAD4QzGDAAAA8MsMAgAAwC8zCAAAAL/MIAAAAPwygwAAAPDLDAIAAMAv\r\nMwgAAAC/zCAAAAD8MoMAAADwywwCAADALzMIAAAAv8wgAAAA/DKDAAAA8MsMAgAAwC8zCAAAAL/M\r\nIAAAAPwygwAAAPDLDAIAAMAvMwgAAAC/zCAAAAD8MoMAAADwywwCAADALzMIAAAAv8wgAAAA/DKD\r\nAAAA8MsMAgAAwC8zCAAAAL/MIAAAAPwygwAAAPDLDAIAAMAvMwgAAAC/zCAAAAD8MoMAAADwywwC\r\nAADALzMIAAAAv8wgAAAA/DKDAAAA8MsMAgAAwC8zCAAAAL/MIAAAAPwygwAAAPDLDAIAAMAvMwgA\r\nAAC/zCAAAAD8MoMAAADwywwCAADALzMIAAAAv8wgAAAA/DKDAAAA8MsMAgAAwC8zCAAAAL/MIAAA\r\nAPwygwAAAPDLDAIAAMAvMwgAAAC/zCAAAAD8MoMAAADwywwCAADALzMIAAAAv8wgAAAA/DKDAAAA\r\n8MsMAgAAwC8zCAAAAL/MIAAAAPwygwAAAPDLDAIAAMAvMwgAAAC/zCAAAAD8MoMAAADwywwCAADA\r\nLzMIAAAAv8wgAAAA/DKDAAAA8MsMAgAAwC8zCAAAAL/MIAAAAPwygwAAAPDLDAIAAMAvMwgAAAC/\r\nzCAAAAD8MoMAAADwywwCAADALzMIAAAAv8wgAAAA/DKDAAAA8MsMAgAAwC8zCAAAAL/MIAAAAPwy\r\ngwAAAPDLDAIAAMAvMwgAAAC/zCAAAAD8MoMAAADwywwCAADALzMIAAAAv8wgAAAA/DKDAAAA8MsM\r\nAgAAwC8zCAAAAL/MIAAAAPwygwAAAPDLDAIAAMAvMwgAAAC/zCAAAAD8MoMAAADwywwCAADALzMI\r\nAAAAv8wgAAAA/DKDAAAA8MsMAgAAwC8zCAAAAL/MIAAAAPwygwAAAPDLDAIAAMAvMwgAAAC/zCAA\r\nAAD8MoMAAADwywwCAADALzMIAAAAv8wgAAAA/DKDAAAA8MsMAgAAwC8zCAAAAL/MIAAAAPwygwAA\r\nAPDLDAIAAMAvMwgAAAC/zCAAAAD8MoMAAADwywwCAADALzMIAAAAv8wgAAAA/DKDAAAA8MsMAgAA\r\nwC8zCAAAAL/MIAAAAPwygwAAAPDLDALIWWSRRcKKK64YpplmGrMefnj9rJdbbrnw1FNPhX79+pn1\r\n9Zx11lnhnnvuCe3btzfrAUxVzCDgwrrrrhsef/zx8Mgjj4SRI0dWefTRR8Ptt98ezjzzzLDRRhuF\r\nmWaayTzP7LPPHp555pmgsv7665ttmmK66aYLl1xySbxWyV/nY489Fv7zn/+E888/P2y//fZh4YUX\r\nNs+DagMHDoyf3S677GLW502uz7pt27bhpptuCrfeemuYf/75zTYWJW36PT3xxBPN+oZYe+214/u6\r\n7LLLzPp69O9IZZllljHrAUxVzCDgwl//+tf4hfXNN9+El156Kbz88ssVXn311fD+++/HNipKtpZf\r\nfvmq82STgg022KCqvqlmmGGGeC0qo0aNqrpW1b333nvh559/jm2++uqrMGjQoDDvvPOa58N/Lbvs\r\nspPu2WuvvRZmm202s11Wvc9ayXfv3r3DggsuWFVXz8knnxzPq8/OqrfoDxSVNddc06xvCJ1D5cIL\r\nLzTr67nvvvvCL7/8EpZaaimzHsBUxQwCLqi3TEVDV/p52mmnrTD99NOHueaaK6y88srhyiuvjG3f\r\neuut0K5du6pzLbroopNtWFAJ4Isvvhi+/fbb0KVLlxjLX+ccc8wRllhiibDrrruG559/Pl7rK6+8\r\nYias+K/BgwfH+/Tcc8/F/+6www5mu7yiz/rggw+O5/rb3/5WVVfPrLPOGpP7CRMmxN85q03Wdttt\r\nF18r/f42FQkggAwzCLiQEsAzzjjDrM8bMWJEbL///vub9ZNLSgDHjRsXOnXqZLbJUvvUmzR69OhS\r\nx/zRaB7f119/HXvzVlpppfDjjz/G4XUl1Fb7spT4qZQdUs7beOON4/F33nln4R8T88wzT3j33XfD\r\nmDFjwnzzzWe2aSgSQAAZZhBwISWAmuNn1edtvvnmsf2ll15aVbfCCiuEtdZaK8wyyyxmXc+ePcOM\r\nM84Yf1aPnYYfu3XrVnNeYVY2AezcubPZxnL88cfH67355pvN+qRNmzbxS3uNNdaI1JNotctqyHvS\r\nHEadX+2VZCjhKpO0NOa6yjr66KPjvdl7773jz1dccUX8ucy8vvxnrURNPXZ6f+eee248j/6oWH31\r\n1cM666wT55o2ZGHE8OHD4zl22mkns15OPfXU2GbnnXc262WxxRYLPXr0iNeqHkv1ElvtkrIJ4JJL\r\nLhk23HDDsPTSS1fEyySAc845Z+yV1r3SZ6r5gvrdsdom+d81Jek6TtereK1/E2qXfn/UTtddtoe+\r\nMdcJOGMGARcamgBuuummsf0FF1xQVVc0AV6LNL7//vs4L0w9PBpynDhxYoyVSegamwAq8dK8RZVe\r\nvXqZbZTUqs2vv/4a26loXtz9999f8xgp+5622GKL8PTTT1ecX+Xjjz+OPapKkLLnTRp7XWXoy11z\r\nJj/44IPYk6ZY9+7d42vccsstVe3z8p+1EtXXX389xlR0H/LlhBNOqDpPLUp0Ndyva9TikHy9krnf\r\nfvst3H333WZCo3uqHsTvvvvu/1/9v0U9hlosomkN+WOkTAKoz/qnn34Kn3/+eUxws3VFCaD+ONBC\r\nJs2p/f333+PrqIwfPz72wurzzh+TZH/X+vTpE3+fdFwqP/zwQ7jxxhsrXnezzTYLTz75ZNXvz733\r\n3huT4uz5s5pynYAzZhBwoaEJYJoHuO2221bVFX35PfDAAzHhUY+ckgNttXHUUUfFLymrxzCvsQmg\r\npIUuF110UVXdP/7xj1j3xRdfxJ4r9Sb17ds3JrgaHlXZb7/9qo6TMu9pjz32iOfQohTNt9P5Nc/u\r\nsMMOi6tdVW644YaqczflusrYbbfd4jkGDBhQEb/jjjtifJVVVqmI5+U/ayVh6uVTsjtkyJB4Dt3v\r\nv/zlL2HrrbeOvy/qfcqfp8gRRxwRz3P66adX1WnFt5ITa56g7q2KEp+rr746fgaaK3jssceGF154\r\nIdYpWbemBdRLAPXZ6bNW4qzVx/n6Wv8G1IOmuBJHJdiHH354PJeGyfWZKtlVqdWbqaT/k08+ib2e\r\nen0ldro/+vd74IEHhoceeigen6Y7pHv3xhtvxMRbr6WeXvWEqyiZVK9o/nWaep2AM2YQcCElgEWr\r\nLjXss/jii09aMKAkIQ1FZRUlgOp10BeXehEas11HUxJAXbt6SPSlr56qFNcXoooSOS1qyB4jHTp0\r\niD0vKtZq13rvSb1M6nFSwlZrIYqGgjVMmY019brq0ef57LPPxnuZH5ZV75KKNcSfVfRZN3UOYKIk\r\nWot51NOXTUiVkKicdtppFe0lJfvqjdS9zderR/i4446LbTTfUYtOsvVFCeA+++wT6955552qod+k\r\n1n3RtjZ63VpJsK71yy+/jL1u1sp17S2Yiv7gyNeL/ohT0cIn3bOhQ4ea0yuUMKqod1n/rrJ1Tb1O\r\nwBkzCLiQEsCPPvooJhX6UshST4O+UNRjoHLttdfWnLNXlBSkLzBt2ZGvK6MpCaASMX1p60srDSdq\r\n/t3YsWPj+15ooYWqjkmUIKkX7oknnojJQ7au3ntSkqBeqAcffNCstzTHddWzySabxOs+77zzqup0\r\nLvVkKmEuus9Fn/UBBxwQz7/nnntW1TXUn//853iuu+66K/6s4Wr1ckk+AZl77rnj56zeKw0RZ+vy\r\ntM+fSr4XtVYCmOZLqketaB5m0X2pRyuZVdSTmq9Lv2tFw/Ma1tf7V9FK6plnntlsJ2kIf9VVVzXr\r\nixRdJ+CMGQRcSAmgkglrH0DR/nBaaakhN/VoaZgz33MgZRLArbbaqqqujKYkgNrb7s033wwffvjh\r\npO1rNFSpkh8Ctfz973+PbfNflvXek3pTNESsHsB6Q6pJc1xXPUqm1ENkDWGKhppVdH6rXqZUAihp\r\n2oF+V0866aT4/+oFzLfT0LtKvd5L0XvXVjPqBczGrQRQveMqtYaNsxqSAKYtjNKq63TfdP/zbdPv\r\nmt5jvi7ruuuui+2OOeYYsz5Rj7XKNttsY9ZnNeQ6AWfMIOBCSgBr7QMo6vFTMqM5Q+mLSJPE8+cq\r\n+vLTcKmKVjPm68poSgK4wAILxB417V+YNjpOW8SoZyetVLWoTsmYivYXzJ63zHtKc7HUozZs2LCw\r\n4447xmSw1pMumuO6imjyv4pW/Fr1onutpF/Ja62VylMyAVTSpT9QtFm5httr9bim5FDz/az6LE1h\r\n0Obhn376aUVPa0oAU++o5jGmUibhKbov+nekVc1a+KPFFPrjSr3r+q/++NLvqEpalZ2l86rU29Py\r\nnHPOie20WMuqT9JwtvVaTblOwBkzCLiQEsCy+wAqOdBjt1T02KxsXdGXX6qrNXeqnqYkgGl1axpG\r\nlLRVSUNK//79K85b9j2pV0/z+ZTApKLkSsm0vmizQ7jNcV1FUm+aEtNaCeZqq60WrrrqqthO88Ws\r\n8xR91s2dAMohhxwSz6lVvbUS7nTv1ltvPbM+T8PnOl/29yklgNdcc024/PLL4/8rCdLqWfWC19uG\r\np9Z90dNT0gIbLaTQYpTsVAtNv9CKZ5VaCWCt+51Vdnh2r732iu2UCGbjTb1OwBkzCLiQEsCyq4Al\r\nfXnkt/Uo+pIq+wVWS1MSwDQ5/qCDDpoUS0Ngp5xyyqSVqkWsVawNfU9a0KGkWQmShuo0mV5FSVna\r\nX605rqsWXWdaxVm2qMcnv1BCit775EgA9R41nzI/ZJuV7l3ZHkD1aqkHMPvIupQApi1W0meTenI1\r\nd866H0mt+5J6a3U+a2GPpH9XTUkAzz777HiOegmgXkMlnwA29ToBZ8wg4EJjEkDNG1LRquBsvOhL\r\nqqHJUl5jE0AtBtATLrSFRnaoL+1nqPmM2fYN0dT3pGfmptW8afPl5riuWtTLq6JhZs0lsxLKRMnn\r\n9ddfH9tbCVXRe08JoLZfydc1ll5HvXBFCWC6d2XmAHbt2jXOAdT9z8ZTAqiiHsXsqvHUe3rxxRdX\r\nHJNV676ot1HJd9Fm2Pvuu288f0smgE29TsAZMwi40JgEMCUS/fr1q4gXfUk1NVlqTAKouWOat6SS\r\n/7JKK4M1FKtHomXrymrqe5K0JUdKlprjuizq5dI8Os2DLFodmqWhVm1zo16vbCIkRe89JQj55KIp\r\n9Dr1EkDdu1GjRsVVwPXmmmoOq3WNKQG86aabKuKiVbZaIa1S61GIte6LtrNRb2PR01/SHn0tmQA2\r\n9ToBZ8wg4EJKAIv2AczaaKON4pYw+pJtyGOwmposZRPAeomRJrFrlai2U1GxNhIW9Wyp6EtdTz+w\r\n2mijYSUDmkeYr6v3njp27Bj3qlNvk1WvuX9a0KCiuXcp3tTrsmhDX5UjjzzSrK8lbVadn1dX9N7T\r\nNjPaMigbL/sIMotep14CKOneaRGLlQTqnqdhTs1lzSfDKQE8//zzK+KJruOzzz6LvYfZzyypdV/S\r\n5tjW5t26L2nxj0pLJoBNvU7AGTMIuJASwNtuu63mnDNtrqshST1aK5WGfkmV/QKrRQmgJqQrCVDv\r\nixZWpOvTNiyaC6cNiLV9h7Z8UVGyqOFI63yJ5gWq6Nr++c9/xi8+JRE6Tk/o0Be9kt3evXtXHVvv\r\nPaUNizV3TQtQ9CQKLfrQPdf91OICFS040Grr7LFNua48Pf9WPWNahFJrXlctSvhV9JixbLzovWt/\r\nPu2Xp6LNiHXdmkOnZLexvZp6nTIJoKQFI7rvWsyy++67x2vQ1ijq4VLRvVeCnj82JYC1ngQiehSc\r\nivaV1Kbc2bpa90WPzFPiqKL5n+rx1e+sfg+0vYx+V3WvVFoyAWzqdQLOmEHAhfTkhDJFXwwa/rEe\r\nISVFzwIuqitDCaAm7dcrmu+ndtrDLv+EjVq0GlY9XdlVuipapDF8+PCa11zvPWnxgJIFnVtDutmi\r\nPRXffvvtuIK31sbajb2uvDRpvyipqUX3PSVNWh2c4vXee7du3SYNl6ain8t+Jnl6HRUlblZ9nn5H\r\n9bg461nAWryk4VzrOC3SUdFG0VZ9knpU1YuoBDvFi+6LnqKhPwSUyKaixSZKatWTu+WWW8aYhtDz\r\nx5b996Pta1Tq/WGQhumtoeymXCfgjBkEXNB+dOotyG4Dkqfng+pLQfvpWedINOSmL17r2b5FdWVo\r\n+En75/Xq1cu8Rn1xK0Hp0qVLTFqsc9Sj3jF9welc+m/RkzikIe9Jc6p0D3UvRRsRpz0J62nodeWp\r\n10gJQXoKSkNp6xMtUsm+bpn3rsRWQ9Vqp8U4jf1cRK+j8+geWvW1KOFUIp2OzSZrFiWGGu7W75FV\r\nn6jHVufVfdXcwxQvc190bv0OqLdR0yjS/Er9juh82VXJSdnfNc2PzV+TRa+hdkW/S425TsAZMwgA\r\nAAC/zCAAAAD8MoMAAADwywwCAADALzMIAAAAv8wgAAAA/DKDAAAA8MsMAgAAwC8zCAAAAL/MIAAA\r\nAPwygwAAAPDLDAIAAMAvMwjgD2rWWWcNvXr1Ct26dQvTTDON2cYy44wzhrXXXjusuuqqZj0AoFUx\r\ngwD+oGaaaaYwcuTIoLL++uubbSwHHnhgPOaEE04w6wEArYoZBPAHttpqq8Vk7plnngkzzzyz2Sar\r\nQ4cO4auvvgovvfRSmGWWWcw2AIBWxQwC+IMbPHhwTAIPPfRQsz5r6NChse2GG25o1gMAWh0zCOAP\r\nrl27dmHMmDHh66+/Dp06dTLbyHrrrReTv6uvvtqsBwC0SmYQAMIuu+wSk7srr7zSrNfCDw0Tf/vt\r\nt6Fz584VdVpM0qdPn3DGGWeE22+/PTzyyCPhtttuCwMGDAhLL710Rdus5ZZbLjz11FNh9913jz/P\r\nPffc8f+vu+668Oijj4Y777wzDBw4MHTv3r3q2Kyzzjor3HPPPaF9+/ZVdbruLbbYIlxyySXh/vvv\r\nDw8//HAYMWJEOOKII8Iqq6wS2rRpU9E+XVO/fv0q4tm63XbbLf686KKLxnY333xzvF6952OOOSZ0\r\n6dKl6tisous9++yzw6233hrmmWee+PMGG2wQLrzwwvDAAw+EBx98MAwZMiS+n+mnn77qWACowQwC\r\nQEyElJSoKOnI1x9yyCGx7rDDDquIb7nlluH111+Pdd9//30YNWpUePXVV8OHH34YYz/99FPYa6+9\r\nKo5JtJJYRYtJtKL47bffjj+PHTs2vPLKK+H999+PP6sMGzYsJojWeZRwqiyzzDIV8UUWWSQmTio/\r\n/PBDePPNN8Nrr70Wz5/KRRddVHFMuqbLLrusIp6tO+mkk8JWW20Vvvnmm/D777+Hd955J573888/\r\nj/VKknfdddeq45Na1yuPPfZYGDduXExOb7zxxthO59X5dX8mTpwYY3fccUfsuc0fDwAGMwgAkZIw\r\nJTTPPfdcxYKQjh07xmRHca0czh5z7bXXhpdffjnssMMOYbHFFou9geqdUg/WJptsEj744IOYsKy+\r\n+uoVx8maa64Z69Tj9dlnn4Xnn38+Jp86drrppgtzzjlnbJMSU/3XWnhy3333hV9++SUstdRSFfGb\r\nbropHqceN70HXfsMM8wQ5p133tirqN7OAw44oOKYdE3qdcvGs3XqBVRiq+O7du0aZptttnheJWR7\r\n7rlnTDaVqK2zzjpV55Ba15vqlAAqif7444/jfdV5dX7d2xVWWCH2NKooQWzI9j0A/rDMIABMomFc\r\nlWxP3+WXXx5jvXv3rmgrStKUAOXjiRI6lSuuuKKqLiVUKg899FCYffbZq9rItNNOG4eFVY477riq\r\neiuhUjL63XffxaQ127aeMgmgyrnnnltVn6Th9H//+99mfVECmJLdL7/8MiaX+XpRcq73pbLGGmuY\r\nbQAgwwwCwCRt27YNo0ePjj1+Cy+8cOzFUlESaLWvR8mhhlxffPHFqvl2KaFSj9mKK65YUZen4Vwl\r\nRepRVA9ets5KqJZYYonw448/TpYEUO+naPhViayGhdWDt8ACC1TVl0kArUQ3a999943t+vfvb9YD\r\nQIYZBIAKO+64Y0wubrjhhvDkk0/G1cEaQrXaJtofUHPkNttss7D11ltHmh/Yt2/fOLz7xhtvVPUU\r\npoRKizOy8Vq0+lhFx2XjVkKlIWQtmlDRPD8tRtGCkOxxljIJoIZg83V5mntYK8krSgDvvffe+Bo9\r\nevSoqstaa621YjvrOgEgxwwCQAXNK9Nq3lQOOuggs51oYYZW2GreWlHRnLY55pij4tiUUOUXYtSi\r\n3i6V7bbbriJeK6HSalyt+lWZMGFCTEK1Yveoo46Kr23NJyyTAF566aVVdXm6f7/99ltcOZyvK0oA\r\nVTd+/HhzgUhW2sC7sT2zAP5QzCAAVOnZs2dMMLT6NL/wI1GiqF5CFc3h22OPPeI8QfUEauhYvVQb\r\nb7xx+OSTT8Jbb71VNcevsQngtttuWxEvSqjU66f9C7WdjHoEsyuLX3jhhfgs5Gz7MglgmV63piSA\r\nP//8s1mXRQIIoAHMIABUUe+ZEhFtS2LVi1YNq2jYMj+/L1ECpq1hpFYC2NAh4PzCh6KEKm+uueaK\r\nK2m1lYtW6mpeYXZfw9aQAJZ5LySAABrADAJAFSUgSgAff/xxs140x08lvzdglhZBaA5gUQ+g9g9U\r\nUpaty9OClC+++KL0IpAyBg0aFF9/5513nhQjAQTgkBkEgCplEsB11103JiF6OoVVL2lbGQ0l10oA\r\nVdQLqH3usvWJeheHDx8e25XdBkaLQOotXNEG1Crbb7/9pBgJIACHzCAAVCmTAGoPQC3uUNGTQrQ1\r\nijaB1j51Ol5P09AKYu3HpwUYtRLAtNL46aefjvP1tLAkbQStuYh6JJxKQzaC1ibU6lm8+OKL4+uo\r\nJzJtBK2tbrbZZpv4xA49ZSP7SDYSQAAOmUEAqKJVqCp6/q9Vn2i7Eu0bqKJkSgmhhnu16lZJnbaD\r\n0ZNCxowZU3MV8ODBg2OilxZopEfBpfOqKNFJz8fNsx6tttJKK01aAazy6aefxiRUPZFalKKi19lw\r\nww0rzlXmUXBWXd7dd98d2y6//PJVdUWPgiuqy9KTVVSuueYasx4AMswgAFRRr5iSmAsuuMCsz1Lv\r\n2sEHHxy3WNGiET2nVit2tTeg6ocOHRoTlXzvXb5HTXP79NzgESNGxPPcdddd4dRTT429Xdnj8vSo\r\nN/UOZnvyRE8Q0bFHHnlkuP766+MqYK1W1mISPbLN2sxZPXZ61Fu/fv0aVJen69awdqdOnarqal1v\r\nvbosJYgjR46MW9pY9QCQYQYBoEU0ZEgVANBoZhAAWgQJIABMEWYQAFoECSAATBFmEABaREMWVQAA\r\nGs0MAkCLaMiiCgBAo5lBAAAA+GUGAQAA4JcZBAAAgF9mEAAAAH6ZQQAAAPhlBgEAAOCXGQQAAIBf\r\nZhCAU2eddVa45557Qvv27c16NB/uNYBWzAwCaIVWWWWVcMQRR4TrrrsuPPTQQ+HBBx8Mw4cPDwcf\r\nfHBYfvnlzWPyHnnkkfikjWWWWcasR/PhXgNoxcwggFakW7du4c4774zJhMrHH38cXn/99eizzz77\r\n/2gI//rXv0LXrl3NcyT33Xdf+OWXX8JSSy1l1k9p0003XejevXt8j9NOO63ZZmrV2u41AGSYQQCt\r\nxD777BMmTJgQE7whQ4aENdZYI8w///xhxhlnjBZYYIGw7rrrxl5Ble+++y5su+225rmktSUlc889\r\nd/joo4/C6NGjw+yzz262mVqRAAJoxcwggFZgjz32iEnd2LFjwzrrrGO2ydp8883DuHHj4jGbbrqp\r\n2aa1JSUzzzxzePfdd8Obb74Zpp9+erPN1IoEEEArZgYBtLBll102/PDDD+Gbb74JK620ktnGssEG\r\nG4Tff/89Jo0LLbRQVX2tpKRNmzbhT3/6U+jRo0eYYYYZKuryFllkkdC7d+/Qrl07s17Dujp/z549\r\nw5prrhmvf7755qto07Zt25jUbrLJJnFIe8yYMaFPnz5hrbXWCr169QqrrbZaxXU01/WtsMIK8brU\r\ne6qflXTqXmsIeqaZZoqx5nqtogQwfx0a/tZcQd0vxTt37lx1TGqn86knWO2WXHLJMM0005ht8+ac\r\nc844V1TH6Xi9Xpmku8znmeg11ltvvdClSxezHkCrYQYBtLArrrgi9uTtv//+Zn2RQYMGxWNPOeWU\r\nqrpaSYkSkbfeeit88cUXNRO7RAtRVHbZZZequi222CI8/fTT4ddff41tUlGSN2LEiEk9mRqmLipf\r\nffVVWHDBBSedt7mu77HHHgvff/99PPfGG28cnnvuuTBx4sQYS0lXc71WUQKYvQ4lvrpn48ePj+dS\r\nUfJ/4403Vhy72WabhSeffLLi3v7888/h3nvvjclq9vxZSnAvueSS8P7778c/DlLR6z3zzDOx59g6\r\nTsp+nsnaa68d6y+77LKKOIBWxwwCaEHqVfryyy/jvLi55prLbFNk8cUXj8mFkpj8vLqiBPDll18O\r\nH374YZxjmK3LO/TQQ+OX/E477VQRT0PWSt4GDx4cdt5557DDDjuEww47LNx6662x7oYbboht1Tu5\r\nzTbbxMRJC1k0D1Dn23LLLWNcSVHqkZPmuD554IEHYvJy/PHHx8TvqaeeCkcddVRMrmaZZZbYprle\r\nqygBvP/++8Mnn3wSTj311HgdSuyUTG6//fbhwAMPjKu8VfQ70KlTp0mJ5htvvBFOOOGEeF/33nvv\r\ncPPNN8e4Pm/1nuZfRz19uoaffvop3HLLLeHwww+Px+q+X3DBBeHbb7+Nx+uzyh/bkM8zUQ+hyoUX\r\nXlgRB9DqmEEALUhDaCpXXXWVWV/Gww8/HM+RHz6eXAmgElXN5fv6669rbkmja1lsscUqYmXnADZX\r\nUqbeMiVc6v068cQTq+plSiSA2h8wFSWj+Xo588wzY/0rr7wSfvvttzB06NCKpDhRwqgycuTIqiFr\r\nXf9xxx0Xh4qz8USfif7YUO/gvPPOOyne2M+TBBCYaphBAC1ot912i1+ixx57rFlfhpIFFc0JzMYn\r\nVwK49NJLx2FC7U2YbVuPVgG/9957sbdyttlmM9tIcyVlKfG6/fbbq+qSKZkAqlcuX5doPt0777wT\r\n27300ksxWbbaSdpzcNVVVzXri2jDahWtJk+xxn6eJIDAVMMMAmhB2vpFRUNtVn0Z+gJW0SKLbHxy\r\nJYA6RkOr6jHShtXZ9kVaKgHcaqutquqSKZkAaug5X5eVtvc55phjzPpEvZkqGj636rO0kCTRzwcc\r\ncEA8tm/fvpPaNPbzJAEEphpmEEAL2nrrreOX6Omnn27Wl6EFBCr6Qs7GJ1cCKGmemhYwDBs2LOy4\r\n444xeSg635ROADUErKJVuPm6ZEokgKpTqfcEl3POOSe2q7WtT5L+aNC8wHydho11fVq0oUUfem8a\r\nVtZ/1bOo+ZfWsY35PEkAgamGGQTQgjS3SkULAaz6emadddaYUGlPwPwcraIEUElBU5MerRrVQgtt\r\nX5OKepLU46X22lIk274hCWBzXF96/xrizNclzf1atRLAWnVZ1vCsZa+99ortlAhm41oEdMcdd8Q6\r\nLfh44YUX4lzBRKuRdf9VrOSxoZ8nCSAw1TCDAFqQEhBtT6KJ/yuvvLLZpoi2N1HR4+PydbUSDy3A\r\nSL1BerpIti5PixZUrKQnWXTRReOWIBpe1DCmFhqoXHnllRWLPcomgM11fWUSrynxWmUTwLPPPjue\r\nv14CqORNJZ8ADhgwIMZ13/WZZOuSlDxaCWBS9vMkAQSmGmYQQAtLX8pFiwQs2spEW5uo5Of/SVHi\r\n8cQTT4Qff/wxbiOTr8vSUKJKUQKYt/DCC8feJpX1119/UjwlgFoFXJQASnNcX9nEa3K/1pRKAPU+\r\n1PPXvn37injWvvvuG48tSgDzan2eJIDAVMMMAmhh6lW566674pdp2bmAOiZtIK3/Wm2KEg9tFqyi\r\nuV75ukTbiWhhgEpDEkBJ25Vof7kUSytdpd6zgJvj+somXpP7taZUAvj888+HTz/9tOaTOyTtJdiQ\r\nBFCsz5MEEJhqmEEArYB6WZ599tn4hapFHV27djXbiR5dps2FVTQ/S4mV1a4o8dAj2FTefvttc984\r\nXc+jjz4a99FTySY9HTt2DKeddlrNa9RcMW29opJ/eoR6qfSEiu7du1fE85pyfUnZxGtyv9aUSgCH\r\nDBkS4/vtt19FXPQIuZNPPjnWq2QTwMZ+niSAwFTDDAJoJbQI4ZprrolfqhMmTIjz+o4++uj4RAb1\r\nTmmOV0r8VPR0h6Kh1HqJh3obVTTHS8mHEhs9AUKrURVTT50SA5Vs0qPrUdHeceq51B6GqteTLfSk\r\nDa0+VdF7SduPJKknScmW5pjpXNdee21cYJFtJ429vqRs4iWT87WmVAKo5/3qSSsqmrun3jo9hk+f\r\nieaZaqFQ2jMymwA29vMkAQSmGmYQQCvTu3fvON9MKzCzRT1QY8eOjU8NWX311c1js9KGwUoMrHr1\r\nCimJeO2112K7VDSPTAmEHuGmREAl+/xbDT9r8YkeEZa/RvXuKbnr37+/+SQLJRADBw6sWGmq11Oi\r\nm2/b2OtL6r3/rMn5WmWv47zzzovt9Plb9Umax2c9O1qrypXE6bnBqehJKI8//njsddXj91R0jnRM\r\nYz9PngUMTDXMIIBWSnO59IWunhY951X72c0zzzxmW4va65mx6bm3tWgrGbXV6yix7NChw6Q6rYxV\r\nQtKuXbuKY5K2bdvGJ1KMGjUqHHLIIfFZtvUWeIheQ++pZ8+e8XnIVpuksddX9v1nTY7XKnsdnTt3\r\njuev90zoBRdcMLZTUmrVS5cuXeL91fvQNjht2rSJcf1O6VidI39MqtfvnI6V5ZZbrubnqakHepSh\r\nXsuqB9BqmEEAaBIlSRpe1DYh9VbSAgCmODMIAE2iFb3qCbr++uvjEHXRNiQAgCnODAJAs1hiiSXi\r\nnDAlg1Y9AKBFmEEAaDQtnBg0aFDo27dvXLU8evTouG2K1RYA0CLMIAA0Wp8+feLqUT1rdtiwYWHZ\r\nZZc12wEAWowZBAAAgF9mEAAAAH6ZQQAAAPhlBgEAAOCXGQQAAIBfZhAAAAB+mUEAAAD4ZQYBAADg\r\nlxkEAACAX2YQAAAAfplBAAAA+GUGAQAA4JcZBAAAgF9mEAAAAH6ZQQAAAPhlBgEAAOCXGQQAAIBf\r\nZhAAAAB+mUEAAAD4ZQYBAADglxkEAACAX2YQAAAAfplBAAAA+GUGAQAA4JcZBAAAgF9mEAAAAH6Z\r\nQQAAAPhlBgEAAOCXGQQAAIBfZhAAAAB+mUEAAAD4ZQYBAADglxkEAACAX2YQAAAAfplBAAAA+GUG\r\nAQAA4JcZBAAAgF9mEAAAAH6ZQQAAAPhlBgEAAOCXGQQAAIBfZhAAAAB+mUEAAAD4ZQYBAADglxkE\r\nAACAX2YQAAAAfplBAAAA+GUGAQAA4JcZBAAAgF9mEAAAAH6ZQQAAAPhlBgEAAOCXGQQAAIBfZhAA\r\nAAB+mUEAAAD4ZQYBAADglxkEAACAX2YQAAAAfplBAAAA+GUGAQAA4JcZBAAAgF9mEAAAAH6ZQQAA\r\nAPhlBgEAAOCXGQQAAIBfZhAAAAB+mUEAAAD4ZQYBAADglxkEAACAX2YQAAAAfplBAAAA+GUGAQAA\r\n4JcZBAAAgF9mEAAAAH6ZQQAAAPhlBgEAAOCXGQQAAIBfZhAAAAB+mUEAAAD4ZQYBAADglxkEAACA\r\nX2YQAAAAfplBAAAA+GUGAQAA4JcZBAAAgF9mEAAAAH6ZQQAAAPhlBgEAAOCXGQQAAIBfZhAAAAB+\r\nmUEAAAD4ZQYBAADglxkEAACAX2YQAAAAfplBAAAA+GUGAQAA4JcZBAAAgF9mEAAAAH6ZQQAAAPhl\r\nBgEAAOCXGQQAAIBfZhAAAAB+mUEAAAD4ZQYBAADglxkEAACAX2YQAAAAfplBAAAA+GUGAQAA4JcZ\r\nBAAAgF9mEAAAAH6ZQQAAAPhlBgEAAOCXGQQAAIBfZhAAAAB+mUEAAAD4ZQYBAADglxkEAACAX2YQ\r\nAAAAfplBAAAA+GUGAQAA4JcZBAAAgF9mEAAAAH6ZQQAAAPhlBgEAAOCXGQQAAIBfZhAAAAB+mUEA\r\nAAD4ZQYBAADglxkEAACAX2YQAAAAfplBAAAA+GUGAQAA4JcZBAAAgF9mEAAAAC79T/hfcaoNDznD\r\nM9EAAAAASUVORK5CYII=",
    "RulerGuidesX" : [-432.0, -130.0, -453.0],
    "RulerGuidesY" : [],
    "RulerShowing" : false,
    "Title" : "bitirme_sunum",
    "audioNarrationNotes" : "",
    "calloutStyle" : "Basic"
  }
}
